<?xml version="1.0" standalone="no"?>
<!DOCTYPE svg PUBLIC "-//W3C//DTD SVG 1.1//EN" "http://www.w3.org/Graphics/SVG/1.1/DTD/svg11.dtd" >
<svg xmlns="http://www.w3.org/2000/svg" xmlns:xlink="http://www.w3.org/1999/xlink" version="1.1">
<metadata></metadata>
<defs>
<font id="murrayhill_bd_btbold" horiz-adv-x="1024" >
<font-face units-per-em="2048" ascent="1556" descent="-492" />
<missing-glyph horiz-adv-x="465" />
<glyph horiz-adv-x="0" />
<glyph unicode="&#xd;" horiz-adv-x="465" />
<glyph unicode=" "  horiz-adv-x="465" />
<glyph unicode="&#x09;" horiz-adv-x="465" />
<glyph unicode="&#xa0;" horiz-adv-x="465" />
<glyph unicode="!" horiz-adv-x="502" d="M145 8q0 52 29 79.5t84 27.5q63 0 96 -22.5t33 -63.5q0 -47 -31 -73t-88 -26q-49 0 -86 24t-37 54zM215 391q0 190 20 398.5t78 564.5v6q0 39 20 57.5t62 18.5q49 0 77 -21t28 -57q0 -8 -6.5 -20.5t-20.5 -30.5q-90 -337 -144.5 -640t-54.5 -411q0 -21 3.5 -42l3.5 -21 q-1 -8 -6 -12.5t-13 -4.5q-25 0 -36 50t-11 165z" />
<glyph unicode="&#x22;" horiz-adv-x="672" d="M92 1364q0 47 20.5 72.5t59.5 25.5t60.5 -25t21.5 -71q0 -10 -3 -36q-1 -5 -1 -7l-62 -455h-30l-62 455v4q-4 25 -4 37zM418 1366q0 46 21 71t61 25q38 0 59 -25.5t21 -72.5q0 -12 -4 -37q0 -2 -1 -4l-61 -455h-31l-61 455q-3 18 -3.5 26.5t-0.5 16.5z" />
<glyph unicode="#" horiz-adv-x="1575" d="M117 479l37 99h329l105 294h-359l35 99h359l170 483h114l-172 -483h295l172 483h113l-172 -483h315l-35 -99h-315l-102 -294h340l-37 -99h-340l-170 -479h-113l170 479h-293l-172 -479h-112l170 479h-332zM596 578h295l104 294h-295z" />
<glyph unicode="$" horiz-adv-x="930" d="M49 317q0 14 9.5 24.5t21.5 10.5q25 0 28 -70q0 -4 1 -6q32 -62 99.5 -95.5t180.5 -43.5v178v160q-135 42 -200.5 125t-65.5 211q0 148 81 282t146 134q17 0 36.5 -7t41.5 -19l4 110q0 3 -3 10t-3 10q0 12 9 18.5t26 6.5q39 0 51 -6.5t12 -24.5q0 -7 -2 -18t-2 -15 l-12 -125q133 -71 182 -146t49 -206q0 -86 -14 -113.5t-51 -27.5q-27 0 -45.5 20.5t-18.5 48.5q0 8 1.5 18.5t4.5 24.5q1 21 1.5 41.5t0.5 42.5q0 112 -29 176.5t-83 73.5q-23 -230 -35 -373.5t-16 -238.5q200 -67 261.5 -116t61.5 -120q0 -93 -93 -153t-251 -66 q-1 -43 -1.5 -80.5t-0.5 -70.5l1 -12.5t1 -24.5q5 -12 7.5 -20.5t2.5 -14.5q0 -10 -4.5 -16t-11.5 -7q-20 0 -28.5 49t-12.5 201q-137 18 -237.5 99.5t-100.5 160.5zM242 795q0 -96 36.5 -159.5t114.5 -103.5v43q0 115 7 251t22 296q-77 -26 -128.5 -120t-51.5 -207z M434 137q98 8 148.5 48.5t50.5 111.5q0 56 -41 92.5t-143 69.5l-1 -10q-12 -212 -14 -312z" />
<glyph unicode="%" horiz-adv-x="930" d="M61 850q0 144 62.5 251t132.5 107q17 0 41.5 -16.5t56.5 -50.5q38 -12 57 -41.5t25 -85.5q17 -10 31 -14.5t29 -4.5q63 0 115 67.5t75 182.5q-1 3 -1.5 5t-0.5 7q0 16 11 25.5t28 9.5q24 0 39.5 -10.5t15.5 -24.5q0 -4 -2 -10t-6 -12q-41 -165 -174 -421 q-35 -68 -51 -101q-118 -238 -168.5 -408.5t-50.5 -316.5v-17q3 -8 4.5 -13t1.5 -7q0 -14 -15.5 -24.5t-37.5 -10.5q-35 0 -55.5 18.5t-20.5 49.5q0 104 50.5 248t145.5 311q136 237 202.5 372.5t76.5 196.5q-47 -87 -95 -129.5t-100 -42.5q-7 0 -17.5 1.5t-20.5 4.5 q-8 -158 -55 -230.5t-142 -72.5q-89 0 -138 54t-49 153zM150 817q0 -69 28 -105t82 -36q71 0 107 63.5t36 188.5v35q-34 24 -52.5 55t-18.5 65q0 5 1.5 14t4.5 25q-13 7 -24 10t-21 3q-54 0 -98.5 -95t-44.5 -223zM467 203q0 135 68 246.5t129 111.5q11 0 31 -12t67 -49 q46 -5 73 -70t27 -176q0 -131 -52.5 -200.5t-150.5 -69.5q-90 0 -141 58t-51 161zM559 180q0 -82 29.5 -123t89.5 -41q67 0 105 57.5t38 159.5q0 91 -20 151t-52 69q-4 15 -10 20.5t-18 5.5q-67 0 -114.5 -84.5t-47.5 -214.5z" />
<glyph unicode="&#x26;" horiz-adv-x="1104" d="M70 174q0 82 99.5 145t293.5 103q-135 12 -213 98.5t-78 222.5q0 95 37.5 184t114.5 179q48 56 92.5 86.5t77.5 30.5q17 0 45 -12.5t71 -39.5q156 -81 218.5 -173t62.5 -240q0 -26 -0.5 -39.5t-1.5 -25.5q-2 -26 -20.5 -42t-47.5 -16q-24 0 -42.5 20.5t-18.5 46.5 q0 9 5 26l3 9q0 7 1 21q3 38 3 49q0 146 -50.5 226.5t-141.5 80.5q-99 0 -190 -139.5t-91 -296.5q0 -104 51.5 -162.5t143.5 -58.5q16 0 24.5 0.5t14.5 1.5q23 1 58.5 2.5t43.5 1.5q29 0 42 -11.5t13 -35.5q0 -15 -6.5 -24t-21.5 -15q-43 4 -77.5 6t-56.5 2 q-140 0 -223.5 -55t-83.5 -146q0 -100 91 -161.5t243 -61.5q133 0 219 53t86 131q0 47 -25.5 71t-87.5 34q-21 3 -57 5q-57 3 -57 26q0 12 21 28.5t44 16.5q20 0 103.5 -8.5t144.5 -8.5q37 0 81.5 5t51.5 5q12 0 20.5 -6.5t8.5 -15.5q-1 -24 -37.5 -35t-156.5 -18 q26 -21 38.5 -43.5t12.5 -50.5q0 -95 -131 -160.5t-328 -65.5q-173 0 -304.5 77t-131.5 173z" />
<glyph unicode="'" horiz-adv-x="346" d="M92 1364q0 47 20.5 72.5t59.5 25.5t59.5 -24.5t20.5 -71.5q0 -16 -0.5 -25t-1.5 -17l-62 -456h-30l-62 455v4q-4 25 -4 37z" />
<glyph unicode="(" horiz-adv-x="446" d="M131 600q0 261 67 502.5t193 435.5q5 15 11.5 21t19.5 6q39 0 71.5 -30t32.5 -62q0 -9 -7 -16t-23 -13q-104 -104 -179 -375t-75 -573q0 -269 66 -488.5t184 -347.5q19 -3 26.5 -9.5t7.5 -19.5q0 -11 -8.5 -18.5t-21.5 -7.5q-21 0 -50 33.5t-71 107.5 q-126 216 -185 423.5t-59 430.5z" />
<glyph unicode=")" horiz-adv-x="446" d="M-90 1538q0 11 8 17.5t23 7.5q20 0 49.5 -34t70.5 -106q129 -222 186.5 -429.5t57.5 -442.5q0 -250 -67.5 -488.5t-192.5 -433.5q-5 -16 -10.5 -21t-18.5 -5q-39 0 -71.5 30t-32.5 64q0 8 6 14t23 13q107 107 181.5 381t74.5 593q0 249 -68.5 466.5t-183.5 342.5 q-20 4 -27.5 11t-7.5 20z" />
<glyph unicode="*" horiz-adv-x="522" d="M53 1139q0 8 4.5 13t12.5 5q5 0 7.5 -0.5t4.5 -1.5q51 15 75 23.5t43 18.5q-4 11 -12 31q-32 78 -32 103q0 26 15 45t36 19q23 0 34 -68q9 -57 19 -96q46 78 90.5 127t65.5 49q10 0 16 -5.5t6 -15.5t-48 -58.5t-77 -108.5q48 5 76 7.5t43 2.5q34 0 52 -11t18 -32 q0 -11 -7 -17t-18 -6q-5 0 -7.5 0.5t-6.5 1.5h-8q-28 0 -111 -13q-32 -5 -49 -7q11 -29 25 -50t32 -36q13 -8 18 -14.5t5 -14.5q0 -13 -8 -21t-21 -8q-22 0 -44.5 24.5t-49.5 78.5q-23 -41 -44 -98.5t-36 -57.5q-10 0 -17.5 8t-7.5 19q0 22 15.5 62.5t41.5 88.5l-21 -3 q-67 -11 -83 -11q-22 0 -34.5 7t-12.5 20z" />
<glyph unicode="+" horiz-adv-x="1706" d="M254 561v98h551v562h98v-562h549v-98h-549v-561h-98v561h-551z" />
<glyph unicode="," horiz-adv-x="465" d="M133 51q0 48 29.5 80.5t73.5 32.5t72 -33.5t28 -87.5q0 -84 -45 -151.5t-82 -67.5q-10 0 -15 4t-6 14q0 11 44 61t44 103q0 6 -2 21q-1 9 -2 14q-13 -34 -30.5 -47.5t-46.5 -13.5q-27 0 -44.5 19.5t-17.5 51.5z" />
<glyph unicode="-" horiz-adv-x="512" d="M80 373q0 13 2.5 19.5t7.5 6.5q4 0 10 -2q3 -1 4 -2q41 0 127.5 12.5t130.5 12.5q54 0 76.5 -13t22.5 -42q0 -19 -8 -28t-23 -9q-9 0 -18 4t-23 14q-49 -2 -122 -6t-95 -4q-48 0 -70 9t-22 28z" />
<glyph unicode="." horiz-adv-x="465" d="M143 45q0 41 27 65.5t72 24.5q52 0 82 -24t30 -66q0 -39 -31 -63.5t-79 -24.5q-46 0 -73.5 24t-27.5 64z" />
<glyph unicode="/" horiz-adv-x="569" d="M115 -111q0 270 173 669q21 48 31 73q108 252 152.5 403t48.5 264q1 9 1 22q1 38 24 38q17 0 30 -11t13 -24q0 -3 -1.5 -9t-4.5 -15q-16 -101 -48 -212.5t-102 -293.5q-108 -283 -153.5 -473.5t-45.5 -352.5q0 -31 0.5 -52.5t2.5 -46.5q4 -11 6 -17t2 -9q0 -16 -16 -26.5 t-42 -10.5q-35 0 -53 21.5t-18 62.5z" />
<glyph unicode="0" horiz-adv-x="930" d="M59 481q0 168 42 326.5t120 288.5q57 93 112 143.5t101 50.5q28 0 77.5 -35t78.5 -51q15 6 24.5 8t18.5 2q76 0 154.5 -202t78.5 -469q0 -282 -103.5 -436t-293.5 -154q-191 0 -300.5 140.5t-109.5 387.5zM199 418q0 -209 71 -315.5t211 -106.5q155 0 235.5 124.5 t80.5 364.5q0 195 -45 366.5t-127 293.5q-4 -1 -11 -2.5t-10 -1.5q-12 0 -49 26.5t-55 26.5q-99 0 -200 -235.5t-101 -540.5z" />
<glyph unicode="1" horiz-adv-x="446" d="M45 772q0 6 4.5 9.5t14.5 5.5q50 59 87.5 139t55.5 166q5 22 9 54q9 64 73 64q30 0 45.5 -10.5t15.5 -32.5q0 -9 -2.5 -19t-7.5 -22q-22 -112 -34.5 -298.5t-12.5 -407.5q0 -130 6.5 -221.5t19.5 -171.5q1 -2 2 -5q7 -19 7 -28q0 -22 -29.5 -38.5t-67.5 -16.5 q-14 0 -26 6t-29 22q-12 13 -16 20.5t-4 16.5q0 6 1 12t5 17q5 37 14 347.5t37 586.5l-15 -31q-94 -188 -128 -188q-11 0 -18 7t-7 17z" />
<glyph unicode="2" horiz-adv-x="862" d="M63 104q0 110 254 270q45 29 68 44q143 92 202.5 189.5t59.5 234.5q0 166 -56 253t-163 87q-118 0 -172.5 -73.5t-54.5 -231.5q0 -76 5.5 -121.5t18.5 -85.5q-8 -18 -22 -26.5t-35 -8.5q-45 0 -61.5 35.5t-16.5 152.5q0 114 36.5 189t123.5 143q54 54 108.5 80.5 t112.5 26.5q129 0 220 -108t91 -263q0 -109 -37.5 -194.5t-117.5 -159.5q-47 -44 -172 -121q-66 -41 -101 -64q-102 -69 -145 -112.5t-43 -77.5q0 -26 22 -39.5t62 -13.5q95 0 250.5 19t214.5 19q64 0 96.5 -19.5t32.5 -57.5q0 -11 -4 -21t-13 -20q-16 9 -32 13.5t-35 4.5 q-43 0 -208.5 -29.5t-283.5 -29.5q-99 0 -152 30t-53 86z" />
<glyph unicode="3" horiz-adv-x="930" d="M63 238q0 15 7.5 24.5t17.5 9.5q13 0 20 -7.5t7 -20.5q0 -10 -0.5 -16t-1.5 -12q29 -78 106 -117.5t201 -39.5q157 0 245.5 53t88.5 146q0 89 -83 140t-231 51q-61 -1 -129 -4q-15 -1 -18 -1q-16 0 -22.5 5.5t-6.5 17.5q0 15 25 37t53 22q5 0 28 -2t40 -2q147 0 216.5 66 t69.5 205q0 184 -61 284.5t-172 100.5q-113 0 -165 -86t-52 -273q0 -22 3 -48.5t9 -59.5q3 -9 4.5 -17.5t1.5 -15.5q0 -15 -21 -29t-40 -14q-21 0 -36 9.5t-25 28.5q-3 37 -4 62t-1 45q0 122 34.5 205t115.5 158q57 64 113.5 94.5t117.5 30.5q133 0 217 -111t84 -291 q0 -149 -79 -244t-236 -135q184 -16 283.5 -80.5t99.5 -166.5q0 -109 -110.5 -190t-268.5 -81q-187 0 -316 82.5t-129 186.5z" />
<glyph unicode="4" horiz-adv-x="930" d="M45 416q0 67 94 219.5t283 390.5q123 157 171.5 198.5t88.5 41.5q51 0 73.5 -44t22.5 -149q0 -81 -13 -306.5t-17 -362.5q15 0 35.5 2t23.5 2q57 0 80.5 -17.5t23.5 -58.5q0 -15 -2.5 -25.5t-7.5 -17.5q-17 5 -33.5 7.5t-31.5 2.5q-12 0 -37 -2t-57 -6q-2 -31 -2.5 -63.5 t-0.5 -90.5q0 -34 1 -59.5t4 -53.5q4 -10 7 -21t3 -17q0 -18 -18.5 -28.5t-49.5 -10.5q-29 0 -59.5 19.5t-30.5 37.5q0 8 1.5 14.5t4.5 14.5q1 56 3.5 115t6.5 133q-83 -4 -152 -6.5t-114 -2.5q-162 0 -231.5 33.5t-69.5 110.5zM133 453q0 -35 41.5 -51.5t128.5 -16.5 q53 0 132 3t186 9l16 263q9 151 13.5 248t4.5 139q0 65 -5 93.5t-17 28.5q-27 0 -76 -51.5t-164 -206.5q-122 -164 -191 -285.5t-69 -172.5z" />
<glyph unicode="5" horiz-adv-x="930" d="M43 231q0 29 9.5 43.5t27.5 14.5q12 0 19 -7.5t7 -19.5q0 -8 -5 -17.5t-15 -21.5v-12q0 -66 87 -118t210 -52q158 0 256 72.5t98 185.5q0 101 -79 162t-212 61q-62 0 -116.5 -17.5t-118.5 -58.5l-1 -1q-14 -25 -24 -25q-35 0 -51 23.5t-16 95.5q0 140 33.5 356t33.5 283 q0 7 -3 22t-3 21t4 10t11 4q3 0 14 -7t20 -11h27q80 0 238 -8.5t235 -8.5q63 0 92 9l4 1q4 0 7 -3t4 -9l-1 -2.5t-1 -5.5l-7 -29q-10 -46 -37 -61t-104 -15q-81 0 -197 4.5t-151 4.5q-26 0 -93 -4h-18q-19 -131 -29 -249.5t-10 -205.5q0 -46 1 -75t4 -56q52 29 116.5 43 t141.5 14q179 0 298 -85t119 -210q0 -123 -122 -214t-291 -91q-178 0 -295 78.5t-117 191.5z" />
<glyph unicode="6" horiz-adv-x="930" d="M57 416q0 184 88 395t270 462q4 16 13 23t27 7q29 0 53 -16t24 -36q0 -7 -4.5 -12.5t-15.5 -11.5q-160 -209 -249 -410t-89 -348v-25q67 150 173 238t216 88q136 0 225 -96t89 -242q0 -180 -143.5 -326.5t-313.5 -146.5q-163 0 -263 125t-100 332zM201 326 q0 -125 81.5 -205t209.5 -80q130 0 202 82.5t72 232.5q0 149 -69 237.5t-183 88.5q-122 0 -217.5 -108.5t-95.5 -247.5z" />
<glyph unicode="7" horiz-adv-x="829" d="M33 1014q0 50 20.5 86t57.5 49q88 31 241 54.5t287 23.5q96 0 133 -18.5t37 -63.5q0 -42 -97 -228t-157 -331q-62 -155 -96.5 -292t-34.5 -226v-48q0 -31 -22 -48t-64 -17q-44 0 -57 18.5t-13 75.5q0 114 47.5 247.5t163.5 338.5q66 114 165 264.5t99 183.5 q0 19 -14.5 27t-50.5 8q-132 0 -289 -26t-305 -74q-5 -16 -14 -24.5t-21 -8.5q-8 0 -12 7t-4 22z" />
<glyph unicode="8" horiz-adv-x="930" d="M47 201q0 118 299 304l25 15q-132 84 -192 171t-60 192q0 143 130 264t283 121q60 0 100 -20t75 -66q32 -27 56 -59t42 -72q1 17 11 28t26 11q18 0 28.5 -10.5t10.5 -28.5q0 -60 -116 -205t-308 -320q277 -89 347 -144t70 -140q0 -116 -128 -204.5t-310 -88.5 q-165 0 -277 75t-112 177zM166 190q0 -86 82 -143t209 -57q129 0 208.5 63.5t79.5 163.5q0 86 -74 151t-255 132q-139 -110 -194.5 -179.5t-55.5 -130.5zM233 819q0 -79 46.5 -152.5t126.5 -117.5q122 97 213 202.5t145 213.5h-8q-13 0 -20 8t-7 22q0 10 1 26.5t1 22.5 q0 55 -31.5 85t-89.5 30q-49 0 -109 -21.5t-118 -60.5q-79 -53 -114.5 -114.5t-35.5 -143.5z" />
<glyph unicode="9" horiz-adv-x="930" d="M57 721q0 84 30 160t97 159q92 116 170.5 165.5t165.5 49.5q162 0 259.5 -136t97.5 -365q0 -216 -79.5 -425t-230.5 -390q-4 -15 -12.5 -21t-26.5 -6q-30 0 -53.5 15t-23.5 34q0 7 5 13.5t15 13.5q109 132 176.5 279.5t104.5 336.5q-84 -102 -191 -163.5t-196 -61.5 q-129 0 -218.5 98.5t-89.5 243.5zM170 795q0 -150 72.5 -244t187.5 -94q128 0 225 107.5t97 262.5q0 153 -76.5 250t-196.5 97q-130 0 -219.5 -108t-89.5 -271z" />
<glyph unicode=":" horiz-adv-x="465" d="M143 45q0 41 27 65.5t72 24.5q52 0 82 -24t30 -66q0 -39 -31 -63.5t-79 -24.5q-46 0 -73.5 24t-27.5 64zM143 543q0 40 31.5 65t81.5 25q45 0 71.5 -24t26.5 -64q0 -41 -26.5 -65.5t-71.5 -24.5q-52 0 -82.5 23.5t-30.5 64.5z" />
<glyph unicode=";" horiz-adv-x="465" d="M131 543q0 40 30.5 65t80.5 25q46 0 73 -24t27 -64q0 -41 -26.5 -65.5t-71.5 -24.5q-52 0 -82.5 23.5t-30.5 64.5zM133 51q0 48 29.5 80.5t73.5 32.5t72 -33.5t28 -87.5q0 -84 -45 -151.5t-82 -67.5q-10 0 -15 4t-6 14q0 11 44 61t44 103q0 6 -2 21q-1 9 -2 14 q-13 -34 -30.5 -47.5t-46.5 -13.5q-27 0 -44.5 19.5t-17.5 51.5z" />
<glyph unicode="&#x3c;" horiz-adv-x="1706" d="M264 569v82l1178 484v-109l-1022 -416l1022 -413v-109z" />
<glyph unicode="=" horiz-adv-x="1706" d="M254 375v98h1198v-98h-1198zM254 748v98h1198v-98h-1198z" />
<glyph unicode="&#x3e;" horiz-adv-x="1706" d="M264 88v109l1022 413l-1022 416v109l1178 -484v-82z" />
<glyph unicode="?" horiz-adv-x="801" d="M76 782q0 156 16 230.5t53 136.5q70 116 163 181t188 65q131 0 215 -106.5t84 -276.5q0 -196 -210 -412q-29 -31 -44 -47q-67 -71 -96 -127t-29 -109q0 -10 4 -22.5t14 -30.5q6 -6 8 -10t2 -10q0 -15 -11 -24t-30 -9q-22 0 -33.5 24.5t-11.5 75.5q0 55 31.5 118t96.5 139 q6 7 17 20q163 186 163 385q0 161 -63.5 249.5t-178.5 88.5q-109 0 -175.5 -101t-66.5 -270q0 -69 10 -140q3 -14 3 -18q0 -25 -18.5 -46t-41.5 -21q-29 0 -44 17t-15 50zM281 47q0 47 31.5 73.5t86.5 26.5q51 0 87 -24t36 -60q0 -47 -29 -73.5t-81 -26.5q-64 0 -97.5 21.5 t-33.5 62.5z" />
<glyph unicode="@" horiz-adv-x="2019" d="M147 537q0 204 86 380t250 312q132 110 290.5 165.5t340.5 55.5q345 0 552.5 -187t207.5 -497q0 -157 -58 -295t-165 -235q-59 -55 -123.5 -83t-130.5 -28q-96 0 -147.5 54t-57.5 161q-59 -106 -138 -160.5t-173 -54.5q-121 0 -196 92.5t-75 243.5q0 106 49 213t138 194 q67 66 144 102t151 36q86 0 142.5 -51t78.5 -148l55 182h131l-170 -606q-11 -39 -14.5 -61.5t-3.5 -42.5q0 -54 26 -82.5t74 -28.5q47 0 108.5 30t114.5 81q93 88 145 219t52 278q0 284 -194 457.5t-511 173.5q-176 0 -328.5 -58.5t-271.5 -170.5q-133 -126 -201.5 -296 t-68.5 -376q0 -176 56 -304.5t177 -232.5q116 -100 264.5 -151t321.5 -51q167 0 323.5 53t293.5 155l30 -34q-147 -109 -311.5 -164.5t-341.5 -55.5q-189 0 -340.5 46t-273.5 139q-151 115 -229.5 275.5t-78.5 355.5zM739 379q0 -96 43 -152.5t115 -56.5q67 0 129 44.5 t119 133.5q57 91 91 199.5t34 200.5q0 95 -50.5 158t-125.5 63q-56 0 -101.5 -31t-93.5 -102q-73 -111 -116.5 -236t-43.5 -221z" />
<glyph unicode="A" horiz-adv-x="1778" d="M57 256q0 115 44.5 205t95.5 90q9 0 15.5 -6.5t6.5 -16.5q0 -17 -11 -29t-34 -20q-37 -35 -56.5 -99t-19.5 -153q0 -137 105.5 -226t269.5 -89q211 0 352.5 126t226.5 392q-43 3 -114 7q-160 8 -160 46q0 9 4.5 13t14.5 4q2 0 13 -3q39 -12 79 -12q49 0 97 3t93 8 q42 143 77.5 275.5t68.5 260.5l73 289q0 1 -1 4q-3 8 -3 12q0 24 29 42t66 18q40 0 84.5 -31.5t44.5 -56.5q0 -4 -2 -8.5t-6 -11.5q-25 -82 -38.5 -222t-13.5 -324q0 -61 2 -120t7 -115q18 -1 35 -1.5t38 -0.5q44 0 91 4t50 4q11 0 16 -4t5 -12q0 -24 -59.5 -39.5 t-169.5 -20.5q30 -206 81 -324t109 -118q3 0 7.5 1.5t15.5 7.5q3 10 7.5 14.5t12.5 5.5q8 0 13 -7.5t5 -19.5q0 -18 -18.5 -29.5t-48.5 -11.5q-99 0 -192 134.5t-122 336.5q-18 0 -59 -1t-63 -1q-21 0 -63.5 1t-63.5 1q-95 -311 -237.5 -452.5t-358.5 -141.5 q-194 0 -317.5 118.5t-123.5 303.5zM1118 498l215 4q-5 70 -7.5 134t-2.5 118q0 210 24 430q5 43 5 51q0 9 -2.5 15.5t-6.5 6.5q-30 0 -150 -470q-47 -182 -75 -289z" />
<glyph unicode="B" horiz-adv-x="1741" d="M51 768q0 110 54 203t167 180q130 99 307 157t349 58q192 0 353 -57.5t275 -167.5q69 -65 105.5 -140.5t36.5 -150.5q0 -146 -132.5 -252.5t-369.5 -148.5q222 -23 341.5 -94t119.5 -179q0 -123 -141.5 -210t-339.5 -87q-98 0 -173 29t-102 76q-6 -12 -13 -16.5t-22 -4.5 q-43 0 -78.5 21t-35.5 45q0 8 1 14t3 12v88q0 395 67 836q19 120 19 149v22q-3 12 -3.5 15.5t-0.5 5.5q0 15 13.5 25t35.5 10q33 0 69.5 -22.5t36.5 -42.5q0 -3 -2.5 -6t-11.5 -11q-25 -61 -43 -226.5t-29 -446.5q28 19 61 27.5t83 8.5q18 0 49 -1.5t75 -4.5 q193 38 282 119.5t89 218.5q0 198 -192.5 325.5t-503.5 127.5q-316 0 -537 -146.5t-221 -347.5q0 -154 128 -258t319 -104q30 0 53.5 6.5t44.5 20.5q2 15 9 23.5t18 8.5q9 0 15.5 -8t6.5 -21q0 -33 -54 -55t-140 -22q-191 0 -316 112.5t-125 286.5zM901 295q0 -65 2 -120 t7 -105q4 2 9 4t7 2q12 0 20 -5.5t8 -13.5q0 -7 -1 -21t-1 -22q19 -46 80.5 -75t141.5 -29q138 0 230.5 73.5t92.5 180.5q0 95 -75.5 160t-219.5 94q-89 -9 -142 -13t-83 -4q-19 0 -38 2.5t-36 5.5q-1 -20 -1.5 -44t-0.5 -70z" />
<glyph unicode="C" horiz-adv-x="1133" d="M63 532q0 178 59 357.5t171 341.5q78 112 150 171.5t130 59.5q68 0 171.5 -40t170.5 -97q72 -60 106 -155t34 -238q0 -43 -3 -92t-10 -105v-6q0 -21 -22.5 -35t-56.5 -14q-33 0 -56.5 16.5t-23.5 36.5q0 8 11 38q5 13 7 20q8 78 11 122.5t3 79.5q0 176 -59.5 277.5 t-161.5 101.5q-68 0 -133.5 -52t-136.5 -165q-98 -156 -151.5 -346.5t-53.5 -380.5q0 -259 113.5 -402t318.5 -143q109 0 196.5 45.5t147.5 132.5q27 40 39.5 75.5t12.5 74.5l-1 9q-3 8 -4.5 14t-1.5 12q0 13 9.5 20.5t25.5 7.5q18 0 26.5 -11.5t8.5 -35.5 q0 -156 -138.5 -275.5t-336.5 -119.5q-254 0 -413 194t-159 506z" />
<glyph unicode="D" horiz-adv-x="1821" d="M59 750q0 101 45.5 197.5t126.5 168.5q134 120 312.5 184t380.5 64q179 0 328.5 -53t267.5 -158q127 -115 194.5 -266.5t67.5 -323.5q0 -167 -68.5 -308t-202.5 -249q-78 -63 -162.5 -95t-174.5 -32q-69 0 -124 19.5t-94 56.5q-18 -15 -37 -22t-40 -7q-37 0 -59.5 15.5 t-28.5 43.5q2 15 4 30.5t2 27.5q0 18 -2 62t-2 71q0 308 53 763q17 149 22 211q9 17 23.5 25.5t36.5 8.5q27 0 53 -12.5t45 -34.5v-17q-30 -34 -56 -258.5t-26 -517.5q0 -86 5 -166.5t16 -157.5q2 1 6 2q10 3 12 3q23 -1 32 -25q5 -13 9 -18q17 -26 65 -44t105 -18 q186 0 313 168t127 424q0 347 -212.5 550.5t-575.5 203.5q-318 0 -530 -147.5t-212 -362.5q0 -147 105.5 -233.5t282.5 -86.5q89 0 124 26l35 25q15 0 21.5 -6t7.5 -20q0 -41 -54 -67.5t-141 -26.5q-188 0 -307 106.5t-119 276.5z" />
<glyph unicode="E" horiz-adv-x="1331" d="M70 145q0 117 145.5 203t419.5 129q-213 34 -332 135t-119 246q0 94 55 195t164 209q85 82 148 121.5t111 39.5q40 0 102 -22.5t137 -65.5q64 -36 113.5 -74.5t79.5 -74.5q45 -55 70.5 -139t25.5 -181v-47q2 -6 3 -13t1 -15q0 -27 -33 -51.5t-61 -24.5q-32 0 -51 11.5 t-19 31.5q0 4 1.5 13t4.5 19q5 46 6.5 67.5t1.5 39.5q0 198 -67 308t-186 110q-61 0 -125 -30t-125 -87q-98 -90 -154.5 -191t-56.5 -184q0 -146 105.5 -227t303.5 -86q94 10 164 16t90 6q29 0 43.5 -9.5t14.5 -28.5q0 -25 -32 -37.5t-95 -12.5q-25 0 -66 1t-57 1h-129 q-211 -33 -320.5 -107.5t-109.5 -184.5q0 -113 137 -180.5t369 -67.5q218 0 361.5 82.5t143.5 199.5q0 10 -3 28q0 3 -1 5q-13 7 -19.5 14.5t-6.5 16.5q0 11 9 19t21 8q25 0 36 -20.5t11 -63.5q0 -145 -184 -255t-450 -110q-264 0 -430 89t-166 226z" />
<glyph unicode="F" horiz-adv-x="1569" d="M35 948q0 187 159.5 317t395.5 130q170 0 470 -117q140 -54 212 -76q77 98 166.5 151.5t175.5 53.5q52 0 82 -24.5t30 -65.5q0 -83 -98.5 -129.5t-273.5 -46.5h-49q-11 -37 -16 -75.5t-5 -92.5q0 -103 20.5 -274t24.5 -226h211q17 0 25 -3.5t8 -10.5q0 -46 -102 -52 q-18 -1 -27 -1l-115 -7q-7 -258 -149.5 -410.5t-374.5 -152.5q-192 0 -308 99.5t-116 261.5q0 76 31.5 138t68.5 62q16 0 26.5 -8.5t10.5 -21.5q0 -14 -9.5 -22.5t-26.5 -10.5q-21 -28 -30.5 -60.5t-9.5 -76.5q0 -141 99.5 -231.5t255.5 -90.5q177 0 271.5 107t94.5 307 q0 33 -4 105v5q-16 0 -46 -1q-62 -3 -79 -3q-103 0 -140.5 9t-37.5 32q0 19 35 22q3 1 4 1l258 10q-4 62 -6 120.5t-2 115.5q0 156 24 257t78 183q-85 4 -318.5 66.5t-398.5 62.5q-200 0 -325 -92t-125 -236t117 -231.5t309 -87.5q84 0 146 20t87 55q4 13 10.5 20t14.5 7 t13 -6.5t5 -15.5q0 -54 -84.5 -97t-210.5 -43q-202 0 -327 106.5t-125 274.5zM1328 1197q18 -4 38 -5.5t39 -1.5q108 0 182 34.5t74 82.5q0 22 -19 36.5t-49 14.5q-66 0 -141.5 -45t-123.5 -116z" />
<glyph unicode="G" horiz-adv-x="1200" d="M94 539q0 181 63 341t185 289q83 89 163.5 137t147.5 48q43 0 157 -38t196 -87q68 -41 113.5 -111t45.5 -129l1 -3l2 -16q4 -9 5.5 -14t2.5 -10q0 -20 -21 -38.5t-47 -18.5q-30 0 -53 15.5t-23 35.5q0 7 0.5 9.5t1.5 4.5q-2 146 -72 227t-194 81q-96 0 -187 -62 t-184 -190q-83 -116 -127.5 -260t-44.5 -297q0 -218 87.5 -352t226.5 -134q180 0 290.5 217t110.5 582v8q-5 12 -7.5 20t-2.5 13q0 16 16 27.5t41 11.5q44 0 77.5 -16.5t33.5 -38.5q0 -5 -2 -12t-6 -17q-6 -52 -8.5 -96t-2.5 -86q0 -88 20.5 -278.5t20.5 -293.5 q0 -247 -142 -392.5t-382 -145.5q-198 0 -331.5 95.5t-133.5 233.5q0 29 9 45.5t24 16.5t23 -8t8 -25q0 -12 -3.5 -23t-11.5 -23q2 -92 110.5 -157t270.5 -65q194 0 307 124.5t113 340.5q0 53 -5.5 130.5t-19.5 219.5q-69 -226 -174 -336.5t-252 -110.5q-187 0 -311.5 172 t-124.5 439z" />
<glyph unicode="H" horiz-adv-x="2099" d="M33 973q0 183 140 310.5t343 127.5q118 0 304 -58.5t253 -58.5q137 0 249 99q18 16 21 16q12 0 19.5 -8.5t7.5 -20.5q0 -11 -24 -36q-12 -13 -18 -20q-42 -50 -62.5 -134.5t-20.5 -206.5q0 -56 7.5 -141t27.5 -252q136 -26 248 -37.5t219 -11.5h61q-17 126 -24.5 205 t-7.5 133q0 212 78.5 381.5t146.5 169.5q13 0 20 -6.5t7 -18.5q-1 -20 -28 -26q-12 -3 -16 -5q-26 -17 -49.5 -87t-23.5 -146q0 -106 17 -249t52 -335q36 2 56.5 26.5t38.5 24.5q15 0 22.5 -7t7.5 -21q0 -26 -33 -46.5t-87 -27.5q1 -22 1.5 -40.5t0.5 -35.5 q0 -214 -74.5 -351.5t-183.5 -137.5q-56 0 -102 27.5t-124 119.5q-58 68 -106.5 110t-104.5 76q-24 -211 -154 -326.5t-341 -115.5q-200 0 -329.5 112.5t-129.5 280.5q0 75 30 128t70 53q16 0 25.5 -9t9.5 -22q0 -2 -35 -44.5t-35 -125.5q0 -141 112 -237.5t278 -96.5 q168 0 259 104t91 297q0 13 -1 29.5t-3 48.5q-119 25 -179.5 67t-60.5 101q0 49 35 77t98 28q14 0 31 -1t45 -3q-8 81 -11 124t-3 74q0 141 51 271.5t149 240.5q-83 -63 -177.5 -97t-184.5 -34q-73 0 -242 46t-266 46q-159 0 -252.5 -84.5t-93.5 -226.5q0 -144 105.5 -238 t262.5 -94q51 0 99 13.5t73 33.5q5 4 13 21.5t24 17.5q14 0 21.5 -8.5t7.5 -24.5q0 -42 -76.5 -79t-175.5 -37q-170 0 -284.5 112t-114.5 277zM969 502q0 -31 36.5 -53t129.5 -43l-17 141h-6q-55 4 -76 4q-31 0 -49 -13.5t-18 -35.5zM1289 522q5 -40 7 -67.5t2 -51.5 q0 -15 -0.5 -33.5t-1.5 -37.5q118 -69 242 -202.5t176 -133.5q57 0 91 69t34 187q0 61 -21 218l-2 11q-21 -1 -40 -1.5t-35 -0.5h-37q-104 0 -207.5 11t-207.5 32z" />
<glyph unicode="I" horiz-adv-x="1165" d="M37 319q0 60 16.5 95t44.5 35q14 0 23.5 -9.5t9.5 -23.5q0 -8 -4 -14t-16 -15q-9 -22 -13 -44t-4 -46q0 -142 89.5 -225.5t240.5 -83.5q145 0 257.5 98.5t178.5 286.5q-29 -3 -52 -4.5t-36 -1.5q-186 0 -299 121t-113 323q0 122 42.5 267.5t115.5 271.5 q52 89 111.5 136.5t120.5 47.5q135 0 227 -225.5t92 -579.5q0 -64 -6.5 -128.5t-20.5 -129.5q76 29 94 73t27 44q10 0 17.5 -9.5t7.5 -23.5q0 -37 -41 -72t-121 -67q-67 -238 -209 -364t-342 -126q-196 0 -317 109t-121 284zM461 866q0 -211 90.5 -331.5t247.5 -120.5 q9 0 36 3t41 5q30 106 45 229.5t15 263.5q0 273 -51 426.5t-140 153.5q-109 0 -196.5 -189t-87.5 -440z" />
<glyph unicode="J" horiz-adv-x="1100" d="M-70 -178q0 111 103 247t278 250q128 85 264.5 137t282.5 72q14 94 21.5 185t7.5 180q0 245 -45.5 402t-112.5 157q-51 0 -82 -89.5t-31 -244.5q0 -188 45 -319.5t105 -143.5q7 3 14.5 4.5t14.5 2.5q13 -1 17.5 -6.5t4.5 -18.5q0 -16 -8 -23.5t-25 -7.5q-87 0 -159 140 t-72 323q0 184 58.5 308t140.5 124q108 0 183 -185t75 -474q0 -75 -7.5 -152.5t-21.5 -156.5q65 -8 102 -27t37 -45q0 -13 -9 -21t-24 -8q-11 0 -19 6.5t-15 23.5q-15 10 -31.5 14.5t-42.5 6.5q-69 -390 -295 -635t-500 -245q-122 0 -188 57t-66 162zM12 -160q0 -67 43 -107 t117 -40q103 0 238 89.5t239 233.5q76 107 126 225.5t71 243.5q-135 -21 -261.5 -73t-244.5 -136q-155 -109 -241.5 -224.5t-86.5 -211.5z" />
<glyph unicode="K" horiz-adv-x="1886" d="M37 993q0 180 132.5 302t326.5 122q98 0 262 -57t239 -57q50 0 92.5 14t86.5 45q19 11 36.5 29t24.5 18q10 0 17.5 -7.5t7.5 -19.5q0 -6 -10 -18t-27 -25q-37 -51 -54.5 -152t-17.5 -263q0 -47 5 -111t16 -158q1 1 5 1q35 3 52 3q2 0 16.5 -1.5t28.5 -2.5 q78 20 152.5 103t152.5 239q113 224 191.5 327t134.5 103q14 0 23 -8t9 -20q0 -7 -3.5 -12t-6.5 -5h-22q-10 0 -15.5 -1t-9.5 -3q-60 -25 -190 -304l-15 -32q-87 -186 -174.5 -282.5t-195.5 -128.5q106 -16 183.5 -89.5t125.5 -203.5q18 -50 45 -144q68 -235 174 -235 q20 0 38 10.5t34 30.5q4 15 10.5 22t15.5 7t15 -5t6 -12q0 -34 -46 -63t-110 -29q-95 0 -164.5 63t-115.5 191q-17 48 -43 136q-50 169 -95 222q-30 37 -69.5 54.5t-89.5 17.5q-9 0 -18.5 -0.5t-18.5 -1.5q1 -20 3 -57q5 -99 5 -131q0 -261 -128.5 -418.5t-338.5 -157.5 q-182 0 -301 112t-119 279q0 75 28 129t64 54q15 0 24 -9.5t9 -23.5q0 -1 -32.5 -43t-32.5 -125q0 -141 103 -237.5t257 -96.5q64 0 121 24t100 68q50 53 71 130t21 223q0 90 -10 216t-10 160q0 195 38.5 337.5t125.5 287.5q-63 -51 -136 -76.5t-153 -25.5q-78 0 -235.5 48 t-241.5 48q-150 0 -246 -91.5t-96 -232.5q0 -142 96.5 -231.5t249.5 -89.5q67 0 113.5 16t66.5 45q0 17 5.5 26t15.5 9q9 0 15.5 -7t6.5 -18q0 -49 -64.5 -89t-156.5 -40q-171 0 -278 106t-107 273z" />
<glyph unicode="L" horiz-adv-x="1432" d="M66 897q0 166 124.5 277.5t309.5 111.5q64 0 109.5 -20.5t45.5 -46.5q0 -11 -4.5 -16t-13.5 -5q-6 0 -13.5 5t-12.5 13q-26 9 -53.5 13t-59.5 4q-168 0 -275.5 -86t-107.5 -219q0 -167 166 -280t415 -113q49 0 104.5 8.5t117.5 25.5q-20 125 -28.5 206.5t-8.5 139.5 q0 231 102.5 396.5t226.5 165.5q87 0 144 -90.5t57 -231.5q0 -174 -88.5 -323.5t-243.5 -235.5q14 -99 18.5 -150.5t4.5 -91.5q0 -87 -17.5 -151.5t-54.5 -114.5q106 -31 178.5 -45t126.5 -14q56 0 94 27q8 5 11 5t7.5 -5t4.5 -11q0 -35 -51.5 -79t-126.5 -44 q-54 0 -131 15.5t-193 50.5q-79 -76 -191 -118t-235 -42q-178 0 -282.5 50.5t-104.5 135.5q0 86 98.5 143.5t251.5 57.5q141 0 437 -92q30 -10 45 -14q5 23 7.5 41t2.5 32q0 41 -11 113.5t-42 230.5q-78 -19 -141.5 -28t-118.5 -9q-274 0 -437 111.5t-163 296.5zM184 6 q0 -56 99.5 -96.5t248.5 -40.5q106 0 202 33.5t175 97.5q-158 58 -268 83.5t-201 25.5q-122 0 -189 -27t-67 -76zM1001 1108q0 -91 16 -211.5t48 -265.5q130 77 195 201.5t65 297.5q0 143 -37 222.5t-102 79.5q-78 0 -131.5 -92.5t-53.5 -231.5z" />
<glyph unicode="M" horiz-adv-x="2157" d="M29 244q0 101 36.5 175.5t79.5 74.5q12 0 19.5 -6.5t7.5 -14.5q0 -3 -16 -15q-97 -68 -97 -194q0 -149 100.5 -244.5t260.5 -95.5q302 0 471 311.5t252 1030.5l-3 6q-7 17 -7 22q0 21 36 37.5t86 16.5q28 0 56 -20.5t28 -35.5q0 -4 -2.5 -9t-7.5 -12 q-11 -61 -16.5 -133.5t-5.5 -160.5q0 -403 46 -648t120 -245q92 0 188 338.5t154 888.5q-5 13 -6 17t-1 7q0 28 37 45t99 17q16 0 43.5 -22.5t27.5 -35.5q0 -5 -5 -13.5t-13 -18.5q-18 -217 -25.5 -368.5t-7.5 -281.5q0 -307 36.5 -516t82.5 -209q2 0 6 2t10 7 q5 9 11.5 13.5t15.5 4.5q6 0 10 -5t4 -13q0 -17 -15 -27t-40 -10q-126 0 -187 163t-61 498q0 214 19 652l2 24q-11 -59 -29 -170q-189 -1106 -391 -1106q-137 0 -197.5 275.5t-60.5 908.5q-20 -91 -53 -259q-85 -423 -142 -573q-92 -237 -229 -361t-307 -124 q-179 0 -299.5 118.5t-120.5 293.5z" />
<glyph unicode="N" horiz-adv-x="1858" d="M33 260q0 122 56.5 212.5t115.5 90.5q12 0 20 -7t8 -17q0 -15 -11.5 -21t-39.5 -6q-57 -40 -85.5 -100t-28.5 -138q0 -153 109.5 -247.5t289.5 -94.5q311 0 469 318.5t158 945.5q0 23 -4 77q0 7 -1 12q-2 5 -3 10t-1 12q0 15 14.5 24.5t37.5 9.5q52 0 106.5 -35t54.5 -57 q0 -4 -3 -10.5t-9 -13.5v-37q0 -168 26 -354t79 -402q61 -252 112 -361.5t105 -109.5q44 0 64 59.5t20 190.5q0 149 -11.5 351.5t-11.5 254.5q0 236 53 411t111 175q17 0 26 -7.5t9 -21.5q0 -9 -10.5 -16.5t-27.5 -10.5q-48 -30 -67.5 -110t-19.5 -283q0 -120 11 -312.5 t11 -264.5q0 -234 -40 -342.5t-126 -108.5q-156 0 -288.5 337t-169.5 870q-41 -416 -74 -601.5t-78 -295.5q-82 -198 -215 -298t-313 -100q-185 0 -306.5 119t-121.5 303z" />
<glyph unicode="O" horiz-adv-x="1313" d="M63 606q0 280 130.5 520t359.5 379q36 8 53 10.5t31 2.5h12q106 -29 176 -63t70 -54q0 -10 -6.5 -18.5t-14.5 -8.5l-44 24q-45 23 -93 23q-63 0 -135.5 -45.5t-142.5 -130.5q-114 -139 -174 -312t-60 -366q0 -297 120.5 -452.5t350.5 -155.5q225 0 355.5 173t130.5 472 q0 295 -101 476.5t-262 181.5q-142 0 -240 -150t-98 -367q0 -135 55.5 -208.5t155.5 -73.5q33 0 59 13t27 13q10 0 18.5 -8.5t8.5 -19.5q0 -21 -26.5 -35t-67.5 -14q-125 0 -204 102t-79 268q0 227 120 393t286 166q198 0 318 -180t120 -481q0 -343 -162.5 -550.5 t-431.5 -207.5q-142 0 -243 42.5t-187 137.5q-94 104 -139.5 228.5t-45.5 275.5z" />
<glyph unicode="P" horiz-adv-x="1505" d="M35 797q0 111 57.5 207t173.5 180q120 86 272.5 132t315.5 46q299 0 494.5 -154.5t195.5 -384.5q0 -205 -150.5 -352t-361.5 -147q-63 0 -108 20t-66 57q-1 -26 -1.5 -54.5t-0.5 -84.5q0 -96 4 -171t13 -137q5 -12 7.5 -21t2.5 -15q0 -18 -20 -32.5t-48 -14.5 q-41 0 -78 20t-37 39q0 4 5 19q2 7 4 13v87q0 28 -1 82t-1 82q0 234 34 543t37 368q-2 4 -3 8t-1 11q0 15 13 23t38 8q46 0 74.5 -22t28.5 -52q0 -5 -3 -9.5t-14 -15.5q-19 -79 -32 -245t-16 -387q4 3 10.5 5.5t13.5 2.5q14 0 21.5 -11.5t9.5 -34.5q21 -22 54 -32.5 t89 -10.5q149 0 246.5 109t97.5 283q0 236 -174.5 379t-462.5 143t-488 -139t-200 -336q0 -145 98 -230.5t264 -85.5q42 0 76.5 8.5t56.5 24.5q7 13 13.5 19t15.5 6q8 -1 11 -4.5t3 -12.5q0 -34 -56 -62t-136 -28q-172 0 -281.5 101t-109.5 260z" />
<glyph unicode="Q" horiz-adv-x="1255" d="M0 4q0 79 79.5 132.5t205.5 53.5q153 0 459 -108l75 -27q130 103 200.5 263.5t70.5 357.5q0 272 -135 442t-351 170q-197 0 -327 -154t-130 -384q0 -182 114 -293t302 -111q111 0 177 34.5t77 98.5q-6 8 -9 15.5t-3 15.5q0 11 4.5 16.5t13.5 5.5q14 0 22.5 -10t8.5 -28 q0 -82 -93.5 -144.5t-221.5 -62.5q-194 0 -319.5 142t-125.5 366q0 256 165 437t400 181q246 0 407 -182.5t161 -462.5q0 -207 -93 -393t-272 -336q145 -56 231 -83.5t117 -27.5q15 0 29 5.5l14 5.5q5 0 10 -5t5 -10q0 -28 -34.5 -68t-70.5 -40q-49 0 -170.5 36t-281.5 99 q-99 -52 -207 -79.5t-213 -27.5q-138 0 -214.5 42t-76.5 118zM49 -6q0 -51 66 -80t186 -29q91 0 180.5 20.5t177.5 61.5q-139 56 -253 83.5t-205 27.5q-72 0 -112 -22.5t-40 -61.5z" />
<glyph unicode="R" horiz-adv-x="1731" d="M49 813q0 117 70.5 222.5t204.5 187.5q125 76 282 117.5t320 41.5q329 0 551.5 -169.5t222.5 -409.5q0 -103 -55.5 -202t-161.5 -187q-74 -61 -144 -92t-133 -31q-26 0 -40 1t-25 3q90 -145 206.5 -233.5t211.5 -88.5q52 0 86 17.5t34 42.5q0 16 7 25.5t20 9.5 q11 0 19 -7.5t8 -17.5q0 -45 -68.5 -89t-155.5 -44q-151 0 -309.5 120.5t-302.5 346.5q0 -23 -1 -79t-1 -89q0 -75 3.5 -133.5t10.5 -111.5q7 -13 11 -23t4 -15q0 -25 -23 -37t-70 -12q-25 0 -58.5 24t-33.5 40q0 4 2 13.5t4 18.5v170q0 260 26 506.5t77 470.5 q-3 13 -4.5 20.5t-1.5 12.5q0 21 17 35t42 14q35 0 66.5 -20.5t31.5 -40.5q0 -8 -15 -30l-1 -1q-29 -90 -49 -260t-31 -410q33 35 51 46.5t35 11.5q19 0 32 -14t17 -37q28 -52 73.5 -79.5t105.5 -27.5q138 0 244 116t106 277q0 237 -197.5 392t-509.5 155 q-331 0 -548.5 -135t-217.5 -332q0 -134 100.5 -217.5t262.5 -83.5q41 0 75 8.5t58 24.5q6 13 12 17.5t14 4.5q9 0 12.5 -3t4.5 -11q0 -35 -56.5 -62.5t-136.5 -27.5q-169 0 -280 99t-111 251z" />
<glyph unicode="S" horiz-adv-x="1161" d="M68 182q0 47 20 78t49 31q14 0 23.5 -8.5t9.5 -20.5q0 -8 -5.5 -13.5t-19.5 -11.5q-8 -11 -12 -23t-4 -28q0 -108 108.5 -170.5t299.5 -62.5q187 0 300 64.5t113 170.5q0 38 -21.5 72t-56.5 49q-55 25 -158.5 48t-139.5 34q-206 64 -306 178t-100 285q0 108 49.5 225.5 t140.5 227.5q48 56 91.5 86t76.5 30q14 0 38.5 -7.5t58.5 -22.5q229 -51 327.5 -166.5t98.5 -331.5q0 -35 -2.5 -66.5t-6.5 -58.5q-6 -38 -25 -55t-57 -17q-27 0 -48 21t-21 43q0 6 2 12t8 19q4 22 6 59t2 94q0 180 -62 279.5t-173 99.5q-129 0 -237.5 -166.5t-108.5 -376.5 q0 -157 92.5 -247.5t310.5 -139.5q248 -56 313.5 -104t65.5 -129q0 -116 -139.5 -196.5t-352.5 -80.5q-231 0 -389.5 86t-158.5 211z" />
<glyph unicode="T" horiz-adv-x="1436" d="M31 950q0 188 161.5 326.5t389.5 138.5q167 0 391.5 -86.5t277.5 -99.5q64 82 144 129t157 47q58 0 89.5 -23t31.5 -65q0 -62 -77 -104t-197 -42q-19 0 -47.5 2.5t-75.5 8.5q-13 -34 -19 -75t-6 -95q0 -106 34 -317t34 -318q0 -238 -157 -390.5t-400 -152.5 q-191 0 -317 108.5t-126 268.5q0 76 38 138.5t79 62.5q17 0 28 -10.5t11 -26.5q0 -13 -11.5 -22t-29.5 -9h-6q-26 -26 -38.5 -63t-12.5 -88q0 -131 101.5 -222.5t250.5 -91.5q193 0 304.5 129t111.5 354q0 70 -8.5 210t-8.5 212q0 139 23 229t73 171q-40 9 -121 29 q-313 77 -505 77q-239 0 -382.5 -96t-143.5 -254q0 -136 113 -222.5t292 -86.5q84 0 139 13t93 43q3 22 12 34t22 12q10 0 17.5 -7t7.5 -17q0 -56 -77 -95t-197 -39q-209 0 -336 104t-127 271zM1299 1219q20 -3 43 -5t44 -2q98 0 159 26.5t61 68.5q0 23 -19 39t-47 16 q-63 0 -133 -40.5t-108 -102.5z" />
<glyph unicode="U" horiz-adv-x="1796" d="M33 723q0 111 63.5 229t184.5 230q101 93 202 140.5t199 47.5q163 0 254.5 -111t91.5 -311q0 -98 -33.5 -325.5t-33.5 -356.5q0 -178 45.5 -270t134.5 -92q159 0 245.5 302t129.5 1031q-1 2 -2 5q-7 19 -7 28q0 27 22.5 44t57.5 17q46 0 84.5 -21t38.5 -46q0 -7 -4 -15 t-12 -18q-30 -89 -50 -282t-20 -421q0 -249 38.5 -411t92.5 -162q20 0 28 21.5t19 21.5q10 0 16.5 -7.5t6.5 -19.5q0 -25 -21 -41t-55 -16q-109 0 -180.5 133.5t-71.5 351.5q0 27 3 101q1 18 1 26q-76 -393 -156.5 -528t-220.5 -135q-138 0 -226.5 120.5t-88.5 311.5 q0 108 34 328t34 331q0 157 -56 234.5t-170 77.5q-90 0 -187.5 -47t-189.5 -134q-96 -91 -150 -188.5t-54 -179.5q0 -135 112 -211t314 -76q77 0 102 6t39 21q3 11 7 15.5t11 4.5q11 0 19 -8t8 -20q0 -32 -49 -55t-121 -23q-221 0 -350 94.5t-129 257.5z" />
<glyph unicode="V" horiz-adv-x="1569" d="M33 737q0 112 62.5 238t170.5 231q97 94 201 145.5t195 51.5q101 0 182.5 -55.5t126.5 -153.5q32 -71 49 -187t24 -322q17 -420 49 -541t101 -121q41 0 84 65.5t94 208.5q78 214 122 442.5t44 407.5q0 58 -2.5 104t-7.5 86q-17 9 -24 18t-7 21q0 10 9 16.5t24 6.5 q33 0 45 -41t12 -160q0 -204 -32.5 -416t-96.5 -426q-67 -223 -143.5 -335.5t-161.5 -112.5q-135 0 -196 170t-68 581q-7 362 -69.5 498.5t-205.5 136.5q-70 0 -160.5 -46t-174.5 -126q-101 -94 -152 -192t-51 -197q0 -144 108 -224.5t303 -80.5q68 0 102 6.5t54 22.5 q4 12 7.5 16t11.5 4q11 0 18.5 -8t7.5 -20q0 -32 -50 -55t-122 -23q-224 0 -353.5 98.5t-129.5 267.5z" />
<glyph unicode="W" horiz-adv-x="2171" d="M33 686q0 111 62.5 237t170.5 232q96 93 201 145t195 52q171 0 264.5 -145.5t93.5 -413.5q0 -48 -8 -191t-8 -240q0 -218 31 -326t93 -108q101 0 184.5 314.5t127.5 869.5q-4 9 -6 17.5t-2 15.5q0 20 28 36.5t66 16.5t69 -22t31 -39q0 -7 -3.5 -14.5t-10.5 -16.5 q-11 -71 -16 -141.5t-5 -155.5q0 -427 44.5 -627t138.5 -200q53 0 93.5 53.5t98.5 210.5q80 216 125 441.5t45 399.5q0 47 -3 94t-9 93q-16 8 -22.5 16.5t-6.5 22.5q0 10 9 16t24 6q33 0 45 -40t12 -167q0 -217 -38.5 -442t-112.5 -436q-70 -200 -136.5 -287.5t-146.5 -87.5 q-157 0 -222 207t-65 737q-114 -644 -188.5 -820.5t-188.5 -176.5q-112 0 -168.5 123.5t-56.5 367.5q0 75 8.5 232t8.5 239q0 240 -63 349.5t-200 109.5q-73 0 -163 -45t-174 -125q-101 -94 -152 -193t-51 -198q0 -144 108 -223.5t303 -79.5q75 0 106.5 6t49.5 21 q4 12 7.5 16t11.5 4q11 0 18.5 -8.5t7.5 -20.5q0 -33 -51.5 -55.5t-132.5 -22.5q-214 0 -342.5 100.5t-128.5 266.5z" />
<glyph unicode="X" horiz-adv-x="1622" d="M33 696q0 94 42 193.5t122 191.5q98 116 230.5 187t246.5 71q237 0 394 -580q19 -73 30 -112q95 141 229 363q192 317 275 317q16 0 26 -8.5t10 -22.5q0 -10 -8 -16t-22 -6h-6q-3 1 -6 1.5t-9 0.5q-48 0 -191 -256.5t-272 -448.5q109 -285 216.5 -445.5t187.5 -160.5 q33 0 49 23.5t27 23.5q9 0 15.5 -7.5t6.5 -16.5q0 -31 -42.5 -56.5t-100.5 -25.5q-122 0 -251.5 135.5t-223.5 366.5q-229 -330 -409.5 -488t-328.5 -158q-40 0 -64 13.5t-24 34.5q0 12 7.5 21t17.5 9q5 0 10 -4.5t14 -19.5l6 -2q31 -11 44 -11q102 0 290.5 181.5 t407.5 494.5q-55 161 -115 411q-12 51 -18 74q-37 148 -88.5 205.5t-141.5 57.5q-72 0 -169 -46.5t-181 -123.5q-92 -84 -146 -183.5t-54 -183.5q0 -132 128.5 -211.5t346.5 -79.5q18 0 39 1.5t45 5.5q9 8 18 13t16 5q8 0 12.5 -6.5t4.5 -16.5q0 -27 -49.5 -44t-132.5 -17 q-211 0 -336 96t-125 260z" />
<glyph unicode="Y" horiz-adv-x="1726" d="M33 723q0 87 42 184.5t124 200.5q103 129 219 194.5t241 65.5q174 0 263.5 -123.5t89.5 -363.5q0 -93 -25.5 -266.5t-25.5 -258.5q0 -149 47.5 -230t134.5 -81q159 0 257.5 326.5t98.5 873.5q-3 11 -4.5 19.5t-1.5 13.5q0 28 25.5 42.5t74.5 14.5q40 0 63 -16.5t23 -44.5 q0 -10 -4 -21.5t-12 -25.5q-23 -144 -34 -275.5t-11 -253.5q0 -123 13.5 -324t13.5 -280q0 -300 -140 -464.5t-395 -164.5q-193 0 -341 116.5t-148 242.5q0 22 9 34.5t23 12.5q9 0 15 -6t6 -15q0 -5 -3 -11.5t-9 -14.5q26 -128 131 -200.5t264 -72.5q127 0 222.5 49 t145.5 140q41 74 58.5 176.5t17.5 310.5q0 64 -2.5 185t-3.5 170q-70 -326 -164 -463t-241 -137q-114 0 -192.5 110t-78.5 275q0 76 24.5 257.5t24.5 286.5q0 179 -63.5 270t-190.5 91q-100 0 -201.5 -59.5t-199.5 -176.5q-70 -84 -105.5 -163t-35.5 -152q0 -138 111 -214.5 t313 -76.5q77 0 102 6t39 21q3 11 7 15.5t11 4.5q11 0 19 -8t8 -20q0 -32 -49 -55t-121 -23q-221 0 -350 94.5t-129 257.5z" />
<glyph unicode="Z" horiz-adv-x="1493" d="M35 948q0 188 147.5 320.5t366.5 132.5q160 0 394 -91q31 -12 47 -18q84 -32 152.5 -49.5t106.5 -17.5q14 0 28.5 2t35.5 8q77 85 116 119.5t60 34.5t32 -7.5t11 -21.5q0 -45 -57.5 -87.5t-155.5 -68.5q-97 -150 -207.5 -294t-271.5 -324q48 29 100 44t107 15 q102 0 179 -50.5t128 -152.5h35q40 0 67 -16.5t27 -40.5q0 -12 -9 -21.5t-20 -9.5t-32 20.5t-50 20.5h-6q5 -24 7.5 -51t2.5 -61q0 -139 -44 -258t-136 -230q-115 -138 -268 -218.5t-299 -80.5q-134 0 -208.5 65.5t-74.5 180.5q0 192 245.5 388.5t620.5 285.5 q-36 77 -100.5 120.5t-142.5 43.5q-37 0 -78.5 -10t-95.5 -31q-84 -114 -135.5 -163.5t-84.5 -49.5q-12 0 -21 6t-9 14q0 48 63.5 106.5t177.5 116.5q96 147 211 294t274 326q-36 -10 -71.5 -16t-69.5 -6q-81 0 -280.5 53.5t-327.5 53.5q-191 0 -315.5 -97t-124.5 -243 q0 -129 110 -213t279 -84q27 0 56 4t62 12q6 10 11.5 14.5t11.5 4.5q10 0 16.5 -7.5t6.5 -19.5q0 -31 -42 -48t-120 -17q-186 0 -312 105t-126 263zM426 -264q0 -57 45 -96t111 -39q95 0 210.5 56.5t219.5 156.5t166.5 224.5t62.5 229.5q0 28 -4.5 55.5t-13.5 54.5 q-335 -69 -566 -263t-231 -379z" />
<glyph unicode="[" horiz-adv-x="446" d="M139 -309q0 5 3 41q32 362 32 811q0 266 -8.5 473t-26.5 395q11 21 27 34t39 19h37q7 0 27 -1t32 -1q7 0 33.5 1t46.5 1q6 0 17 -2l8 -2q10 -4 14 -11t4 -26q0 -10 -3 -18.5t-9 -13.5q-5 -2 -12 -3t-21 -2q-8 0 -48 5.5t-73 5.5h-25q21 -182 31 -398t10 -456 q0 -241 -10 -456.5t-31 -397.5h41q19 0 54 5t51 5q13 0 20 -1t12 -3q6 -4 9.5 -13.5t3.5 -21.5q0 -17 -4 -24t-14 -11q-3 0 -9 -2q-11 -2 -16 -2q-20 0 -46.5 1t-33.5 1q-12 0 -32 -1t-27 -1h-37q-23 6 -39 19t-27 34v17z" />
<glyph unicode="\" horiz-adv-x="569" d="M76 1321q0 16 11.5 26.5t29.5 10.5q13 0 18.5 -4.5t5.5 -18.5v-22v-17v-12q0 -108 24 -228.5t83 -293.5q17 -50 51 -146q145 -410 145 -624v-45q0 -93 -16.5 -117.5t-62.5 -24.5q-24 0 -39 12t-15 29q0 6 2.5 12.5t5.5 11.5q8 66 11.5 113t3.5 87q0 253 -154 759l-14 45 q-34 110 -55.5 216.5t-30.5 209.5q-2 6 -3 11.5t-1 9.5z" />
<glyph unicode="]" horiz-adv-x="446" d="M23 -340q0 11 3 20t8 14q7 3 13 4t19 1q8 0 48 -5t72 -5h25q-19 168 -29 383.5t-10 470.5q0 256 10 471.5t29 382.5h-39q-19 0 -55 -5.5t-51 -5.5q-14 1 -19.5 1.5t-12.5 3.5q-5 6 -8 14t-3 18q0 19 4 26t14 11q3 1 8 2q10 2 17 2q19 0 45.5 -1t33.5 -1q12 0 32 1t28 1 h37q23 -6 39 -19t26 -34v-20q0 -6 -3 -39q-32 -358 -32 -809q0 -266 8.5 -473.5t26.5 -395.5q-10 -21 -26 -34t-39 -19h-37q-8 0 -28 1t-32 1q-7 0 -33.5 -1t-45.5 -1q-6 0 -18 3q-5 1 -7 1q-10 4 -14 10.5t-4 24.5z" />
<glyph unicode="^" horiz-adv-x="2048" d="M412 897l528 565h166l526 -565h-88l-522 451l-524 -451h-86z" />
<glyph unicode="_" d="M0 -383h1024v-100h-1024v100z" />
<glyph unicode="`" d="M362 1063q0 17 16 31t32 14q28 0 72 -52t83 -81q32 -23 77.5 -46.5t45.5 -41.5q0 -9 -8 -16t-18 -7q-70 0 -185 78t-115 121z" />
<glyph unicode="a" horiz-adv-x="807" d="M86 266q0 185 102 349.5t197 164.5h2q33 -7 59 -21.5t48 -35.5q33 -16 58 -42t46 -67l8 44q-1 3 -1.5 6t-0.5 8q0 14 12 21t35 7q36 0 64 -21t28 -46q0 -7 -2.5 -12.5t-11.5 -14.5q-28 -102 -42.5 -208.5t-14.5 -211.5q0 -99 12 -144.5t39 -45.5q5 0 10 2t10 6 q2 9 6 12.5t13 3.5q11 0 17.5 -6t6.5 -16q0 -16 -17 -27.5t-42 -11.5q-56 0 -96 47t-51 129q-53 -126 -112 -186t-132 -60q-103 0 -176.5 109t-73.5 268zM213 184q0 -119 38 -188.5t103 -69.5q50 0 89.5 43.5t68.5 128.5q31 92 50.5 215t19.5 219q0 61 -35.5 104.5 t-79.5 43.5q-92 0 -173 -152t-81 -344z" />
<glyph unicode="b" horiz-adv-x="834" d="M109 250q0 270 52.5 602.5t55.5 378.5q-5 9 -7.5 18t-2.5 19q0 19 22.5 32t55.5 13q39 0 64.5 -20.5t25.5 -51.5q0 -8 -5.5 -16.5t-19.5 -20.5q-69 -324 -101 -572.5t-32 -459.5q0 -34 3.5 -58t6.5 -24q10 0 24 93q13 94 25 159q37 194 97 278.5t159 84.5 q110 0 183 -107.5t73 -271.5q0 -183 -96 -309t-231 -126q-67 0 -113.5 26.5t-46.5 59.5q0 19 7.5 29t21.5 10q13 0 19.5 -8t6.5 -22q0 -8 -0.5 -12.5t-1.5 -8.5q19 -20 42 -30.5t50 -10.5q109 0 162.5 88t53.5 269q0 166 -45 255t-128 89q-66 0 -111.5 -80.5t-72.5 -245.5 q-13 -78 -25 -198q-18 -179 -71 -179t-76.5 78t-23.5 250z" />
<glyph unicode="c" horiz-adv-x="653" d="M80 264q0 199 87 375t163 176q22 0 51 -18t65 -54q75 -23 108.5 -76.5t33.5 -150.5q0 -15 -3 -59.5t-3 -73.5v-21q-13 -10 -19 -13t-12 -3q-38 0 -57 18.5t-19 57.5q0 16 8.5 75t8.5 101q0 63 -18.5 93t-55.5 30q-80 0 -157 -159.5t-77 -350.5q0 -146 47.5 -220.5 t141.5 -74.5q70 0 122 48.5t68 131.5q-5 7 -7.5 13.5t-2.5 11.5q0 13 8.5 23t20.5 10q14 0 25 -11.5t11 -27.5q0 -84 -73.5 -156t-171.5 -72q-128 0 -210.5 105t-82.5 272z" />
<glyph unicode="d" horiz-adv-x="840" d="M96 287q0 177 102 340.5t195 163.5h4q34 -8 59 -21.5t46 -34.5q28 -14 48.5 -32t35.5 -41q21 170 48.5 374.5t27.5 220.5q-1 5 -1.5 10.5t-3.5 19.5q-2 7 -3 11t-1 7q0 17 12 25.5t35 8.5q54 0 81.5 -14.5t27.5 -42.5q0 -5 -3 -12t-9 -15q-56 -235 -85.5 -484.5 t-29.5 -491.5q0 -141 25.5 -212t76.5 -71q2 0 7 1t8 1q8 12 12.5 16t9.5 4q8 0 13.5 -5t5.5 -13q0 -17 -18.5 -29t-45.5 -12q-65 0 -119 62t-75 165q-49 -135 -108.5 -200.5t-135.5 -65.5q-98 0 -170 106.5t-72 260.5zM211 213q0 -116 38 -183t103 -67q56 0 98.5 52.5 t73.5 160.5q20 70 34.5 187t14.5 204q0 51 -33 89t-75 38q-91 0 -172.5 -148.5t-81.5 -332.5z" />
<glyph unicode="e" horiz-adv-x="616" d="M74 309q0 134 51 266t133 209q22 8 37 11.5t29 3.5q18 0 38.5 -9t51.5 -30q71 -13 110 -69t39 -146q0 -132 -82.5 -231t-183.5 -99q-33 0 -56 8t-46 27v-57q0 -121 40.5 -184.5t118.5 -63.5q73 0 121 48t57 131q0 4 -1 9q-3 11 -3 14q0 14 7 20.5t20 6.5q15 0 24 -10.5 t9 -28.5q0 -83 -70.5 -154t-161.5 -71q-122 0 -202 112.5t-80 286.5zM199 330q12 0 32 -39t80 -39q81 0 134 84.5t53 212.5q0 79 -28.5 124.5t-76.5 45.5q-66 0 -117.5 -103t-76.5 -286z" />
<glyph unicode="f" horiz-adv-x="551" d="M78 610q0 48 23 73.5t67 25.5q14 0 27.5 -3.5t27.5 -9.5q38 200 58 348t20 232q0 10 -0.5 20t-3.5 31q7 18 20 28.5t27 10.5q28 0 62 -27t34 -53q0 -4 -1.5 -8.5t-8.5 -18.5q-17 -129 -42.5 -267.5t-78.5 -370.5q54 -75 89 -165t59 -214q20 4 27.5 23t21.5 20 q14 0 22.5 -8t8.5 -23q0 -22 -17.5 -35.5t-56.5 -22.5q9 -55 13.5 -109.5t4.5 -111.5q0 -240 -51.5 -364.5t-150.5 -124.5q-88 0 -135.5 93t-47.5 265q0 117 17 255t51 296q-41 57 -63.5 113.5t-22.5 101.5zM127 588q0 -33 13 -69.5t36 -69.5l35 190q-9 6 -18.5 9t-18.5 3 q-23 0 -35 -16t-12 -47zM205 -135q0 -159 23.5 -237.5t70.5 -78.5q61 0 100 137.5t39 362.5q0 46 -2.5 81.5t-7.5 65.5q-57 11 -101.5 34t-78.5 61q-22 -137 -32.5 -240.5t-10.5 -185.5zM256 336q37 -44 79.5 -69.5t82.5 -26.5q-14 85 -43.5 160.5t-77.5 148.5z" />
<glyph unicode="g" horiz-adv-x="729" d="M80 -344q0 18 7 27.5t19 9.5q8 0 13.5 -5.5t5.5 -13.5q0 -1 -1.5 -7t-2.5 -11v-2q0 -43 53 -70.5t139 -27.5q115 0 181.5 77t66.5 209q0 58 -4.5 141.5t-15.5 228.5q-40 -123 -96 -184t-130 -61q-103 0 -167 100.5t-64 266.5t74.5 303.5t175.5 161.5q30 -3 53.5 -14.5 t44.5 -34.5q36 -14 66 -34t57 -48q-2 32 -4.5 48.5t-5.5 28.5q-1 2 -2 5q-2 6 -2 12q0 18 15.5 28.5t43.5 10.5t53 -14.5t25 -30.5q0 -8 -3 -15.5t-9 -15.5q-15 -56 -21 -127t-6 -233q0 -137 16.5 -304.5t16.5 -201.5q0 -181 -85 -276t-245 -95q-113 0 -187.5 50.5 t-74.5 117.5zM186 266q0 -127 37.5 -197.5t104.5 -70.5q90 0 148.5 138.5t58.5 361.5q0 103 -38 161t-104 58q-70 0 -138.5 -137.5t-68.5 -313.5z" />
<glyph unicode="h" horiz-adv-x="653" d="M106 164q0 314 88 884q24 158 35 236l-2 4q-12 18 -12 25q0 18 18.5 30.5t47.5 12.5q36 0 63 -19.5t27 -42.5q0 -5 -3 -11t-12 -17q-71 -347 -111 -645.5t-40 -464.5q0 -56 7 -84.5t21 -28.5q11 0 23 93q12 100 25 173q33 195 79.5 296.5t102.5 101.5q55 0 77.5 -59.5 t22.5 -237.5v-24q-2 -66 -2 -124q0 -124 12 -187t35 -63q4 0 12 4t15 4q5 0 9.5 -3.5t4.5 -8.5q0 -11 -12 -17.5t-33 -6.5q-70 0 -109.5 78.5t-39.5 220.5q0 27 1 102t1 121q0 82 -7 104.5t-26 22.5q-27 0 -60.5 -108t-60.5 -288q-7 -46 -16 -124q-21 -187 -86 -187 q-50 0 -72.5 56.5t-22.5 181.5z" />
<glyph unicode="i" horiz-adv-x="418" d="M123 199q0 55 23 253q10 90 16 142q-9 7 -13 14.5t-4 16.5q0 18 19.5 28.5t52.5 10.5t59.5 -21.5t26.5 -42.5q0 -9 -4.5 -17t-13.5 -16q-25 -118 -38.5 -228t-13.5 -202q0 -108 23 -153t76 -45q23 0 41 6.5t37 21.5q0 19 5.5 29t16.5 10q10 0 16.5 -8t6.5 -21 q0 -28 -36.5 -46.5t-94.5 -18.5q-96 0 -148.5 75t-52.5 212zM135 834q0 32 27.5 53.5t68.5 21.5q48 0 75.5 -20t27.5 -55q0 -30 -28.5 -52t-69.5 -22q-50 0 -75.5 18.5t-25.5 55.5z" />
<glyph unicode="j" horiz-adv-x="465" d="M49 -440q0 17 6.5 27t16.5 10t17 -6.5t7 -16.5q0 -5 -8 -11q-1 -1 -2 -1q4 -21 22 -33t44 -12q64 0 95.5 68.5t31.5 207.5q0 37 -4.5 217t-4.5 324q0 80 0.5 122t1.5 80q-19 -65 -80 -234.5t-61 -248.5q0 -25 4.5 -50t14.5 -52q11 -3 16.5 -10.5t5.5 -20.5t-9 -22t-22 -9 q-25 0 -43 42t-18 104q0 88 87.5 297t92.5 344q-4 7 -6 12.5t-2 9.5q0 12 11.5 21.5t27.5 9.5q41 0 79 -17t38 -36q0 -7 -3.5 -14.5t-11.5 -16.5q-14 -54 -21 -105.5t-7 -105.5q0 -81 17 -287.5t17 -328.5q0 -183 -55.5 -272t-169.5 -89q-55 0 -90 29.5t-35 73.5zM236 866 q0 32 27 53t69 21q48 0 75 -19.5t27 -54.5q0 -30 -28 -51.5t-70 -21.5q-50 0 -75 18.5t-25 54.5z" />
<glyph unicode="k" horiz-adv-x="844" d="M106 162q0 317 108 902q24 135 36 202q-1 1 -2 3q-12 18 -12 27q0 17 15.5 25t47.5 8q46 0 74 -19t28 -50q0 -11 -4 -19.5t-14 -19.5q-81 -326 -124.5 -603.5t-43.5 -461.5q0 -78 4.5 -111t13.5 -33q15 0 24 101q8 99 17 168q33 235 112.5 366t188.5 131q92 0 151.5 -70 t59.5 -180q0 -145 -100.5 -259.5t-212.5 -114.5q-20 0 -32 7.5t-25 31.5q27 -99 93 -163.5t136 -64.5q41 0 71 21t52 65q-3 5 -4.5 9.5t-1.5 9.5q0 10 7 17t17 7q11 0 19 -8t8 -20q0 -53 -64 -102.5t-137 -49.5q-109 0 -189.5 88.5t-115.5 246.5q-7 -55 -15 -146 q-22 -230 -89 -230q-52 0 -74.5 65.5t-22.5 223.5zM311 291q14 8 25 11t26 3q16 0 28.5 -5t21.5 -15v-17q0 -35 19.5 -51t64.5 -16q91 0 159 87t68 206q0 97 -45 160t-115 63q-80 0 -152 -119t-100 -307z" />
<glyph unicode="l" horiz-adv-x="578" d="M55 156q0 8 6 14t15 6q8 0 28 -20.5t54 -20.5q6 0 25 2q11 2 16 2q-26 92 -39 185t-13 192q0 146 24.5 293.5t70.5 284.5q41 122 88 178.5t106 56.5q76 0 111 -86.5t35 -273.5q0 -283 -81.5 -510.5t-215.5 -327.5q29 -111 65.5 -158t91.5 -47q60 0 80.5 41t28.5 41 q9 0 15.5 -8t6.5 -20q0 -33 -42.5 -62t-96.5 -29q-73 0 -128 52t-95 159q-7 0 -20 -1q-27 -3 -33 -3q-46 0 -74.5 17.5t-28.5 42.5zM250 444q0 -89 6 -156t18 -120q106 74 173 279.5t67 470.5q0 156 -20 238.5t-58 82.5q-58 0 -122 -246t-64 -549z" />
<glyph unicode="m" horiz-adv-x="1028" d="M104 92q0 149 31 350.5t31 239.5q0 3 -2 16t-4 29l6 16q13 9 26 13t29 4q38 0 54 -10.5t20 -36.5q-41 -133 -63.5 -297t-22.5 -326q0 -23 6 -36t16 -13q12 0 25 94q14 97 27 166q36 196 86 296.5t110 100.5q68 0 97.5 -78.5t29.5 -267.5q0 -24 -1 -68.5t-1 -64.5 q0 -12 0.5 -25t1.5 -28h15q31 279 83.5 424t120.5 145q55 0 77 -57t22 -238v-149q0 -121 11 -185.5t32 -64.5q3 0 13.5 5t16.5 5q5 0 9 -4.5t4 -9.5q0 -11 -12 -18t-31 -7q-69 0 -110.5 77.5t-41.5 211.5q0 16 2 94t2 140q0 78 -7.5 102.5t-27.5 24.5q-23 0 -51.5 -81 t-54.5 -221q-15 -82 -29 -205q-19 -169 -74 -169q-43 0 -59 25t-16 114v61v133q0 178 -13.5 244t-46.5 66q-30 0 -67.5 -105.5t-65.5 -277.5q-8 -51 -18 -134q-22 -182 -92 -182q-50 0 -71.5 38t-21.5 124z" />
<glyph unicode="n" horiz-adv-x="653" d="M104 96q0 151 29 352t29 240q0 4 -1.5 16.5t-4.5 31.5l4 16q13 8 25.5 12t27.5 4q36 0 50 -10t17 -38q-37 -132 -57 -297t-20 -339q0 -20 5.5 -30.5t14.5 -10.5q10 0 23 99t28 177q41 208 83.5 298t97.5 90q54 0 76 -58t22 -239v-148q0 -121 11 -185.5t32 -64.5q4 0 14 4 t17 4q4 0 8 -3.5t4 -8.5q0 -10 -12.5 -17t-30.5 -7q-69 0 -110.5 77t-41.5 211q0 16 2.5 94t2.5 140q0 78 -7.5 102.5t-27.5 24.5q-26 0 -60.5 -108t-60.5 -281q-8 -52 -18 -137q-20 -179 -85 -179q-45 0 -65.5 40t-20.5 128z" />
<glyph unicode="o" horiz-adv-x="735" d="M78 256q0 180 64 321.5t175 210.5h17q41 0 76.5 -18t82.5 -65q9 2 18.5 4t16.5 2q67 0 114.5 -106.5t47.5 -270.5q0 -216 -81.5 -330.5t-235.5 -114.5q-138 0 -216.5 98t-78.5 269zM201 223q0 -150 45 -223.5t139 -73.5q114 0 171.5 88.5t57.5 264.5q0 151 -37 267 t-73 116q-5 -1 -9 -1.5t-12 -2.5q-15 14 -32 21t-33 7q-81 0 -149 -138.5t-68 -324.5z" />
<glyph unicode="p" horiz-adv-x="768" d="M96 -465q1 11 1.5 24t0.5 44v139q0 522 52 964q6 52 6 60q0 14 -4 39v3q1 13 8.5 18t21.5 5q34 0 58.5 -13t35.5 -38l5 -18q-26 -7 -53.5 -193t-32.5 -442q50 303 116 427t170 124q101 0 165.5 -100t64.5 -261q0 -172 -95 -285.5t-237 -113.5q-44 0 -85 9t-77 25 q-3 -42 -4.5 -72.5t-1.5 -49.5q0 -110 3 -167.5t9 -90.5l14 -30q-4 -19 -30 -30.5t-66 -11.5q-24 0 -32.5 7t-12.5 28zM224 36q5 -6 15 -24q37 -67 150 -67q102 0 157.5 87t55.5 249q0 148 -45 237.5t-117 89.5q-78 0 -127.5 -129.5t-88.5 -442.5z" />
<glyph unicode="q" horiz-adv-x="772" d="M86 260q0 175 91.5 324t180.5 149q21 0 41 -11t41 -34q30 -8 59.5 -30.5t63.5 -61.5q1 13 1.5 24.5t0.5 22.5q0 23 -0.5 37.5t-1.5 28.5q-6 9 -9 16.5t-3 11.5q0 22 15.5 34.5t41.5 12.5q34 0 65.5 -22t31.5 -41q0 -5 -9 -21l-4 -8q-41 -295 -64.5 -561t-23.5 -414 q0 -81 12.5 -114t40.5 -33q31 0 48.5 41t17.5 115q0 4 -1 12t-1 12q-8 8 -12 17.5t-4 19.5q0 14 5 20.5t17 6.5q17 0 27 -23.5t10 -64.5q0 -124 -39 -193.5t-107 -69.5q-59 0 -88.5 54t-29.5 164q0 45 7.5 140.5t22.5 241.5q-46 -84 -98.5 -125.5t-114.5 -41.5 q-99 0 -165 101.5t-66 262.5zM197 186q0 -119 36 -188.5t97 -69.5q96 0 159 145t74 400q-44 10 -47 51v5q-3 53 -26 80.5t-66 27.5q-93 0 -160 -129t-67 -322z" />
<glyph unicode="r" horiz-adv-x="545" d="M70 -53q0 53 28 197.5t90 408.5q-16 11 -23 31t-7 57q0 23 1 34.5t3 21.5l10 53l1 4q13 69 44 69q21 0 37 -13t16 -28q-4 -12 -8 -37l-14 -73q-2 -9 -3 -17t-1 -16q0 -22 15 -35.5t40 -13.5t41 12t31 43q8 7 19 10.5t26 3.5q34 0 59 -29t25 -61q0 -5 -4 -11.5t-15 -16.5 q-34 -58 -57 -160.5t-23 -200.5q0 -90 18.5 -143t49.5 -53q10 0 20 6t17 17q3 14 8.5 22t13.5 8q10 0 15.5 -7t5.5 -18q0 -23 -30 -46t-64 -23q-70 0 -113 79t-43 209q0 93 15 178t46 171q-34 -22 -58 -30.5t-48 -8.5q-9 0 -16.5 0.5t-14.5 0.5q-47 -198 -70.5 -344 t-25.5 -245q4 -8 6 -16t2 -15q0 -13 -9 -23t-20 -10q-14 0 -25 17t-11 41z" />
<glyph unicode="s" horiz-adv-x="616" d="M78 59q0 25 13 39.5t34 14.5q12 0 20.5 -8t8.5 -19q0 -5 -2 -9.5t-6 -10.5l-1 -13q0 -55 46.5 -92t117.5 -37q77 0 120.5 36t43.5 99q0 52 -32 82.5t-140 67.5q-104 36 -161.5 100t-57.5 144q0 82 40 167.5t106 141.5q23 8 38.5 11t28.5 3q37 0 72 -15t55 -40 q93 -43 126.5 -94t33.5 -183q0 -14 -1.5 -31t-5.5 -39q-18 -17 -30.5 -24.5t-24.5 -7.5q-19 0 -33 13.5t-22 39.5q1 24 2 62q2 61 2 80q0 82 -24.5 121.5t-75.5 39.5q-69 0 -114.5 -76.5t-45.5 -191.5q0 -80 42 -129.5t140 -85.5q12 -4 35 -12q168 -61 168 -146 q0 -73 -81 -119.5t-204 -46.5q-100 0 -165.5 48t-65.5 120z" />
<glyph unicode="t" horiz-adv-x="469" d="M61 594q0 12 15.5 17.5t81.5 9.5q13 135 31 266t18 135q0 7 -2 16t-6 19v2q0 16 20 27.5t49 11.5q32 0 51 -14t21 -39q-24 -56 -40.5 -151.5t-31.5 -268.5l148 -4q2 -1 7 -1q52 -3 52 -16q0 -22 -56 -34.5t-159 -12.5q-8 -110 -12 -184t-4 -125q0 -157 25 -221t83 -64 q51 0 70.5 43t23.5 43q11 0 17 -7t5 -19q0 -41 -40 -73t-98 -32q-96 0 -148.5 81t-52.5 228q0 52 5.5 133.5t16.5 202.5q-53 6 -71 12.5t-19 18.5z" />
<glyph unicode="u" horiz-adv-x="616" d="M96 258q0 82 12.5 191.5t12.5 136.5q0 29 -1 43t-3 26q0 16 15 25.5t42 9.5q34 0 57 -21t23 -36q-21 -38 -38 -157.5t-17 -256.5q0 -113 18.5 -172t54.5 -59q37 0 66.5 50t52.5 152q22 99 35.5 221t13.5 207q0 1 -1 5.5t-1 9.5q0 2 -1.5 13t-2.5 20v13q7 13 24 19.5 t46 6.5q20 0 41.5 -18.5t21.5 -37.5v-2l-2 -14q-16 -5 -34.5 -140.5t-18.5 -302.5q0 -101 13 -141.5t44 -40.5q8 0 15 17.5t18 17.5q8 0 13 -5.5t6 -14.5q0 -23 -18.5 -37.5t-47.5 -14.5q-53 0 -87 58.5t-40 158.5q-29 -118 -73.5 -179.5t-100.5 -61.5q-73 0 -115.5 82.5 t-42.5 228.5z" />
<glyph unicode="v" horiz-adv-x="541" d="M76 721q1 14 20.5 25.5t40.5 11.5q26 0 48 -8t38 -23l2 -18q-12 -20 -17 -65t-5 -134q0 -195 27 -307.5t73 -112.5q57 0 121.5 220t64.5 468q0 58 -20 102q-4 10 -4 13q0 12 7.5 19.5t19.5 7.5q22 0 31 -26.5t9 -94.5q0 -118 -26 -284.5t-68 -303.5q-36 -120 -77 -174.5 t-93 -54.5q-76 0 -118 102t-50 304q-1 45 -2 126q-2 165 -22 207z" />
<glyph unicode="w" horiz-adv-x="999" d="M125 315q0 116 8 245t8 142l-2 6q-6 15 -6 21q0 21 15.5 33t41.5 12q33 0 59.5 -18.5t26.5 -36.5q0 -5 -2.5 -12t-7.5 -15q-18 -30 -27.5 -130t-9.5 -267q0 -142 28 -219.5t79 -77.5q58 0 106 162.5t62 420.5q-3 14 -3.5 19t-0.5 10q0 28 17 41t52 13q33 0 55.5 -15.5 t22.5 -36.5q0 -2 -3 -11t-5 -16q-4 -49 -6 -103.5t-2 -116.5q0 -148 22.5 -222.5t67.5 -74.5q65 0 123.5 174.5t58.5 388.5q0 35 -2.5 71.5t-7.5 77.5q-11 12 -16 24.5t-5 26.5q0 15 8.5 23t22.5 8q26 0 37.5 -22.5t11.5 -77.5q0 -332 -79 -562.5t-183 -230.5 q-79 0 -116 102t-37 320q0 14 1 44.5t1 47.5q-46 -319 -101.5 -447t-142.5 -128q-83 0 -126.5 104t-43.5 303z" />
<glyph unicode="x" horiz-adv-x="616" d="M86 -88q0 34 34 105.5t99 175.5q-66 132 -111 476q-4 30 -6 44q-6 6 -8 9.5t-2 6.5q0 16 19.5 27.5t48.5 11.5q36 0 61 -18t25 -43q0 -3 -2 -6.5t-8 -9.5q-3 -17 -5 -32.5t-2 -27.5q0 -70 16.5 -155t47.5 -171q98 140 159.5 261.5t75.5 201.5v10q0 25 8 37t23 12 q21 0 33 -13t12 -36q0 -45 -73 -171t-224 -339q49 -127 97.5 -188.5t99.5 -61.5q35 0 44 28t19 28q9 0 15 -6.5t6 -16.5q0 -27 -24 -44t-64 -17q-76 0 -140 42t-120 128q-37 -56 -61 -109t-36 -105q-1 -39 -8 -52t-24 -13q-13 0 -19 8t-6 23z" />
<glyph unicode="y" horiz-adv-x="653" d="M80 -365q0 12 6 19.5t14 7.5q7 0 11 -4.5t4 -11.5q0 -3 -1 -12t-1 -13q0 -34 50.5 -60t119.5 -26q96 0 152.5 70.5t56.5 191.5q0 96 -29 419v3q-37 -133 -81.5 -190.5t-109.5 -57.5q-66 0 -118 90.5t-52 217.5q0 92 12.5 207.5t12.5 136.5q0 18 -3.5 32.5t-10.5 29.5 q3 19 16 27.5t39 8.5q34 0 55 -17t21 -45q-13 0 -26 -124t-13 -295q0 -114 24 -170t72 -56q75 0 119.5 164t44.5 445q0 45 -2.5 68t-7.5 43q1 13 19 21.5t48 8.5q26 0 45 -13t19 -28q0 -7 -6 -24q-2 -5 -2 -6q-14 -64 -20.5 -140t-6.5 -164q0 -160 21.5 -356.5t21.5 -233.5 q0 -150 -78.5 -239.5t-208.5 -89.5q-94 0 -160.5 49.5t-66.5 115.5z" />
<glyph unicode="z" horiz-adv-x="725" d="M57 403q0 126 127 249.5t271 123.5q75 0 118 -38t43 -105q0 -75 -48.5 -151.5t-161.5 -178.5h22q29 0 61.5 -11.5t61.5 -31.5l4 1q62 18 82 18q28 0 48 -14.5t20 -33.5q0 -10 -6.5 -16t-16.5 -6q-3 0 -19.5 11t-37.5 11q-10 0 -19.5 -1t-19.5 -3q33 -39 50 -96t17 -127 q0 -95 -33.5 -190t-97.5 -179q-63 -83 -135.5 -126.5t-146.5 -43.5q-76 0 -125 48.5t-49 121.5q0 156 111.5 315t307.5 279q-17 17 -42.5 27t-53.5 10q-6 0 -20 -5q-5 -2 -8 -3q-108 -102 -148.5 -133t-58.5 -31q-13 0 -20 6.5t-7 18.5q0 40 68.5 98t160.5 82 q101 110 141 174.5t40 114.5q0 46 -25 72t-70 26q-98 0 -224 -99t-126 -184q0 -19 11.5 -34.5t11.5 -18.5q0 -8 -7 -14t-16 -6q-15 0 -25 20.5t-10 52.5zM139 -342q0 -51 25 -81t67 -30q39 0 88 35.5t99 100.5q66 87 100.5 181t34.5 185q0 52 -11 89.5t-34 66.5 q-164 -96 -266.5 -251t-102.5 -296z" />
<glyph unicode="{" d="M176 608v56q168 15 226.5 73.5t58.5 214.5v217q0 200 80 273.5t295 73.5h10v-49q-147 -2 -200.5 -55t-53.5 -210v-145q0 -225 -63 -308t-234 -114q171 -32 234 -114.5t63 -307.5v-145q0 -156 53 -208.5t201 -54.5v-49h-10q-215 0 -295 73t-80 273v217q0 156 -60 216 t-225 73z" />
<glyph unicode="|" d="M459 -483v2048h108v-2048h-108z" />
<glyph unicode="}" d="M178 -195q149 2 202.5 55t53.5 208v145q0 226 62.5 308.5t232.5 113.5q-170 31 -232.5 113.5t-62.5 308.5v145q0 155 -53.5 208.5t-202.5 56.5v49h10q216 0 296.5 -74t80.5 -273v-217q0 -157 58 -215t225 -73v-56q-165 -13 -224 -72.5t-59 -216.5v-217 q0 -199 -80.5 -272.5t-296.5 -73.5h-10v49z" />
<glyph unicode="~" horiz-adv-x="1706" d="M178 471v113q106 73 202 109t185 36q104 0 272 -61q11 -4 18 -7q9 -3 31 -11q167 -60 257 -60q85 0 177 38t210 122v-113q-102 -72 -198 -107.5t-189 -35.5q-99 0 -260 57q-20 7 -29 10l-16 6q-176 64 -273 64q-83 0 -175 -38t-212 -122z" />
<glyph unicode="&#xa1;" horiz-adv-x="502" d="M76 2q0 10 5.5 22t20.5 33q90 338 144.5 640.5t54.5 410.5q0 21 -3 42l-3 21q0 7 4 10.5t12 4.5q27 0 38 -48.5t11 -164.5q0 -352 -97 -956l-1 -7q0 -42 -19 -61t-63 -19q-47 0 -75.5 20t-28.5 52zM188 1325q0 53 27.5 80t81.5 27q64 0 98.5 -22t34.5 -62 q0 -47 -32.5 -74t-88.5 -27q-48 0 -84.5 24.5t-36.5 53.5z" />
<glyph unicode="&#xa2;" horiz-adv-x="627" d="M61 637q0 164 75.5 297t144.5 133q7 0 15 -1.5t17 -4.5l-6 57q0 2 -2 8t-2 9q0 10 11.5 18t29.5 8q23 0 43.5 -12.5t20.5 -24.5l-1 -3.5t-6 -16.5l-4 -68q84 -29 128 -93.5t44 -158.5q0 -85 -9 -105t-38 -20q-26 0 -38.5 11t-12.5 32q0 10 3 45t3 60q0 93 -30 146t-82 53 q-77 0 -134 -118.5t-57 -287.5q0 -134 47.5 -199t145.5 -65q59 0 106.5 25.5t69.5 68.5q-3 11 -3.5 15.5t-0.5 9.5q0 11 6 17.5t16 6.5q9 0 15 -9t6 -24q0 -56 -63 -105.5t-159 -61.5q-4 -21 -6 -44.5t-2 -50.5v-28q4 -9 6 -15.5t2 -9.5q0 -5 -3.5 -7.5t-10.5 -2.5 q-14 0 -22 25.5t-21 134.5q-117 23 -179.5 114.5t-62.5 241.5z" />
<glyph unicode="&#xa3;" horiz-adv-x="772" d="M45 35q0 41 74 70q30 12 49 20q51 21 73.5 56.5t22.5 97.5q0 29 -8 77.5t-25 118.5q-21 3 -56 7q-114 15 -114 53q1 9 4 11.5t13 2.5q1 0 9 -2q48 -10 130 -17q-31 121 -46 211t-15 156q0 149 64 249.5t147 100.5q27 0 62 -14t81 -43q95 -50 138.5 -117t43.5 -164 q0 -25 -1 -52.5t-3 -67.5q-10 -20 -25.5 -29.5t-35.5 -9.5q-21 0 -41.5 14t-20.5 29q0 5 1.5 13t4.5 17l2 7q11 59 11 85q0 125 -35.5 184.5t-108.5 59.5q-67 0 -108 -66t-41 -178q0 -66 14 -165t41 -213q13 -1 29.5 -1.5t44.5 -0.5q32 0 55.5 1t49.5 3q10 2 28 7t22 5 q11 0 16 -5t5 -16q0 -30 -50 -43.5t-183 -17.5q6 -35 9 -59.5t3 -38.5q0 -94 -46 -165.5t-136 -117.5q76 29 124.5 42t81.5 13q68 0 157 -48t120 -48q29 0 42.5 7.5t20.5 24.5l-1.5 6t-0.5 7q0 13 7 21t18 8q12 0 19 -9.5t7 -25.5q0 -42 -55 -79.5t-125 -37.5 q-67 0 -175.5 48.5t-145.5 48.5q-57 0 -123 -45.5t-76 -45.5q-23 0 -33 14.5t-10 45.5z" />
<glyph unicode="&#xa4;" horiz-adv-x="930" d="M37 549q0 5 1.5 7.5t4.5 2.5q2 0 7 -1t7 -1q1 0 33.5 -4t40.5 -4h10q0 30 3.5 63.5t10.5 79.5q-65 2 -85.5 12.5t-20.5 40.5q0 6 1.5 8.5t4.5 2.5q2 0 6.5 -1t8.5 -1l13 -2q45 -7 60 -7h23q20 92 56 181.5t87 173.5q58 92 111.5 141t97.5 49q50 0 126.5 -33t125.5 -79 q65 -60 83.5 -103.5t18.5 -116.5q0 -28 -2 -44q-3 -19 -6 -44v-6q0 -17 -17.5 -29t-43.5 -12q-25 0 -42.5 13.5t-17.5 31.5q0 6 1 10.5t3 7.5l4.5 16.5t4.5 13.5q2 27 6 47t4 47q0 102 -40 152t-120 50q-49 0 -97 -42.5t-99 -133.5q-38 -66 -66.5 -140.5t-46.5 -151.5 q42 1 95 4t77 6q41 3 103 8q96 8 106 8q12 0 17 -5t5 -15q0 -31 -98 -47.5t-250 -16.5l-67 2q-7 -31 -12 -66t-8 -75q33 0 81 2.5t82 5.5q64 5 133.5 11.5t75.5 6.5q12 0 17 -4.5t5 -15.5q0 -30 -103 -47t-261 -17l-35 3v-50q0 -221 72.5 -332.5t216.5 -111.5q76 0 137 38.5 t92 106.5q18 39 24.5 66t6.5 55v6q-3 11 -3.5 15t-0.5 8q0 11 7.5 18.5t21.5 7.5q13 0 19.5 -10.5t6.5 -29.5q0 -136 -90.5 -231t-232.5 -95q-177 0 -282.5 145.5t-113.5 396.5q-64 2 -84 13t-20 41z" />
<glyph unicode="&#xa5;" horiz-adv-x="854" d="M59 569q1 5 4 6.5t17 2.5l6 -2q30 -7 68 -7q22 0 65.5 -1t65.5 -1h32q-70 117 -176 491q-15 54 -22 80q-6 8 -9 14.5t-4 12.5q0 21 31 38.5t68 17.5q27 0 47 -17.5t20 -40.5q0 -5 -5 -18l-3 -6q16 -151 64.5 -298.5t120.5 -267.5q111 176 180.5 344.5t83.5 292.5v23 q0 25 7 37t21 12q21 0 33 -18t12 -47q0 -66 -75 -236t-211 -408l51 5q69 4 137 10t72 6q12 0 17 -5t5 -16q0 -25 -79 -41.5t-217 -19.5q-8 -93 -10.5 -143t-2.5 -90q0 -118 6 -170.5t21 -85.5q5 -7 8.5 -13.5t3.5 -9.5q0 -22 -28 -34.5t-76 -12.5q-26 0 -34.5 7t-12.5 27 q1 11 1 24.5v45.5v146q0 61 1.5 131t3.5 147l-19 29q-58 5 -142 9q-147 8 -147 50z" />
<glyph unicode="&#xa6;" d="M459 -350v758h108v-758h-108zM459 674v758h108v-758h-108z" />
<glyph unicode="&#xa7;" horiz-adv-x="895" d="M133 422q0 72 52 139t153 125q-105 58 -141.5 112t-36.5 148q0 175 67 292.5t166 117.5q40 0 97 -29t110 -78q55 -50 82 -115t27 -149q0 -49 -16 -77.5t-42 -28.5q-27 0 -43 22t-16 62q0 159 -33 240t-98 81q-77 0 -124.5 -92t-47.5 -246q0 -116 43.5 -172.5 t183.5 -107.5q147 -55 199.5 -109.5t52.5 -140.5q0 -70 -54.5 -139t-152.5 -121q104 -40 147.5 -79.5t43.5 -92.5q0 -96 -89.5 -159t-228.5 -63q-124 0 -208.5 63t-84.5 144q0 22 9 34.5t24 12.5q11 0 21 -9.5t10 -20.5t-9.5 -21t-9.5 -14q0 -49 67 -93t155 -44 q91 0 148.5 41.5t57.5 107.5q0 67 -34.5 108t-161.5 97q-186 81 -235.5 130.5t-49.5 123.5zM260 436q0 -78 58.5 -137.5t205.5 -126.5q60 51 91.5 115t31.5 135q0 144 -241 242l-19 8q-56 -35 -91.5 -100.5t-35.5 -135.5z" />
<glyph unicode="&#xa8;" d="M313 981q0 33 19 53.5t49 20.5q35 0 55.5 -21t20.5 -55q0 -31 -20.5 -49.5t-55.5 -18.5q-32 0 -50 18.5t-18 51.5zM565 981q0 33 19 53.5t49 20.5q35 0 55.5 -21t20.5 -55q0 -31 -20.5 -49.5t-55.5 -18.5q-32 0 -50 18.5t-18 51.5z" />
<glyph unicode="&#xa9;" horiz-adv-x="1683" d="M145 678q0 140 52.5 267.5t150.5 225.5q97 98 226 151.5t270 53.5q137 0 265 -53t224 -149q97 -96 151 -227t54 -269q0 -137 -52.5 -264t-152.5 -228q-97 -99 -224 -151.5t-267 -52.5q-139 0 -264.5 52t-227.5 152q-100 99 -152.5 225t-52.5 267zM227 678 q0 -125 47 -237.5t136 -200.5q89 -90 198.5 -136.5t233.5 -46.5q125 0 237 47t197 136q88 91 135 204t47 234q0 122 -48 239t-134 203t-199 133t-233 47q-122 0 -236 -48t-200 -136q-89 -91 -135 -203t-46 -235zM428 664q0 185 115 310.5t282 125.5q74 0 148 -34t82 -34 q28 0 44.5 16t20.5 45l31 1v-310h-37q-32 135 -104 205t-179 70q-125 0 -189 -95t-64 -280q0 -188 69 -285.5t203 -97.5q88 0 158.5 43.5t126.5 130.5l32 -22q-58 -105 -142.5 -156t-199.5 -51q-163 0 -280 122.5t-117 295.5z" />
<glyph unicode="&#xaa;" horiz-adv-x="606" d="M66 1036q0 130 76 245.5t147 115.5h2q25 -7 44 -16.5t36 -24.5q25 -12 43.5 -30t34.5 -46l6 31q-2 3 -2 4.5v5.5q0 9 9 13.5t27 4.5q27 0 47.5 -14.5t20.5 -32.5q0 -4 -2.5 -8.5t-7.5 -9.5q-21 -74 -32 -148t-11 -145t9 -102t30 -31q5 0 8 1t6 3q1 6 4 9t10 3 q9 0 13.5 -4t5.5 -12q0 -11 -13 -19t-32 -8q-42 0 -72 33t-39 90q-38 -88 -82.5 -130t-99.5 -42q-77 0 -131.5 76t-54.5 188zM160 979q0 -84 28.5 -132t77.5 -48q37 0 66.5 30t52.5 91q22 65 36.5 151t14.5 152q0 43 -26 72.5t-60 29.5q-69 0 -129.5 -106t-60.5 -240z" />
<glyph unicode="&#xab;" horiz-adv-x="721" d="M78 373v8q0 13 3.5 22.5t10.5 18.5q102 64 178 146.5t82 82.5q9 0 13.5 -6t5.5 -18q0 -25 -54 -94.5t-133 -135.5q80 -56 129 -126t49 -124q0 -11 -8 -19.5t-20 -8.5q-17 0 -85.5 79.5t-160.5 131.5q-5 7 -7.5 15.5t-2.5 27.5zM379 373v8q0 13 3.5 22.5t10.5 18.5 q102 64 178 146.5t82 82.5q9 0 13.5 -6t5.5 -18q0 -25 -54 -94.5t-133 -135.5q80 -56 129.5 -126t49.5 -124q0 -11 -8.5 -19.5t-20.5 -8.5q-17 0 -85.5 79.5t-160.5 131.5q-5 7 -7.5 15.5t-2.5 27.5z" />
<glyph unicode="&#xac;" horiz-adv-x="1706" d="M254 758v100h1198v-502h-96v402h-1102z" />
<glyph unicode="&#xad;" horiz-adv-x="512" d="M80 373q0 13 2.5 19.5t7.5 6.5q4 0 10 -2q3 -1 4 -2q41 0 127.5 12.5t130.5 12.5q54 0 76.5 -13t22.5 -42q0 -19 -8 -28t-23 -9q-9 0 -18 4t-23 14q-49 -2 -122 -6t-95 -4q-48 0 -70 9t-22 28z" />
<glyph unicode="&#xae;" horiz-adv-x="1683" d="M145 678q0 140 52.5 267.5t150.5 225.5q97 98 226 151.5t270 53.5q137 0 265 -53.5t226 -151.5q96 -96 149.5 -225.5t53.5 -267.5q0 -139 -53.5 -266.5t-153.5 -227.5q-99 -99 -225.5 -150.5t-267.5 -51.5q-138 0 -263 52.5t-225 151.5t-152.5 225t-52.5 267zM227 678 q0 -125 47 -237.5t136 -200.5q89 -90 198.5 -136.5t233.5 -46.5q125 0 237 47t197 136q88 91 135 204t47 234q0 122 -48.5 239.5t-133.5 202.5q-86 86 -199 133t-233 47q-122 0 -236 -48t-200 -136q-88 -89 -134.5 -202t-46.5 -236zM469 291v40q75 3 103 25t28 78v514 q0 56 -28 77.5t-103 23.5v41h393q147 0 231.5 -54t84.5 -145q0 -75 -68.5 -122.5t-220.5 -76.5q94 -31 141.5 -79t69.5 -134q6 -23 13 -64q14 -85 58 -85q37 0 54.5 32t17.5 99h41v-12q0 -86 -40 -131.5t-116 -45.5q-45 0 -79 18.5t-48 51.5q-16 38 -17 111.5t-9 99.5 q-21 66 -73.5 97.5t-141.5 31.5q-6 0 -18.5 -1t-18.5 -1v-246q0 -56 29 -78.5t102 -24.5v-40h-385zM723 717h33h35q119 0 183 45.5t64 130.5q0 74 -55.5 118t-151.5 44q-52 0 -80 -19t-28 -55v-264z" />
<glyph unicode="&#xaf;" d="M309 1014q0 10 3 14t10 4q1 0 7 -2q62 -18 165 -18q93 0 185 19q16 3 19 3q8 0 12.5 -4t4.5 -12q0 -46 -48 -66t-157 -20q-105 0 -153 19.5t-48 62.5z" />
<glyph unicode="&#xb0;" horiz-adv-x="674" d="M59 1174q0 116 81.5 197t197.5 81q115 0 195.5 -81.5t80.5 -196.5t-81.5 -197t-196.5 -82q-117 0 -197 81t-80 198zM129 1174q0 -87 61 -147t148 -60t147 60t60 147q0 86 -60.5 147t-146.5 61t-147.5 -61t-61.5 -147z" />
<glyph unicode="&#xb1;" horiz-adv-x="1706" d="M254 51v99h1198v-99h-1198zM254 723v98h551v348h98v-348h549v-98h-549v-348h-98v348h-551z" />
<glyph unicode="&#xb2;" horiz-adv-x="569" d="M41 561q0 65 169 161q29 17 44 26q96 57 135 115.5t39 140.5q0 98 -37.5 150t-107.5 52q-78 0 -114 -43.5t-36 -138.5q0 -51 4 -76.5t12 -47.5q-6 -11 -16 -16t-22 -5q-29 0 -40.5 21.5t-11.5 90.5t24.5 114t82.5 85q35 33 70.5 49t74.5 16q85 0 145 -64.5t60 -158.5 q0 -65 -24.5 -116.5t-77.5 -96.5q-29 -24 -94 -60.5t-87 -49.5q-67 -41 -95.5 -67.5t-28.5 -47.5q0 -14 15 -22.5t42 -8.5q62 0 164.5 11.5t140.5 11.5q43 0 64.5 -12t21.5 -35q0 -7 -2 -12t-8 -13q-10 6 -21 9t-24 3q-29 0 -138.5 -18.5t-187.5 -18.5q-65 0 -100 19t-35 53 z" />
<glyph unicode="&#xb3;" horiz-adv-x="614" d="M41 641q0 9 5 15t11 6q10 0 14.5 -5t4.5 -14q0 -5 -0.5 -8l-1.5 -9q20 -46 71 -70t131 -24q104 0 163 32.5t59 88.5q0 53 -55 83t-152 30q-40 0 -86 -2h-12q-10 0 -14.5 3.5t-4.5 10.5q0 8 17 21.5t34 13.5q4 0 19.5 -1t25.5 -1q97 0 143 39.5t46 122.5q0 111 -40 171 t-114 60t-108.5 -51.5t-34.5 -163.5q0 -15 5 -49q2 -10 3 -16q2 -6 3 -11t1 -8q0 -9 -14 -17.5t-27 -8.5q-12 0 -22.5 5.5t-16.5 17.5q-2 22 -3 37t-1 28q0 72 22.5 121.5t75.5 95.5q38 37 75.5 55t78.5 18q88 0 143.5 -65.5t55.5 -173.5q0 -90 -53 -147.5t-156 -79.5 q123 -11 188.5 -49.5t65.5 -100.5q0 -65 -73 -113.5t-177 -48.5q-124 0 -209.5 49.5t-85.5 112.5z" />
<glyph unicode="&#xb4;" d="M362 885q0 21 43 43q46 23 78 47q38 28 82 80.5t74 52.5q17 0 33 -14t16 -33q0 -41 -115.5 -119t-185.5 -78q-10 0 -17.5 7t-7.5 14z" />
<glyph unicode="&#xb5;" horiz-adv-x="1079" d="M-59 -342q0 40 60 279.5t99 429.5l111 518h129l-109 -509q-5 -26 -7.5 -49.5t-2.5 -45.5q0 -91 44.5 -144t119.5 -53q100 0 170 79t102 228l111 494h129l-115 -527q-11 -53 -16.5 -91.5t-5.5 -63.5q0 -51 21 -79t59 -28q39 0 71.5 22.5t57.5 67.5q12 24 29 74 q24 72 49 72q10 0 16 -9.5t6 -25.5q0 -27 -16.5 -80.5t-40.5 -93.5q-39 -68 -90.5 -102.5t-112.5 -34.5q-75 0 -113.5 45.5t-38.5 134.5v27q-44 -108 -112 -160.5t-162 -52.5q-95 0 -151.5 53.5t-69.5 156.5q-23 -131 -44 -329q-31 -277 -106 -277q-34 0 -52.5 19.5 t-18.5 54.5z" />
<glyph unicode="&#xb6;" d="M84 1130q0 157 107.5 253t285.5 96h463v-70h-127v-1409h-82v1409h-186v-1409h-84v782q-174 8 -275.5 102.5t-101.5 245.5z" />
<glyph unicode="&#xb7;" horiz-adv-x="465" d="M135 623q0 37 27.5 65.5t66.5 28.5q40 0 68.5 -28t28.5 -66q0 -39 -29.5 -68t-67.5 -29q-37 0 -65.5 29t-28.5 68z" />
<glyph unicode="&#xb8;" d="M352 -369q0 8 8 14.5t19 6.5q2 0 27.5 -30t89.5 -30q54 0 83 22.5t29 63.5q0 31 -18.5 48.5t-50.5 17.5q-19 0 -41.5 -3t-26.5 -3q-18 0 -25.5 7.5t-7.5 25.5q0 11 0.5 16.5t1.5 9.5l23 127h55l-22 -125q18 8 35.5 11.5t37.5 3.5q63 0 101.5 -36t38.5 -93 q0 -70 -50.5 -110t-140.5 -40q-72 0 -119 27.5t-47 68.5z" />
<glyph unicode="&#xb9;" horiz-adv-x="295" d="M31 961q0 4 2 5.5t8 2.5q33 35 58.5 83t37.5 101q3 13 6 33q5 38 47 39q20 0 30.5 -7t10.5 -20q0 -4 -1.5 -11t-4.5 -14q-15 -64 -23.5 -176t-8.5 -247q0 -71 4.5 -128t13.5 -108q1 -4 3.5 -10.5t2.5 -9.5q0 -13 -19.5 -23t-43.5 -10q-10 0 -17.5 3t-19.5 13 q-10 10 -12 13.5t-3 9.5q0 3 3 12q1 4 2 7q3 22 9.5 207.5t24.5 350.5v-1q-71 -130 -96 -130q-6 0 -10 4.5t-4 10.5z" />
<glyph unicode="&#xba;" horiz-adv-x="551" d="M59 1030q0 126 47.5 225t131.5 148h12q31 0 58.5 -13t62.5 -47q8 3 14.5 4t11.5 1q50 0 85.5 -75t35.5 -190q0 -150 -61.5 -230.5t-175.5 -80.5q-104 0 -163 68.5t-59 189.5zM152 1006q0 -106 33.5 -156.5t103.5 -50.5q86 0 129 61.5t43 183.5q0 106 -27.5 187.5 t-54.5 81.5q-3 0 -8.5 -1t-8.5 -1q-10 9 -23.5 14.5t-25.5 5.5q-60 0 -110.5 -97.5t-50.5 -227.5z" />
<glyph unicode="&#xbb;" horiz-adv-x="721" d="M49 141q0 27 53.5 97.5t133.5 136.5q-79 53 -129 124.5t-50 125.5q0 11 8.5 19.5t20.5 8.5q17 0 85.5 -79.5t160.5 -131.5q5 -8 7.5 -16.5t2.5 -26.5q0 -19 -3.5 -29t-10.5 -20q-102 -63 -178 -146t-82 -83q-8 0 -13.5 6t-5.5 14zM352 141q0 27 54 97.5t133 136.5 q-79 53 -129 124.5t-50 125.5q0 11 8.5 19.5t20.5 8.5q17 0 85.5 -79.5t159.5 -130.5q6 -9 8.5 -17.5t2.5 -26.5q0 -19 -3 -28.5t-11 -20.5q-102 -63 -178 -146t-82 -83q-8 0 -13.5 6t-5.5 14z" />
<glyph unicode="&#xbc;" horiz-adv-x="1321" d="M29 979q0 3 3 5t9 3q30 32 53.5 76.5t36.5 93.5q3 13 6 32q5 36 45 36q19 0 29 -6.5t10 -18.5q0 -4 -1.5 -9.5t-4.5 -12.5q-14 -65 -22.5 -169.5t-8.5 -226.5q0 -76 4 -126.5t13 -94.5q3 -5 4.5 -9.5t1.5 -8.5q0 -13 -18.5 -22t-43.5 -9q-8 0 -15 3t-19 13q-9 9 -11 12.5 t-2 8.5q0 2 1 5.5l3 10.5q3 17 8.5 190.5t24.5 331.5q-7 -12 -20 -34q-51 -88 -72 -88q-6 0 -10 4t-4 10zM221 -16q0 211 248 649l10 18q131 234 183.5 361t64.5 227q1 6 1 13q4 40 24 40q18 0 31.5 -11t13.5 -24q0 -2 -2 -7.5t-7 -14.5q-41 -165 -173 -421 q-36 -68 -52 -101q-117 -238 -168 -408.5t-51 -316.5v-16q4 -10 5 -14t1 -7q0 -14 -15.5 -24.5t-37.5 -10.5q-35 0 -55.5 18.5t-20.5 49.5zM764 233q0 38 60.5 125t176.5 217q77 87 107.5 110.5t56.5 23.5q32 0 46 -25t14 -84q0 -44 -8 -170.5t-11 -203.5q10 0 19 0.5 t18 0.5q37 0 51.5 -9t14.5 -32q0 -11 -1.5 -16t-5.5 -8q-9 3 -19.5 4.5t-20.5 1.5q-4 0 -24 -1.5t-35 -2.5q-2 -18 -2.5 -36t-0.5 -50q0 -20 1 -34.5t3 -28.5q3 -6 4.5 -12t1.5 -11q0 -11 -11 -17t-32 -6q-18 0 -37.5 11t-19.5 22q0 5 1 8.5t3 8.5q2 36 3 69.5t3 68.5 q-60 -2 -101.5 -3.5t-66.5 -1.5q-101 0 -144.5 19t-43.5 62zM819 254q0 -20 26.5 -29.5t80.5 -9.5q39 0 90 2t110 6l11 146q6 87 9 140.5t3 76.5q0 36 -3.5 52.5t-10.5 16.5q-18 0 -48 -27.5t-104 -117.5q-77 -91 -120.5 -159.5t-43.5 -96.5z" />
<glyph unicode="&#xbd;" horiz-adv-x="1280" d="M29 979q0 3 3 5t9 3q30 32 53.5 76.5t36.5 93.5q3 13 6 32q5 36 45 36q19 0 29 -6.5t10 -18.5q0 -4 -1.5 -9.5t-4.5 -12.5q-14 -65 -22.5 -169.5t-8.5 -226.5q0 -76 4 -126.5t13 -94.5q3 -5 4.5 -9.5t1.5 -8.5q0 -13 -18.5 -22t-43.5 -9q-8 0 -15 3t-19 13q-9 9 -11 12.5 t-2 8.5q0 2 1 5.5l3 10.5q3 17 8.5 190.5t24.5 331.5q-7 -12 -20 -34q-51 -88 -72 -88q-6 0 -10 4t-4 10zM221 -16q0 211 248 649l10 18q131 234 183.5 361t64.5 227q1 6 1 13q4 40 24 40q18 0 31.5 -11t13.5 -24q0 -2 -2 -7.5t-7 -14.5q-41 -165 -173 -421 q-36 -68 -52 -101q-117 -238 -168 -408.5t-51 -316.5v-16q4 -10 5 -14t1 -7q0 -14 -15.5 -24.5t-37.5 -10.5q-35 0 -55.5 18.5t-20.5 49.5zM776 59q0 61 156 149q30 17 44 25q91 52 129 106.5t38 131.5q0 93 -35.5 142t-101.5 49q-74 0 -109 -41.5t-35 -128.5q0 -48 3.5 -72 t10.5 -46q-4 -8 -13 -13t-21 -5q-29 0 -39 19t-10 86q0 64 22.5 106t77.5 80q33 30 67.5 45t71.5 15q81 0 139 -60.5t58 -146.5q0 -61 -24 -109t-75 -90q-30 -25 -111 -70q-40 -22 -61 -34q-67 -41 -92.5 -64.5t-25.5 -42.5q0 -14 13.5 -21.5t39.5 -7.5q60 0 158 10.5 t135 10.5q40 0 61 -11t21 -32q0 -5 -2 -9.5t-8 -12.5q-12 5 -22 7.5t-22 2.5q-27 0 -131.5 -16.5t-177.5 -16.5q-64 0 -96.5 16.5t-32.5 48.5z" />
<glyph unicode="&#xbe;" horiz-adv-x="1626" d="M41 680q0 9 4 13.5t10 4.5q9 0 12.5 -3t4.5 -11v-16q18 -44 66.5 -66t125.5 -22q100 0 155.5 30t55.5 82q0 49 -53.5 78t-145.5 29q-36 0 -79 -2h-13q-10 0 -14 2.5t-4 9.5q0 8 15.5 20.5t33.5 12.5q4 0 18.5 -1t24.5 -1q93 0 136.5 36.5t43.5 114.5q0 103 -38.5 159 t-108.5 56t-102.5 -48t-32.5 -152q0 -13 1.5 -28.5t4.5 -33.5q2 -3 3 -7t1 -11q0 -8 -13 -15.5t-26 -7.5t-22.5 5.5t-16.5 15.5q0 9 -1 29t-1 30q0 67 22 114t72 89q37 36 72.5 53.5t73.5 17.5q84 0 137 -62t53 -163q0 -82 -50 -136t-148 -77q115 -9 178 -45t63 -92 q0 -61 -70 -106.5t-170 -45.5q-117 0 -197.5 46t-80.5 104zM526 -16q0 211 248 649l10 18q131 234 183.5 361t64.5 227q1 6 2 14q3 39 23 39q18 0 31.5 -11t13.5 -24q0 -2 -2 -7.5t-6 -14.5q-42 -165 -174 -421q-36 -68 -52 -101q-117 -238 -168 -408.5t-51 -316.5v-16 q4 -10 5 -14t1 -7q0 -14 -15 -24.5t-38 -10.5q-35 0 -55.5 18.5t-20.5 49.5zM1069 233q0 38 60.5 125t177.5 217q76 87 106.5 110.5t56.5 23.5q32 0 46 -25t14 -84q0 -44 -8 -170.5t-10 -204.5q9 1 18 1.5t18 0.5q37 0 51.5 -9t14.5 -32q0 -11 -1.5 -16t-5.5 -8 q-9 3 -19.5 4.5t-20.5 1.5q-4 0 -24 -1.5t-35 -2.5q-2 -18 -2.5 -36t-0.5 -50q0 -20 1 -34.5t3 -28.5q3 -6 4.5 -12t2.5 -11q0 -11 -11.5 -17t-31.5 -6q-19 0 -38.5 11t-19.5 22q0 5 1 8.5t3 7.5q2 37 3.5 71t2.5 69q-60 -3 -101.5 -4.5t-66.5 -1.5q-101 0 -144.5 19 t-43.5 62zM1124 254q0 -20 26.5 -29.5t80.5 -9.5q40 0 90.5 2t110.5 6l10 146q6 87 9 140.5t3 76.5q0 36 -3.5 52.5t-10.5 16.5q-18 0 -48 -27.5t-104 -117.5q-77 -91 -120.5 -159.5t-43.5 -96.5z" />
<glyph unicode="&#xbf;" horiz-adv-x="801" d="M68 313q0 195 209 410q31 32 47 49q62 67 92 123t30 104q0 19 -3.5 33.5t-12.5 28.5q-6 4 -9 9t-3 11q0 14 12 23.5t29 9.5q23 0 34 -23.5t11 -76.5q0 -56 -31 -119.5t-94 -136.5l-18 -21q-164 -188 -164 -387q0 -160 64 -248t179 -88q109 0 174.5 100.5t65.5 270.5 q0 69 -9 140q-1 14 -1 18q0 25 18.5 46t40.5 21q31 0 44 -16.5t13 -58.5q0 -159 -15.5 -229t-51.5 -130q-72 -116 -165 -181t-187 -65q-132 0 -215.5 106.5t-83.5 276.5zM340 1251q0 53 27.5 79t83.5 26q63 0 97 -21.5t34 -62.5q0 -47 -31.5 -74t-87.5 -27q-48 0 -85.5 25.5 t-37.5 54.5z" />
<glyph unicode="&#xc0;" horiz-adv-x="1778" d="M57 256q0 115 44.5 205t95.5 90q9 0 15.5 -6.5t6.5 -16.5q0 -17 -11 -29t-34 -20q-37 -35 -56.5 -99t-19.5 -153q0 -137 105.5 -226t269.5 -89q211 0 352.5 126t226.5 392q-43 3 -114 7q-160 8 -160 46q0 9 4.5 13t14.5 4q2 0 13 -3q39 -12 79 -12q49 0 97 3t93 8 q42 143 77.5 275.5t68.5 260.5l73 289q0 1 -1 4q-3 8 -3 12q0 24 29 42t66 18q40 0 84.5 -31.5t44.5 -56.5q0 -4 -2 -8.5t-6 -11.5q-25 -82 -38.5 -222t-13.5 -324q0 -61 2 -120t7 -115q18 -1 35 -1.5t38 -0.5q44 0 91 4t50 4q11 0 16 -4t5 -12q0 -24 -59.5 -39.5 t-169.5 -20.5q30 -206 81 -324t109 -118q3 0 7.5 1.5t15.5 7.5q3 10 7.5 14.5t12.5 5.5q8 0 13 -7.5t5 -19.5q0 -18 -18.5 -29.5t-48.5 -11.5q-99 0 -192 134.5t-122 336.5q-18 0 -59 -1t-63 -1q-21 0 -63.5 1t-63.5 1q-95 -311 -237.5 -452.5t-358.5 -141.5 q-194 0 -317.5 118.5t-123.5 303.5zM1118 498l215 4q-5 70 -7.5 134t-2.5 118q0 210 24 430q5 43 5 51q0 9 -2.5 15.5t-6.5 6.5q-30 0 -150 -470q-47 -182 -75 -289zM1257 1780q0 17 16 31t32 14q28 0 72 -52t83 -81q32 -23 77.5 -46.5t45.5 -41.5q0 -9 -8 -16t-18 -7 q-70 0 -185 78t-115 121z" />
<glyph unicode="&#xc1;" horiz-adv-x="1778" d="M57 256q0 115 44.5 205t95.5 90q9 0 15.5 -6.5t6.5 -16.5q0 -17 -11 -29t-34 -20q-37 -35 -56.5 -99t-19.5 -153q0 -137 105.5 -226t269.5 -89q211 0 352.5 126t226.5 392q-43 3 -114 7q-160 8 -160 46q0 9 4.5 13t14.5 4q2 0 13 -3q39 -12 79 -12q49 0 97 3t93 8 q42 143 77.5 275.5t68.5 260.5l73 289q0 1 -1 4q-3 8 -3 12q0 24 29 42t66 18q40 0 84.5 -31.5t44.5 -56.5q0 -4 -2 -8.5t-6 -11.5q-25 -82 -38.5 -222t-13.5 -324q0 -61 2 -120t7 -115q18 -1 35 -1.5t38 -0.5q44 0 91 4t50 4q11 0 16 -4t5 -12q0 -24 -59.5 -39.5 t-169.5 -20.5q30 -206 81 -324t109 -118q3 0 7.5 1.5t15.5 7.5q3 10 7.5 14.5t12.5 5.5q8 0 13 -7.5t5 -19.5q0 -18 -18.5 -29.5t-48.5 -11.5q-99 0 -192 134.5t-122 336.5q-18 0 -59 -1t-63 -1q-21 0 -63.5 1t-63.5 1q-95 -311 -237.5 -452.5t-358.5 -141.5 q-194 0 -317.5 118.5t-123.5 303.5zM1118 498l215 4q-5 70 -7.5 134t-2.5 118q0 210 24 430q5 43 5 51q0 9 -2.5 15.5t-6.5 6.5q-30 0 -150 -470q-47 -182 -75 -289zM1257 1602q0 21 43 43q46 23 78 47q38 28 82 80.5t74 52.5q17 0 33 -14t16 -33q0 -41 -115.5 -119 t-185.5 -78q-10 0 -17.5 7t-7.5 14z" />
<glyph unicode="&#xc2;" horiz-adv-x="1778" d="M57 256q0 115 44.5 205t95.5 90q9 0 15.5 -6.5t6.5 -16.5q0 -17 -11 -29t-34 -20q-37 -35 -56.5 -99t-19.5 -153q0 -137 105.5 -226t269.5 -89q211 0 352.5 126t226.5 392q-43 3 -114 7q-160 8 -160 46q0 9 4.5 13t14.5 4q2 0 13 -3q39 -12 79 -12q49 0 97 3t93 8 q42 143 77.5 275.5t68.5 260.5l73 289q0 1 -1 4q-3 8 -3 12q0 24 29 42t66 18q40 0 84.5 -31.5t44.5 -56.5q0 -4 -2 -8.5t-6 -11.5q-25 -82 -38.5 -222t-13.5 -324q0 -61 2 -120t7 -115q18 -1 35 -1.5t38 -0.5q44 0 91 4t50 4q11 0 16 -4t5 -12q0 -24 -59.5 -39.5 t-169.5 -20.5q30 -206 81 -324t109 -118q3 0 7.5 1.5t15.5 7.5q3 10 7.5 14.5t12.5 5.5q8 0 13 -7.5t5 -19.5q0 -18 -18.5 -29.5t-48.5 -11.5q-99 0 -192 134.5t-122 336.5q-18 0 -59 -1t-63 -1q-21 0 -63.5 1t-63.5 1q-95 -311 -237.5 -452.5t-358.5 -141.5 q-194 0 -317.5 118.5t-123.5 303.5zM1118 498l215 4q-5 70 -7.5 134t-2.5 118q0 210 24 430q5 43 5 51q0 9 -2.5 15.5t-6.5 6.5q-30 0 -150 -470q-47 -182 -75 -289zM1180 1608q0 11 71 84t127 168q8 7 16 10.5t19 3.5q9 0 15 -2t14 -8q52 -103 122 -168.5t70 -71.5 q0 -16 -12.5 -25.5t-34.5 -9.5q-40 0 -87.5 46t-94.5 131q-54 -99 -97 -141t-91 -42q-15 1 -26 8.5t-11 16.5z" />
<glyph unicode="&#xc3;" horiz-adv-x="1778" d="M57 256q0 115 44.5 205t95.5 90q9 0 15.5 -6.5t6.5 -16.5q0 -17 -11 -29t-34 -20q-37 -35 -56.5 -99t-19.5 -153q0 -137 105.5 -226t269.5 -89q211 0 352.5 126t226.5 392q-43 3 -114 7q-160 8 -160 46q0 9 4.5 13t14.5 4q2 0 13 -3q39 -12 79 -12q49 0 97 3t93 8 q42 143 77.5 275.5t68.5 260.5l73 289q0 1 -1 4q-3 8 -3 12q0 24 29 42t66 18q40 0 84.5 -31.5t44.5 -56.5q0 -4 -2 -8.5t-6 -11.5q-25 -82 -38.5 -222t-13.5 -324q0 -61 2 -120t7 -115q18 -1 35 -1.5t38 -0.5q44 0 91 4t50 4q11 0 16 -4t5 -12q0 -24 -59.5 -39.5 t-169.5 -20.5q30 -206 81 -324t109 -118q3 0 7.5 1.5t15.5 7.5q3 10 7.5 14.5t12.5 5.5q8 0 13 -7.5t5 -19.5q0 -18 -18.5 -29.5t-48.5 -11.5q-99 0 -192 134.5t-122 336.5q-18 0 -59 -1t-63 -1q-21 0 -63.5 1t-63.5 1q-95 -311 -237.5 -452.5t-358.5 -141.5 q-194 0 -317.5 118.5t-123.5 303.5zM1118 498l215 4q-5 70 -7.5 134t-2.5 118q0 210 24 430q5 43 5 51q0 9 -2.5 15.5t-6.5 6.5q-30 0 -150 -470q-47 -182 -75 -289zM1192 1657q0 42 36.5 91.5t80.5 49.5q13 0 33 -5t42 -15l62 -27q26 -11 46 -17.5t30 -6.5q27 0 52 32.5 t36 32.5q5 0 8.5 -5t3.5 -13q0 -42 -36 -93t-81 -51q-15 0 -35 5.5t-43 15.5l-61 27q-26 11 -45.5 17.5t-28.5 6.5q-27 0 -53 -32.5t-35 -32.5q-5 0 -8.5 5.5t-3.5 14.5z" />
<glyph unicode="&#xc4;" horiz-adv-x="1778" d="M57 256q0 115 44.5 205t95.5 90q9 0 15.5 -6.5t6.5 -16.5q0 -17 -11 -29t-34 -20q-37 -35 -56.5 -99t-19.5 -153q0 -137 105.5 -226t269.5 -89q211 0 352.5 126t226.5 392q-43 3 -114 7q-160 8 -160 46q0 9 4.5 13t14.5 4q2 0 13 -3q39 -12 79 -12q49 0 97 3t93 8 q42 143 77.5 275.5t68.5 260.5l73 289q0 1 -1 4q-3 8 -3 12q0 24 29 42t66 18q40 0 84.5 -31.5t44.5 -56.5q0 -4 -2 -8.5t-6 -11.5q-25 -82 -38.5 -222t-13.5 -324q0 -61 2 -120t7 -115q18 -1 35 -1.5t38 -0.5q44 0 91 4t50 4q11 0 16 -4t5 -12q0 -24 -59.5 -39.5 t-169.5 -20.5q30 -206 81 -324t109 -118q3 0 7.5 1.5t15.5 7.5q3 10 7.5 14.5t12.5 5.5q8 0 13 -7.5t5 -19.5q0 -18 -18.5 -29.5t-48.5 -11.5q-99 0 -192 134.5t-122 336.5q-18 0 -59 -1t-63 -1q-21 0 -63.5 1t-63.5 1q-95 -311 -237.5 -452.5t-358.5 -141.5 q-194 0 -317.5 118.5t-123.5 303.5zM1118 498l215 4q-5 70 -7.5 134t-2.5 118q0 210 24 430q5 43 5 51q0 9 -2.5 15.5t-6.5 6.5q-30 0 -150 -470q-47 -182 -75 -289zM1208 1698q0 33 19 53.5t49 20.5q35 0 55.5 -21t20.5 -55q0 -31 -20.5 -49.5t-55.5 -18.5q-32 0 -50 18.5 t-18 51.5zM1460 1698q0 33 19 53.5t49 20.5q35 0 55.5 -21t20.5 -55q0 -31 -20.5 -49.5t-55.5 -18.5q-32 0 -50 18.5t-18 51.5z" />
<glyph unicode="&#xc5;" horiz-adv-x="1778" d="M57 256q0 115 44.5 205t95.5 90q9 0 15.5 -6.5t6.5 -16.5q0 -17 -11 -29t-34 -20q-37 -35 -56.5 -99t-19.5 -153q0 -137 105.5 -226t269.5 -89q211 0 352.5 126t226.5 392q-43 3 -114 7q-160 8 -160 46q0 9 4.5 13t14.5 4q2 0 13 -3q39 -12 79 -12q49 0 97 3t93 8 q42 143 77.5 275.5t68.5 260.5l73 289q0 1 -1 4q-3 8 -3 12q0 24 29 42t66 18q40 0 84.5 -31.5t44.5 -56.5q0 -4 -2 -8.5t-6 -11.5q-25 -82 -38.5 -222t-13.5 -324q0 -61 2 -120t7 -115q18 -1 35 -1.5t38 -0.5q44 0 91 4t50 4q11 0 16 -4t5 -12q0 -24 -59.5 -39.5 t-169.5 -20.5q30 -206 81 -324t109 -118q3 0 7.5 1.5t15.5 7.5q3 10 7.5 14.5t12.5 5.5q8 0 13 -7.5t5 -19.5q0 -18 -18.5 -29.5t-48.5 -11.5q-99 0 -192 134.5t-122 336.5q-18 0 -59 -1t-63 -1q-21 0 -63.5 1t-63.5 1q-95 -311 -237.5 -452.5t-358.5 -141.5 q-194 0 -317.5 118.5t-123.5 303.5zM1118 498l215 4q-5 70 -7.5 134t-2.5 118q0 210 24 430q5 43 5 51q0 9 -2.5 15.5t-6.5 6.5q-30 0 -150 -470q-47 -182 -75 -289zM1251 1651q0 76 52.5 128t128.5 52t128 -52t52 -128t-52.5 -128.5t-127.5 -52.5q-76 0 -128.5 52.5 t-52.5 128.5zM1319 1651q0 -48 32.5 -80.5t80.5 -32.5q47 0 79.5 32.5t32.5 80.5q0 46 -32.5 79t-79.5 33t-80 -33t-33 -79z" />
<glyph unicode="&#xc6;" horiz-adv-x="2593" d="M61 242q0 124 45 216.5t97 92.5q10 0 16 -6.5t6 -16.5q0 -17 -11 -29t-34 -20q-38 -36 -58 -100.5t-20 -151.5q0 -135 89.5 -225t230.5 -90q173 0 290 129t181 389q-44 3 -116 7q-163 8 -163 46q1 10 5 13.5t14 3.5q2 0 13 -3q39 -12 79 -12q37 0 83 2.5t101 8.5 q42 143 77.5 275.5t68.5 260.5l73 289q0 1 -1 4q-3 8 -3 12q0 24 30 42t67 18q40 0 84.5 -31.5t44.5 -56.5q0 -3 -8 -17q-2 -3 -3 -4q-24 -81 -37.5 -221t-13.5 -324q0 -47 2.5 -105t8.5 -130q18 -1 35 -1.5t38 -0.5q44 0 91 4t50 4q10 0 14.5 -4t4.5 -12q0 -24 -59 -39.5 t-168 -20.5q6 -84 20.5 -148.5t38.5 -113.5q12 117 141 192t391 117q-212 35 -331 136t-119 245q0 94 55 195t164 209q84 82 147.5 122t110.5 40q40 0 102 -23t138 -66q61 -34 110 -72.5t82 -76.5q46 -55 71 -139t25 -181v-49q3 -6 4 -12t1 -14q0 -27 -33 -51.5t-62 -24.5 q-31 0 -50 11.5t-19 31.5q0 11 1.5 18.5t4.5 14.5q5 46 6.5 67.5t1.5 38.5q0 198 -67 308t-187 110q-60 0 -124.5 -30t-125.5 -87q-98 -90 -154.5 -191t-56.5 -184q0 -146 106 -227t304 -86q94 10 163.5 16.5t90.5 6.5q28 0 42.5 -10t14.5 -29q0 -25 -32 -37t-97 -12 q-1 0 -58.5 1t-113.5 1h-78q-214 -34 -327 -110.5t-113 -188.5q0 -111 129.5 -178.5t347.5 -67.5q239 0 392 83t153 204q0 8 -3 27q-1 4 -1 5q-13 7 -20 14.5t-7 16.5q0 11 9.5 19t21.5 8q24 0 35.5 -20.5t11.5 -63.5q0 -145 -182.5 -255t-446.5 -110q-354 0 -540.5 145 t-218.5 445q-20 0 -60.5 -1t-60.5 -1q-21 0 -62 1t-61 1q-66 -303 -187 -448.5t-307 -145.5q-167 0 -271 112.5t-104 295.5zM950 498l213 4q-5 70 -7.5 134t-2.5 118q0 210 26 431q5 42 5 50q0 9 -3.5 15.5t-6.5 6.5q-30 0 -142 -442q-50 -198 -82 -317z" />
<glyph unicode="&#xc7;" horiz-adv-x="1133" d="M63 532q0 178 59 357.5t171 341.5q78 112 150 171.5t130 59.5q68 0 171.5 -40t170.5 -97q72 -60 106 -155t34 -238q0 -43 -3 -92t-10 -105v-6q0 -21 -22.5 -35t-56.5 -14q-33 0 -56.5 16.5t-23.5 36.5q0 8 11 38q5 13 7 20q8 78 11 122.5t3 79.5q0 176 -59.5 277.5 t-161.5 101.5q-68 0 -133.5 -52t-136.5 -165q-98 -156 -151.5 -346.5t-53.5 -380.5q0 -259 113.5 -402t318.5 -143q109 0 196.5 45.5t147.5 132.5q27 40 39.5 75.5t12.5 74.5l-1 9q-3 8 -4.5 14t-1.5 12q0 13 9.5 20.5t25.5 7.5q18 0 26.5 -11.5t8.5 -35.5 q0 -158 -139 -276.5t-340 -118.5h-25l-24 -117q21 9 38 13t35 4q62 0 100 -36.5t38 -94.5q0 -70 -50 -110t-139 -40q-71 0 -118.5 28.5t-47.5 69.5q0 8 8 14.5t19 6.5q2 0 27.5 -31t89.5 -31q53 0 82.5 23.5t29.5 65.5q0 29 -18 46t-51 17q-19 0 -41.5 -2t-26.5 -2 q-18 0 -25.5 7t-7.5 24q0 8 0.5 13.5t1.5 12.5l23 123q-220 34 -353 224.5t-133 471.5z" />
<glyph unicode="&#xc8;" horiz-adv-x="1331" d="M70 145q0 117 145.5 203t419.5 129q-213 34 -332 135t-119 246q0 94 55 195t164 209q85 82 148 121.5t111 39.5q40 0 102 -22.5t137 -65.5q64 -36 113.5 -74.5t79.5 -74.5q45 -55 70.5 -139t25.5 -181v-47q2 -6 3 -13t1 -15q0 -27 -33 -51.5t-61 -24.5q-32 0 -51 11.5 t-19 31.5q0 4 1.5 13t4.5 19q5 46 6.5 67.5t1.5 39.5q0 198 -67 308t-186 110q-61 0 -125 -30t-125 -87q-98 -90 -154.5 -191t-56.5 -184q0 -146 105.5 -227t303.5 -86q94 10 164 16t90 6q29 0 43.5 -9.5t14.5 -28.5q0 -25 -32 -37.5t-95 -12.5q-25 0 -66 1t-57 1h-129 q-211 -33 -320.5 -107.5t-109.5 -184.5q0 -113 137 -180.5t369 -67.5q218 0 361.5 82.5t143.5 199.5q0 10 -3 28q0 3 -1 5q-13 7 -19.5 14.5t-6.5 16.5q0 11 9 19t21 8q25 0 36 -20.5t11 -63.5q0 -145 -184 -255t-450 -110q-264 0 -430 89t-166 226zM565 1780q0 17 16 31 t32 14q28 0 72 -52t83 -81q32 -23 77.5 -46.5t45.5 -41.5q0 -9 -8 -16t-18 -7q-70 0 -185 78t-115 121z" />
<glyph unicode="&#xc9;" horiz-adv-x="1331" d="M70 145q0 117 145.5 203t419.5 129q-213 34 -332 135t-119 246q0 94 55 195t164 209q85 82 148 121.5t111 39.5q40 0 102 -22.5t137 -65.5q64 -36 113.5 -74.5t79.5 -74.5q45 -55 70.5 -139t25.5 -181v-47q2 -6 3 -13t1 -15q0 -27 -33 -51.5t-61 -24.5q-32 0 -51 11.5 t-19 31.5q0 4 1.5 13t4.5 19q5 46 6.5 67.5t1.5 39.5q0 198 -67 308t-186 110q-61 0 -125 -30t-125 -87q-98 -90 -154.5 -191t-56.5 -184q0 -146 105.5 -227t303.5 -86q94 10 164 16t90 6q29 0 43.5 -9.5t14.5 -28.5q0 -25 -32 -37.5t-95 -12.5q-25 0 -66 1t-57 1h-129 q-211 -33 -320.5 -107.5t-109.5 -184.5q0 -113 137 -180.5t369 -67.5q218 0 361.5 82.5t143.5 199.5q0 10 -3 28q0 3 -1 5q-13 7 -19.5 14.5t-6.5 16.5q0 11 9 19t21 8q25 0 36 -20.5t11 -63.5q0 -145 -184 -255t-450 -110q-264 0 -430 89t-166 226zM565 1602q0 21 43 43 q46 23 78 47q38 28 82 80.5t74 52.5q17 0 33 -14t16 -33q0 -41 -115.5 -119t-185.5 -78q-10 0 -17.5 7t-7.5 14z" />
<glyph unicode="&#xca;" horiz-adv-x="1331" d="M70 145q0 117 145.5 203t419.5 129q-213 34 -332 135t-119 246q0 94 55 195t164 209q85 82 148 121.5t111 39.5q40 0 102 -22.5t137 -65.5q64 -36 113.5 -74.5t79.5 -74.5q45 -55 70.5 -139t25.5 -181v-47q2 -6 3 -13t1 -15q0 -27 -33 -51.5t-61 -24.5q-32 0 -51 11.5 t-19 31.5q0 4 1.5 13t4.5 19q5 46 6.5 67.5t1.5 39.5q0 198 -67 308t-186 110q-61 0 -125 -30t-125 -87q-98 -90 -154.5 -191t-56.5 -184q0 -146 105.5 -227t303.5 -86q94 10 164 16t90 6q29 0 43.5 -9.5t14.5 -28.5q0 -25 -32 -37.5t-95 -12.5q-25 0 -66 1t-57 1h-129 q-211 -33 -320.5 -107.5t-109.5 -184.5q0 -113 137 -180.5t369 -67.5q218 0 361.5 82.5t143.5 199.5q0 10 -3 28q0 3 -1 5q-13 7 -19.5 14.5t-6.5 16.5q0 11 9 19t21 8q25 0 36 -20.5t11 -63.5q0 -145 -184 -255t-450 -110q-264 0 -430 89t-166 226zM488 1608q0 11 71 84 t127 168q8 7 16 10.5t19 3.5q9 0 15 -2t14 -8q52 -103 122 -168.5t70 -71.5q0 -16 -12.5 -25.5t-34.5 -9.5q-40 0 -87.5 46t-94.5 131q-54 -99 -97 -141t-91 -42q-15 1 -26 8.5t-11 16.5z" />
<glyph unicode="&#xcb;" horiz-adv-x="1331" d="M70 145q0 117 145.5 203t419.5 129q-213 34 -332 135t-119 246q0 94 55 195t164 209q85 82 148 121.5t111 39.5q40 0 102 -22.5t137 -65.5q64 -36 113.5 -74.5t79.5 -74.5q45 -55 70.5 -139t25.5 -181v-47q2 -6 3 -13t1 -15q0 -27 -33 -51.5t-61 -24.5q-32 0 -51 11.5 t-19 31.5q0 4 1.5 13t4.5 19q5 46 6.5 67.5t1.5 39.5q0 198 -67 308t-186 110q-61 0 -125 -30t-125 -87q-98 -90 -154.5 -191t-56.5 -184q0 -146 105.5 -227t303.5 -86q94 10 164 16t90 6q29 0 43.5 -9.5t14.5 -28.5q0 -25 -32 -37.5t-95 -12.5q-25 0 -66 1t-57 1h-129 q-211 -33 -320.5 -107.5t-109.5 -184.5q0 -113 137 -180.5t369 -67.5q218 0 361.5 82.5t143.5 199.5q0 10 -3 28q0 3 -1 5q-13 7 -19.5 14.5t-6.5 16.5q0 11 9 19t21 8q25 0 36 -20.5t11 -63.5q0 -145 -184 -255t-450 -110q-264 0 -430 89t-166 226zM516 1698q0 33 19 53.5 t49 20.5q35 0 55.5 -21t20.5 -55q0 -31 -20.5 -49.5t-55.5 -18.5q-32 0 -50 18.5t-18 51.5zM768 1698q0 33 19 53.5t49 20.5q35 0 55.5 -21t20.5 -55q0 -31 -20.5 -49.5t-55.5 -18.5q-32 0 -50 18.5t-18 51.5z" />
<glyph unicode="&#xcc;" horiz-adv-x="1165" d="M37 319q0 60 16.5 95t44.5 35q14 0 23.5 -9.5t9.5 -23.5q0 -8 -4 -14t-16 -15q-9 -22 -13 -44t-4 -46q0 -142 89.5 -225.5t240.5 -83.5q145 0 257.5 98.5t178.5 286.5q-29 -3 -52 -4.5t-36 -1.5q-186 0 -299 121t-113 323q0 122 42.5 267.5t115.5 271.5 q52 89 111.5 136.5t120.5 47.5q135 0 227 -225.5t92 -579.5q0 -64 -6.5 -128.5t-20.5 -129.5q76 29 94 73t27 44q10 0 17.5 -9.5t7.5 -23.5q0 -37 -41 -72t-121 -67q-67 -238 -209 -364t-342 -126q-196 0 -317 109t-121 284zM461 866q0 -211 90.5 -331.5t247.5 -120.5 q9 0 36 3t41 5q30 106 45 229.5t15 263.5q0 273 -51 426.5t-140 153.5q-109 0 -196.5 -189t-87.5 -440zM581 1780q0 17 16 31t32 14q28 0 72 -52t83 -81q32 -23 77.5 -46.5t45.5 -41.5q0 -9 -8 -16t-18 -7q-70 0 -185 78t-115 121z" />
<glyph unicode="&#xcd;" horiz-adv-x="1165" d="M37 319q0 60 16.5 95t44.5 35q14 0 23.5 -9.5t9.5 -23.5q0 -8 -4 -14t-16 -15q-9 -22 -13 -44t-4 -46q0 -142 89.5 -225.5t240.5 -83.5q145 0 257.5 98.5t178.5 286.5q-29 -3 -52 -4.5t-36 -1.5q-186 0 -299 121t-113 323q0 122 42.5 267.5t115.5 271.5 q52 89 111.5 136.5t120.5 47.5q135 0 227 -225.5t92 -579.5q0 -64 -6.5 -128.5t-20.5 -129.5q76 29 94 73t27 44q10 0 17.5 -9.5t7.5 -23.5q0 -37 -41 -72t-121 -67q-67 -238 -209 -364t-342 -126q-196 0 -317 109t-121 284zM461 866q0 -211 90.5 -331.5t247.5 -120.5 q9 0 36 3t41 5q30 106 45 229.5t15 263.5q0 273 -51 426.5t-140 153.5q-109 0 -196.5 -189t-87.5 -440zM581 1602q0 21 43 43q46 23 78 47q38 28 82 80.5t74 52.5q17 0 33 -14t16 -33q0 -41 -115.5 -119t-185.5 -78q-10 0 -17.5 7t-7.5 14z" />
<glyph unicode="&#xce;" horiz-adv-x="1165" d="M37 319q0 60 16.5 95t44.5 35q14 0 23.5 -9.5t9.5 -23.5q0 -8 -4 -14t-16 -15q-9 -22 -13 -44t-4 -46q0 -142 89.5 -225.5t240.5 -83.5q145 0 257.5 98.5t178.5 286.5q-29 -3 -52 -4.5t-36 -1.5q-186 0 -299 121t-113 323q0 122 42.5 267.5t115.5 271.5 q52 89 111.5 136.5t120.5 47.5q135 0 227 -225.5t92 -579.5q0 -64 -6.5 -128.5t-20.5 -129.5q76 29 94 73t27 44q10 0 17.5 -9.5t7.5 -23.5q0 -37 -41 -72t-121 -67q-67 -238 -209 -364t-342 -126q-196 0 -317 109t-121 284zM461 866q0 -211 90.5 -331.5t247.5 -120.5 q9 0 36 3t41 5q30 106 45 229.5t15 263.5q0 273 -51 426.5t-140 153.5q-109 0 -196.5 -189t-87.5 -440zM504 1608q0 11 71 84t127 168q8 7 16 10.5t19 3.5q9 0 15 -2t14 -8q52 -103 122 -168.5t70 -71.5q0 -16 -12.5 -25.5t-34.5 -9.5q-40 0 -87.5 46t-94.5 131 q-54 -99 -97 -141t-91 -42q-15 1 -26 8.5t-11 16.5z" />
<glyph unicode="&#xcf;" horiz-adv-x="1165" d="M37 319q0 60 16.5 95t44.5 35q14 0 23.5 -9.5t9.5 -23.5q0 -8 -4 -14t-16 -15q-9 -22 -13 -44t-4 -46q0 -142 89.5 -225.5t240.5 -83.5q145 0 257.5 98.5t178.5 286.5q-29 -3 -52 -4.5t-36 -1.5q-186 0 -299 121t-113 323q0 122 42.5 267.5t115.5 271.5 q52 89 111.5 136.5t120.5 47.5q135 0 227 -225.5t92 -579.5q0 -64 -6.5 -128.5t-20.5 -129.5q76 29 94 73t27 44q10 0 17.5 -9.5t7.5 -23.5q0 -37 -41 -72t-121 -67q-67 -238 -209 -364t-342 -126q-196 0 -317 109t-121 284zM461 866q0 -211 90.5 -331.5t247.5 -120.5 q9 0 36 3t41 5q30 106 45 229.5t15 263.5q0 273 -51 426.5t-140 153.5q-109 0 -196.5 -189t-87.5 -440zM532 1698q0 33 19 53.5t49 20.5q35 0 55.5 -21t20.5 -55q0 -31 -20.5 -49.5t-55.5 -18.5q-32 0 -50 18.5t-18 51.5zM784 1698q0 33 19 53.5t49 20.5q35 0 55.5 -21 t20.5 -55q0 -31 -20.5 -49.5t-55.5 -18.5q-32 0 -50 18.5t-18 51.5z" />
<glyph unicode="&#xd0;" horiz-adv-x="1821" d="M59 750q0 101 45.5 197.5t126.5 168.5q134 120 312.5 184t380.5 64q179 0 328.5 -53t267.5 -158q127 -115 194.5 -266.5t67.5 -323.5q0 -167 -68.5 -308t-202.5 -249q-78 -63 -162.5 -95t-174.5 -32q-69 0 -124 19.5t-94 56.5q-18 -15 -37 -22t-40 -7q-37 0 -59.5 15.5 t-28.5 43.5q3 15 4.5 29.5t1.5 28.5q0 19 -2 65.5t-2 73.5q0 47 4.5 152.5t13.5 273.5q-54 4 -138 8q-190 10 -190 50q0 9 4.5 12.5t20.5 3.5q1 0 10 -1q91 -11 211 -11q13 0 43 1t47 1q10 150 29.5 305t19.5 168v5q9 17 23.5 25.5t36.5 8.5q27 0 53 -12.5t45 -34.5v-17 q-23 -33 -40 -139t-30 -305l111 6q76 4 156 10t86 6q12 0 18 -5t6 -15q0 -30 -86 -45.5t-295 -22.5q-4 -69 -6 -135.5t-2 -130.5q0 -72 5 -152t16 -172q2 1 6 2q10 3 12 3q23 -1 32 -25q5 -13 9 -18q17 -26 65 -44t105 -18q186 0 313 168t127 424q0 347 -212.5 550.5 t-575.5 203.5q-318 0 -530 -147.5t-212 -362.5q0 -147 105.5 -233.5t282.5 -86.5q89 0 124 25.5l35 25.5q15 0 21.5 -6t7.5 -20q0 -41 -54 -67.5t-141 -26.5q-188 0 -307 106.5t-119 276.5z" />
<glyph unicode="&#xd1;" horiz-adv-x="1858" d="M33 260q0 122 56.5 212.5t115.5 90.5q12 0 20 -7t8 -17q0 -15 -11.5 -21t-39.5 -6q-57 -40 -85.5 -100t-28.5 -138q0 -153 109.5 -247.5t289.5 -94.5q311 0 469 318.5t158 945.5q0 23 -4 77q0 7 -1 12q-2 5 -3 10t-1 12q0 15 14.5 24.5t37.5 9.5q52 0 106.5 -35t54.5 -57 q0 -4 -3 -10.5t-9 -13.5v-37q0 -168 26 -354t79 -402q61 -252 112 -361.5t105 -109.5q44 0 64 59.5t20 190.5q0 149 -11.5 351.5t-11.5 254.5q0 236 53 411t111 175q17 0 26 -7.5t9 -21.5q0 -9 -10.5 -16.5t-27.5 -10.5q-48 -30 -67.5 -110t-19.5 -283q0 -120 11 -312.5 t11 -264.5q0 -234 -40 -342.5t-126 -108.5q-156 0 -288.5 337t-169.5 870q-41 -416 -74 -601.5t-78 -295.5q-82 -198 -215 -298t-313 -100q-185 0 -306.5 119t-121.5 303zM1237 1657q0 42 36.5 91.5t80.5 49.5q13 0 33 -5t42 -15l62 -27q26 -11 46 -17.5t30 -6.5 q27 0 52 32.5t36 32.5q5 0 8.5 -5t3.5 -13q0 -42 -36 -93t-81 -51q-15 0 -35 5.5t-43 15.5l-61 27q-26 11 -45.5 17.5t-28.5 6.5q-27 0 -53 -32.5t-35 -32.5q-5 0 -8.5 5.5t-3.5 14.5z" />
<glyph unicode="&#xd2;" horiz-adv-x="1313" d="M63 606q0 280 130.5 520t359.5 379q36 8 53 10.5t31 2.5h12q106 -29 176 -63t70 -54q0 -10 -6.5 -18.5t-14.5 -8.5l-44.5 23.5t-92.5 23.5q-63 0 -135.5 -45.5t-142.5 -130.5q-114 -139 -174 -312t-60 -366q0 -297 120.5 -452.5t350.5 -155.5q225 0 355.5 173t130.5 472 q0 295 -101 476.5t-262 181.5q-142 0 -240 -150t-98 -367q0 -135 55.5 -208.5t155.5 -73.5q33 0 59 13t27 13q10 0 18.5 -8.5t8.5 -19.5q0 -21 -26.5 -35t-67.5 -14q-125 0 -204 102t-79 268q0 227 120 393t286 166q198 0 318 -180t120 -481q0 -343 -162.5 -550.5 t-431.5 -207.5q-142 0 -243 42.5t-187 137.5q-94 104 -139.5 228.5t-45.5 275.5zM565 1780q0 17 16 31t32 14q28 0 72 -52t83 -81q32 -23 77.5 -46.5t45.5 -41.5q0 -9 -8 -16t-18 -7q-70 0 -185 78t-115 121z" />
<glyph unicode="&#xd3;" horiz-adv-x="1313" d="M63 606q0 280 130.5 520t359.5 379q36 8 53 10.5t31 2.5h12q106 -29 176 -63t70 -54q0 -10 -6.5 -18.5t-14.5 -8.5l-44.5 23.5t-92.5 23.5q-63 0 -135.5 -45.5t-142.5 -130.5q-114 -139 -174 -312t-60 -366q0 -297 120.5 -452.5t350.5 -155.5q225 0 355.5 173t130.5 472 q0 295 -101 476.5t-262 181.5q-142 0 -240 -150t-98 -367q0 -135 55.5 -208.5t155.5 -73.5q33 0 59 13t27 13q10 0 18.5 -8.5t8.5 -19.5q0 -21 -26.5 -35t-67.5 -14q-125 0 -204 102t-79 268q0 227 120 393t286 166q198 0 318 -180t120 -481q0 -343 -162.5 -550.5 t-431.5 -207.5q-142 0 -243 42.5t-187 137.5q-94 104 -139.5 228.5t-45.5 275.5zM565 1602q0 21 43 43q46 23 78 47q38 28 82 80.5t74 52.5q17 0 33 -14t16 -33q0 -41 -115.5 -119t-185.5 -78q-10 0 -17.5 7t-7.5 14z" />
<glyph unicode="&#xd4;" horiz-adv-x="1313" d="M63 606q0 280 130.5 520t359.5 379q36 8 53 10.5t31 2.5h12q106 -29 176 -63t70 -54q0 -10 -6.5 -18.5t-14.5 -8.5l-44.5 23.5t-92.5 23.5q-63 0 -135.5 -45.5t-142.5 -130.5q-114 -139 -174 -312t-60 -366q0 -297 120.5 -452.5t350.5 -155.5q225 0 355.5 173t130.5 472 q0 295 -101 476.5t-262 181.5q-142 0 -240 -150t-98 -367q0 -135 55.5 -208.5t155.5 -73.5q33 0 59 13t27 13q10 0 18.5 -8.5t8.5 -19.5q0 -21 -26.5 -35t-67.5 -14q-125 0 -204 102t-79 268q0 227 120 393t286 166q198 0 318 -180t120 -481q0 -343 -162.5 -550.5 t-431.5 -207.5q-142 0 -243 42.5t-187 137.5q-94 104 -139.5 228.5t-45.5 275.5zM488 1608q0 11 71 84t127 168q8 7 16 10.5t19 3.5q9 0 15 -2t14 -8q52 -103 122 -168.5t70 -71.5q0 -16 -12.5 -25.5t-34.5 -9.5q-40 0 -87.5 46t-94.5 131q-54 -99 -97 -141t-91 -42 q-15 1 -26 8.5t-11 16.5z" />
<glyph unicode="&#xd5;" horiz-adv-x="1313" d="M63 606q0 280 130.5 520t359.5 379q36 8 53 10.5t31 2.5h12q106 -29 176 -63t70 -54q0 -10 -6.5 -18.5t-14.5 -8.5l-44.5 23.5t-92.5 23.5q-63 0 -135.5 -45.5t-142.5 -130.5q-114 -139 -174 -312t-60 -366q0 -297 120.5 -452.5t350.5 -155.5q225 0 355.5 173t130.5 472 q0 295 -101 476.5t-262 181.5q-142 0 -240 -150t-98 -367q0 -135 55.5 -208.5t155.5 -73.5q33 0 59 13t27 13q10 0 18.5 -8.5t8.5 -19.5q0 -21 -26.5 -35t-67.5 -14q-125 0 -204 102t-79 268q0 227 120 393t286 166q198 0 318 -180t120 -481q0 -343 -162.5 -550.5 t-431.5 -207.5q-142 0 -243 42.5t-187 137.5q-94 104 -139.5 228.5t-45.5 275.5zM500 1657q0 42 36.5 91.5t80.5 49.5q13 0 33 -5t42 -15l62 -27q26 -11 46 -17.5t30 -6.5q27 0 52 32.5t36 32.5q5 0 8.5 -5t3.5 -13q0 -42 -36 -93t-81 -51q-15 0 -35 5.5t-43 15.5l-61 27 q-26 11 -45.5 17.5t-28.5 6.5q-27 0 -53 -32.5t-35 -32.5q-5 0 -8.5 5.5t-3.5 14.5z" />
<glyph unicode="&#xd6;" horiz-adv-x="1313" d="M63 606q0 280 130.5 520t359.5 379q36 8 53 10.5t31 2.5h12q106 -29 176 -63t70 -54q0 -10 -6.5 -18.5t-14.5 -8.5l-44.5 23.5t-92.5 23.5q-63 0 -135.5 -45.5t-142.5 -130.5q-114 -139 -174 -312t-60 -366q0 -297 120.5 -452.5t350.5 -155.5q225 0 355.5 173t130.5 472 q0 295 -101 476.5t-262 181.5q-142 0 -240 -150t-98 -367q0 -135 55.5 -208.5t155.5 -73.5q33 0 59 13t27 13q10 0 18.5 -8.5t8.5 -19.5q0 -21 -26.5 -35t-67.5 -14q-125 0 -204 102t-79 268q0 227 120 393t286 166q198 0 318 -180t120 -481q0 -343 -162.5 -550.5 t-431.5 -207.5q-142 0 -243 42.5t-187 137.5q-94 104 -139.5 228.5t-45.5 275.5zM516 1698q0 33 19 53.5t49 20.5q35 0 55.5 -21t20.5 -55q0 -31 -20.5 -49.5t-55.5 -18.5q-32 0 -50 18.5t-18 51.5zM768 1698q0 33 19 53.5t49 20.5q35 0 55.5 -21t20.5 -55 q0 -31 -20.5 -49.5t-55.5 -18.5q-32 0 -50 18.5t-18 51.5z" />
<glyph unicode="&#xd7;" horiz-adv-x="1706" d="M305 129l481 481l-481 484l70 67l481 -481l481 481l70 -67l-481 -484l481 -481l-70 -68l-481 482l-481 -482z" />
<glyph unicode="&#xd8;" horiz-adv-x="1313" d="M63 608q0 279 130.5 518.5t359.5 378.5q36 8 53 10.5t31 2.5h12q106 -29 176 -63t70 -54q0 -10 -6.5 -18.5t-14.5 -8.5l-44.5 23.5t-92.5 23.5q-63 0 -134.5 -45t-143.5 -131q-114 -137 -174 -311.5t-60 -370.5q0 -163 36.5 -286t100.5 -183q56 108 101 199t84 174 q-61 49 -90 123t-29 182q0 239 119.5 404t294.5 165q22 0 45.5 -3.5t50.5 -12.5q28 58 50 112t38 105q3 24 15 38.5t28 14.5q20 0 39.5 -24t19.5 -49q0 -9 -4 -17t-18 -24q-19 -43 -40.5 -88t-49.5 -99q122 -69 189 -228.5t67 -385.5q0 -341 -164.5 -549.5t-429.5 -208.5 q-102 0 -178 18.5t-135 57.5q-62 -120 -100.5 -177t-57.5 -57q-8 1 -12 5.5t-5 13.5q0 2 47 79.5t91 162.5q-132 105 -198.5 251.5t-66.5 331.5zM397 53q73 -51 141.5 -72.5t157.5 -21.5q225 0 355.5 172t130.5 471q0 210 -55 370t-152 234q-89 -199 -177.5 -380 t-178.5 -351q5 -1 17 -4q33 -8 54 -8q31 0 59 13t29 13q11 0 19 -8t8 -20q0 -21 -26.5 -35t-67.5 -14q-30 0 -57 6.5t-54 19.5q-42 -85 -91.5 -178.5t-111.5 -206.5zM481 750q0 -98 21.5 -156t66.5 -86q78 163 161 346t173 391q-25 9 -44 13t-38 4q-143 0 -241.5 -148 t-98.5 -364z" />
<glyph unicode="&#xd9;" horiz-adv-x="1796" d="M33 723q0 111 63.5 229t184.5 230q101 93 202 140.5t199 47.5q163 0 254.5 -111t91.5 -311q0 -98 -33.5 -325.5t-33.5 -356.5q0 -178 45.5 -270t134.5 -92q159 0 245.5 302t129.5 1031q-1 2 -2 5q-7 19 -7 28q0 27 22.5 44t57.5 17q46 0 84.5 -21t38.5 -46q0 -7 -4 -15 t-12 -18q-30 -89 -50 -282t-20 -421q0 -249 38.5 -411t92.5 -162q20 0 28 21.5t19 21.5q10 0 16.5 -7.5t6.5 -19.5q0 -25 -21 -41t-55 -16q-109 0 -180.5 133.5t-71.5 351.5q0 27 3 101q1 18 1 26q-76 -393 -156.5 -528t-220.5 -135q-138 0 -226.5 120.5t-88.5 311.5 q0 108 34 328t34 331q0 157 -56 234.5t-170 77.5q-90 0 -187.5 -47t-189.5 -134q-96 -91 -150 -188.5t-54 -179.5q0 -135 112 -211t314 -76q77 0 102 6t39 21q3 11 7 15.5t11 4.5q11 0 19 -8t8 -20q0 -32 -49 -55t-121 -23q-221 0 -350 94.5t-129 257.5zM1087 1780 q0 17 16 31t32 14q28 0 72 -52t83 -81q32 -23 77.5 -46.5t45.5 -41.5q0 -9 -8 -16t-18 -7q-70 0 -185 78t-115 121z" />
<glyph unicode="&#xda;" horiz-adv-x="1796" d="M33 723q0 111 63.5 229t184.5 230q101 93 202 140.5t199 47.5q163 0 254.5 -111t91.5 -311q0 -98 -33.5 -325.5t-33.5 -356.5q0 -178 45.5 -270t134.5 -92q159 0 245.5 302t129.5 1031q-1 2 -2 5q-7 19 -7 28q0 27 22.5 44t57.5 17q46 0 84.5 -21t38.5 -46q0 -7 -4 -15 t-12 -18q-30 -89 -50 -282t-20 -421q0 -249 38.5 -411t92.5 -162q20 0 28 21.5t19 21.5q10 0 16.5 -7.5t6.5 -19.5q0 -25 -21 -41t-55 -16q-109 0 -180.5 133.5t-71.5 351.5q0 27 3 101q1 18 1 26q-76 -393 -156.5 -528t-220.5 -135q-138 0 -226.5 120.5t-88.5 311.5 q0 108 34 328t34 331q0 157 -56 234.5t-170 77.5q-90 0 -187.5 -47t-189.5 -134q-96 -91 -150 -188.5t-54 -179.5q0 -135 112 -211t314 -76q77 0 102 6t39 21q3 11 7 15.5t11 4.5q11 0 19 -8t8 -20q0 -32 -49 -55t-121 -23q-221 0 -350 94.5t-129 257.5zM1087 1602 q0 21 43 43q46 23 78 47q38 28 82 80.5t74 52.5q17 0 33 -14t16 -33q0 -41 -115.5 -119t-185.5 -78q-10 0 -17.5 7t-7.5 14z" />
<glyph unicode="&#xdb;" horiz-adv-x="1796" d="M33 723q0 111 63.5 229t184.5 230q101 93 202 140.5t199 47.5q163 0 254.5 -111t91.5 -311q0 -98 -33.5 -325.5t-33.5 -356.5q0 -178 45.5 -270t134.5 -92q159 0 245.5 302t129.5 1031q-1 2 -2 5q-7 19 -7 28q0 27 22.5 44t57.5 17q46 0 84.5 -21t38.5 -46q0 -7 -4 -15 t-12 -18q-30 -89 -50 -282t-20 -421q0 -249 38.5 -411t92.5 -162q20 0 28 21.5t19 21.5q10 0 16.5 -7.5t6.5 -19.5q0 -25 -21 -41t-55 -16q-109 0 -180.5 133.5t-71.5 351.5q0 27 3 101q1 18 1 26q-76 -393 -156.5 -528t-220.5 -135q-138 0 -226.5 120.5t-88.5 311.5 q0 108 34 328t34 331q0 157 -56 234.5t-170 77.5q-90 0 -187.5 -47t-189.5 -134q-96 -91 -150 -188.5t-54 -179.5q0 -135 112 -211t314 -76q77 0 102 6t39 21q3 11 7 15.5t11 4.5q11 0 19 -8t8 -20q0 -32 -49 -55t-121 -23q-221 0 -350 94.5t-129 257.5zM1010 1608 q0 11 71 84t127 168q8 7 16 10.5t19 3.5q9 0 15 -2t14 -8q52 -103 122 -168.5t70 -71.5q0 -16 -12.5 -25.5t-34.5 -9.5q-40 0 -87.5 46t-94.5 131q-54 -99 -97 -141t-91 -42q-15 1 -26 8.5t-11 16.5z" />
<glyph unicode="&#xdc;" horiz-adv-x="1796" d="M33 723q0 111 63.5 229t184.5 230q101 93 202 140.5t199 47.5q163 0 254.5 -111t91.5 -311q0 -98 -33.5 -325.5t-33.5 -356.5q0 -178 45.5 -270t134.5 -92q159 0 245.5 302t129.5 1031q-1 2 -2 5q-7 19 -7 28q0 27 22.5 44t57.5 17q46 0 84.5 -21t38.5 -46q0 -7 -4 -15 t-12 -18q-30 -89 -50 -282t-20 -421q0 -249 38.5 -411t92.5 -162q20 0 28 21.5t19 21.5q10 0 16.5 -7.5t6.5 -19.5q0 -25 -21 -41t-55 -16q-109 0 -180.5 133.5t-71.5 351.5q0 27 3 101q1 18 1 26q-76 -393 -156.5 -528t-220.5 -135q-138 0 -226.5 120.5t-88.5 311.5 q0 108 34 328t34 331q0 157 -56 234.5t-170 77.5q-90 0 -187.5 -47t-189.5 -134q-96 -91 -150 -188.5t-54 -179.5q0 -135 112 -211t314 -76q77 0 102 6t39 21q3 11 7 15.5t11 4.5q11 0 19 -8t8 -20q0 -32 -49 -55t-121 -23q-221 0 -350 94.5t-129 257.5zM1038 1698 q0 33 19 53.5t49 20.5q35 0 55.5 -21t20.5 -55q0 -31 -20.5 -49.5t-55.5 -18.5q-32 0 -50 18.5t-18 51.5zM1290 1698q0 33 19 53.5t49 20.5q35 0 55.5 -21t20.5 -55q0 -31 -20.5 -49.5t-55.5 -18.5q-32 0 -50 18.5t-18 51.5z" />
<glyph unicode="&#xdd;" horiz-adv-x="1726" d="M33 723q0 87 42 184.5t124 200.5q103 129 219 194.5t241 65.5q174 0 263.5 -123.5t89.5 -363.5q0 -93 -25.5 -266.5t-25.5 -258.5q0 -149 47.5 -230t134.5 -81q159 0 257.5 326.5t98.5 873.5q-3 11 -4.5 19.5t-1.5 13.5q0 28 25.5 42.5t74.5 14.5q40 0 63 -16.5t23 -44.5 q0 -10 -4 -21.5t-12 -25.5q-23 -144 -34 -275.5t-11 -253.5q0 -123 13.5 -324t13.5 -280q0 -300 -140 -464.5t-395 -164.5q-193 0 -341 116.5t-148 242.5q0 22 9 34.5t23 12.5q9 0 15 -6t6 -15q0 -5 -3 -11.5t-9 -14.5q26 -128 131 -200.5t264 -72.5q127 0 222.5 49 t145.5 140q41 74 58.5 176.5t17.5 310.5q0 64 -2.5 185t-3.5 170q-70 -326 -164 -463t-241 -137q-114 0 -192.5 110t-78.5 275q0 76 24.5 257.5t24.5 286.5q0 179 -63.5 270t-190.5 91q-100 0 -201.5 -59.5t-199.5 -176.5q-70 -84 -105.5 -163t-35.5 -152q0 -138 111 -214.5 t313 -76.5q77 0 102 6t39 21q3 11 7 15.5t11 4.5q11 0 19 -8t8 -20q0 -32 -49 -55t-121 -23q-221 0 -350 94.5t-129 257.5zM1118 1438q0 21 45.5 43.5t77.5 46.5q38 28 81 80.5t73 52.5q16 0 32.5 -15t16.5 -34q0 -41 -115.5 -118t-185.5 -77q-10 0 -17.5 7t-7.5 14z" />
<glyph unicode="&#xde;" horiz-adv-x="1505" d="M113 705q0 194 192 338t494 169q15 77 25.5 147.5t17.5 137.5q-3 8 -3.5 11t-0.5 5q0 14 12.5 22.5t34.5 8.5q46 0 75 -22.5t29 -55.5q0 -4 -2.5 -8.5t-13.5 -15.5q-14 -48 -24 -105t-17 -128q242 -24 391.5 -157.5t149.5 -322.5q0 -184 -135.5 -314t-327.5 -130 q-61 0 -100 16t-56 47q2 -152 6.5 -242t12.5 -152q5 -12 7.5 -21t2.5 -15q0 -18 -20 -32.5t-48 -14.5q-41 0 -78 20t-37 39q0 4 5 19q2 7 4 13v87q0 28 -1 82t-1 82q0 184 19.5 420t57.5 501q-275 -3 -452.5 -124.5t-177.5 -300.5q0 -130 88.5 -206.5t238.5 -76.5 q39 0 68.5 7t50.5 22q5 11 10.5 15.5t14.5 4.5q7 0 10.5 -3.5t3.5 -10.5q0 -30 -51 -55t-121 -25q-155 0 -254.5 91t-99.5 233zM858 386q1 0 4 2q9 7 17 7q12 0 19.5 -11.5t8.5 -30.5q17 -20 44 -28t85 -8q135 0 222.5 97t87.5 254q0 180 -110.5 298.5t-315.5 157.5 q-29 -225 -44 -406t-18 -332z" />
<glyph unicode="&#xdf;" horiz-adv-x="764" d="M106 -330q0 914 67.5 1247.5t234.5 333.5q112 0 194 -119t82 -292q0 -138 -58.5 -229.5t-170.5 -129.5q136 -30 211 -96t75 -156q0 -104 -88.5 -180t-210.5 -76q-81 0 -128.5 30t-47.5 81q0 12 9 20.5t22 8.5q21 0 31 -39q2 -9 4 -15q15 -21 42 -33t62 -12q91 0 138 48 t47 141q0 110 -61 180t-154 70q-4 0 -28.5 -1t-46.5 -1q-7 4 -10 8.5t-4 11.5q0 13 5 24t16 21q3 1 7 1.5t11 0.5q10 0 25.5 -1t21.5 -1q91 0 142 67t51 189q0 203 -39.5 313.5t-110.5 110.5q-117 0 -176 -345t-59 -1029q0 -86 3.5 -157t10.5 -131q7 -8 9.5 -12.5t3.5 -10.5 q0 -9 -15.5 -17t-34.5 -8q-63 0 -77 33v26q0 4 -1 18q-3 56 -4 107z" />
<glyph unicode="&#xe0;" horiz-adv-x="807" d="M86 266q0 185 102 349.5t197 164.5h2q33 -7 59 -21.5t48 -35.5q33 -16 58 -42t46 -67l8 44q-1 3 -1.5 6t-0.5 8q0 14 12 21t35 7q36 0 64 -21t28 -46q0 -7 -2.5 -12.5t-11.5 -14.5q-28 -102 -42.5 -208.5t-14.5 -211.5q0 -99 12 -144.5t39 -45.5q5 0 10 2t10 6 q2 9 6 12.5t13 3.5q11 0 17.5 -6t6.5 -16q0 -16 -17 -27.5t-42 -11.5q-56 0 -96 47t-51 129q-53 -126 -112 -186t-132 -60q-103 0 -176.5 109t-73.5 268zM213 184q0 -119 38 -188.5t103 -69.5q50 0 89.5 43.5t68.5 128.5q31 92 50.5 215t19.5 219q0 61 -35.5 104.5 t-79.5 43.5q-92 0 -173 -152t-81 -344zM329 1063q0 17 16 31t32 14q28 0 72 -52t83 -81q32 -23 77.5 -46.5t45.5 -41.5q0 -9 -8 -16t-18 -7q-70 0 -185 78t-115 121z" />
<glyph unicode="&#xe1;" horiz-adv-x="807" d="M86 266q0 185 102 349.5t197 164.5h2q33 -7 59 -21.5t48 -35.5q33 -16 58 -42t46 -67l8 44q-1 3 -1.5 6t-0.5 8q0 14 12 21t35 7q36 0 64 -21t28 -46q0 -7 -2.5 -12.5t-11.5 -14.5q-28 -102 -42.5 -208.5t-14.5 -211.5q0 -99 12 -144.5t39 -45.5q5 0 10 2t10 6 q2 9 6 12.5t13 3.5q11 0 17.5 -6t6.5 -16q0 -16 -17 -27.5t-42 -11.5q-56 0 -96 47t-51 129q-53 -126 -112 -186t-132 -60q-103 0 -176.5 109t-73.5 268zM213 184q0 -119 38 -188.5t103 -69.5q50 0 89.5 43.5t68.5 128.5q31 92 50.5 215t19.5 219q0 61 -35.5 104.5 t-79.5 43.5q-92 0 -173 -152t-81 -344zM329 885q0 21 43 43q46 23 78 47q38 28 82 80.5t74 52.5q17 0 33 -14t16 -33q0 -41 -115.5 -119t-185.5 -78q-10 0 -17.5 7t-7.5 14z" />
<glyph unicode="&#xe2;" horiz-adv-x="807" d="M86 266q0 185 102 349.5t197 164.5h2q33 -7 59 -21.5t48 -35.5q33 -16 58 -42t46 -67l8 44q-1 3 -1.5 6t-0.5 8q0 14 12 21t35 7q36 0 64 -21t28 -46q0 -7 -2.5 -12.5t-11.5 -14.5q-28 -102 -42.5 -208.5t-14.5 -211.5q0 -99 12 -144.5t39 -45.5q5 0 10 2t10 6 q2 9 6 12.5t13 3.5q11 0 17.5 -6t6.5 -16q0 -16 -17 -27.5t-42 -11.5q-56 0 -96 47t-51 129q-53 -126 -112 -186t-132 -60q-103 0 -176.5 109t-73.5 268zM213 184q0 -119 38 -188.5t103 -69.5q50 0 89.5 43.5t68.5 128.5q31 92 50.5 215t19.5 219q0 61 -35.5 104.5 t-79.5 43.5q-92 0 -173 -152t-81 -344zM252 891q0 11 71 84t127 168q8 7 16 10.5t19 3.5q9 0 15 -2t14 -8q52 -103 122 -168.5t70 -71.5q0 -16 -12.5 -25.5t-34.5 -9.5q-40 0 -87.5 46t-94.5 131q-54 -99 -97 -141t-91 -42q-15 1 -26 8.5t-11 16.5z" />
<glyph unicode="&#xe3;" horiz-adv-x="807" d="M86 266q0 185 102 349.5t197 164.5h2q33 -7 59 -21.5t48 -35.5q33 -16 58 -42t46 -67l8 44q-1 3 -1.5 6t-0.5 8q0 14 12 21t35 7q36 0 64 -21t28 -46q0 -7 -2.5 -12.5t-11.5 -14.5q-28 -102 -42.5 -208.5t-14.5 -211.5q0 -99 12 -144.5t39 -45.5q5 0 10 2t10 6 q2 9 6 12.5t13 3.5q11 0 17.5 -6t6.5 -16q0 -16 -17 -27.5t-42 -11.5q-56 0 -96 47t-51 129q-53 -126 -112 -186t-132 -60q-103 0 -176.5 109t-73.5 268zM213 184q0 -119 38 -188.5t103 -69.5q50 0 89.5 43.5t68.5 128.5q31 92 50.5 215t19.5 219q0 61 -35.5 104.5 t-79.5 43.5q-92 0 -173 -152t-81 -344zM264 940q0 42 36.5 91.5t80.5 49.5q13 0 33 -5t42 -15l62 -27q26 -11 46 -17.5t30 -6.5q27 0 52 32.5t36 32.5q5 0 8.5 -5t3.5 -13q0 -42 -36 -93t-81 -51q-15 0 -35 5.5t-43 15.5l-61 27q-26 11 -45.5 17.5t-28.5 6.5 q-27 0 -53 -32.5t-35 -32.5q-5 0 -8.5 5.5t-3.5 14.5z" />
<glyph unicode="&#xe4;" horiz-adv-x="807" d="M86 266q0 185 102 349.5t197 164.5h2q33 -7 59 -21.5t48 -35.5q33 -16 58 -42t46 -67l8 44q-1 3 -1.5 6t-0.5 8q0 14 12 21t35 7q36 0 64 -21t28 -46q0 -7 -2.5 -12.5t-11.5 -14.5q-28 -102 -42.5 -208.5t-14.5 -211.5q0 -99 12 -144.5t39 -45.5q5 0 10 2t10 6 q2 9 6 12.5t13 3.5q11 0 17.5 -6t6.5 -16q0 -16 -17 -27.5t-42 -11.5q-56 0 -96 47t-51 129q-53 -126 -112 -186t-132 -60q-103 0 -176.5 109t-73.5 268zM213 184q0 -119 38 -188.5t103 -69.5q50 0 89.5 43.5t68.5 128.5q31 92 50.5 215t19.5 219q0 61 -35.5 104.5 t-79.5 43.5q-92 0 -173 -152t-81 -344zM280 981q0 33 19 53.5t49 20.5q35 0 55.5 -21t20.5 -55q0 -31 -20.5 -49.5t-55.5 -18.5q-32 0 -50 18.5t-18 51.5zM532 981q0 33 19 53.5t49 20.5q35 0 55.5 -21t20.5 -55q0 -31 -20.5 -49.5t-55.5 -18.5q-32 0 -50 18.5t-18 51.5z " />
<glyph unicode="&#xe5;" horiz-adv-x="807" d="M86 266q0 185 102 349.5t197 164.5h2q33 -7 59 -21.5t48 -35.5q33 -16 58 -42t46 -67l8 44q-1 3 -1.5 6t-0.5 8q0 14 12 21t35 7q36 0 64 -21t28 -46q0 -7 -2.5 -12.5t-11.5 -14.5q-28 -102 -42.5 -208.5t-14.5 -211.5q0 -99 12 -144.5t39 -45.5q5 0 10 2t10 6 q2 9 6 12.5t13 3.5q11 0 17.5 -6t6.5 -16q0 -16 -17 -27.5t-42 -11.5q-56 0 -96 47t-51 129q-53 -126 -112 -186t-132 -60q-103 0 -176.5 109t-73.5 268zM213 184q0 -119 38 -188.5t103 -69.5q50 0 89.5 43.5t68.5 128.5q31 92 50.5 215t19.5 219q0 61 -35.5 104.5 t-79.5 43.5q-92 0 -173 -152t-81 -344zM332 1018q0 76 52 128t128 52t128 -52t52 -128q0 -75 -52.5 -127.5t-127.5 -52.5t-127.5 52.5t-52.5 127.5zM399 1020q0 -48 33 -81.5t80 -33.5t80 33.5t33 81.5q0 46 -33 78t-80 32q-46 0 -79.5 -32t-33.5 -78z" />
<glyph unicode="&#xe6;" horiz-adv-x="991" d="M82 164q0 143 59.5 230t153.5 87q51 0 93.5 -9t75.5 -27q-4 146 -40 221t-102 75q-48 0 -73.5 -45.5t-25.5 -131.5q1 -4 1.5 -8t0.5 -11q0 -22 -15 -32.5t-44 -10.5q-20 0 -31.5 10t-11.5 27q0 56 12 101.5t33 66.5q29 30 89.5 55.5t104.5 25.5q51 0 99.5 -39.5 t70.5 -103.5q19 40 43.5 74t57.5 65q22 8 37 11.5t28 3.5q19 0 39.5 -9t50.5 -30q72 -13 111 -69t39 -146q0 -132 -82.5 -231t-183.5 -99q-33 0 -56 8t-47 27v-57q0 -121 41 -184.5t119 -63.5q73 0 122 48.5t58 130.5q0 4 -2 10q-2 10 -2 13q1 15 7 21t18 6q14 0 23.5 -10.5 t9.5 -28.5q0 -83 -69.5 -154t-160.5 -71q-73 0 -129.5 39t-105.5 123q-48 -71 -106.5 -107.5t-123.5 -36.5q-89 0 -137.5 61.5t-48.5 174.5zM184 160q0 -94 30 -144.5t85 -50.5q73 0 121.5 68t48.5 180v39q0 23 -1 71.5t-1 71.5q-35 26 -63.5 37.5t-55.5 11.5 q-69 0 -116.5 -79.5t-47.5 -204.5zM573 330q13 0 33 -39t80 -39q81 0 133.5 84.5t52.5 212.5q0 80 -27 125t-75 45q-79 0 -132.5 -105t-64.5 -284z" />
<glyph unicode="&#xe7;" horiz-adv-x="653" d="M80 264q0 199 87 375t163 176q22 0 51 -18t65 -54q75 -23 108.5 -76.5t33.5 -150.5q0 -15 -3 -59.5t-3 -73.5v-21q-13 -10 -19 -13t-12 -3q-38 0 -57 18.5t-19 57.5q0 16 8.5 75t8.5 101q0 63 -18.5 93t-55.5 30q-80 0 -157 -159.5t-77 -350.5q0 -146 47.5 -220.5 t141.5 -74.5q70 0 122 48.5t68 131.5q-5 7 -7.5 13.5t-2.5 11.5q0 13 8.5 23t20.5 10q14 0 25 -11.5t11 -27.5q0 -84 -73.5 -156t-171.5 -72q-128 0 -210.5 105t-82.5 272zM200 -369q0 8 8 14.5t19 6.5q2 0 27.5 -30t89.5 -30q54 0 83 22.5t29 63.5q0 31 -18.5 48.5 t-50.5 17.5q-19 0 -41.5 -3t-26.5 -3q-18 0 -25.5 7.5t-7.5 25.5q0 11 0.5 16.5t1.5 9.5l23 127h55l-22 -125q18 8 35.5 11.5t37.5 3.5q63 0 101.5 -36t38.5 -93q0 -70 -50.5 -110t-140.5 -40q-72 0 -119 27.5t-47 68.5z" />
<glyph unicode="&#xe8;" horiz-adv-x="616" d="M74 309q0 134 51 266t133 209q22 8 37 11.5t29 3.5q18 0 38.5 -9t51.5 -30q71 -13 110 -69t39 -146q0 -132 -82.5 -231t-183.5 -99q-33 0 -56 8t-46 27v-57q0 -121 40.5 -184.5t118.5 -63.5q73 0 121 48t57 131q0 4 -1 9q-3 11 -3 14q0 14 7 20.5t20 6.5q15 0 24 -10.5 t9 -28.5q0 -83 -70.5 -154t-161.5 -71q-122 0 -202 112.5t-80 286.5zM199 330q12 0 32 -39t80 -39q81 0 134 84.5t53 212.5q0 79 -28.5 124.5t-76.5 45.5q-66 0 -117.5 -103t-76.5 -286zM210 1063q0 17 16 31t32 14q28 0 72 -52t83 -81q32 -23 77.5 -46.5t45.5 -41.5 q0 -9 -8 -16t-18 -7q-70 0 -185 78t-115 121z" />
<glyph unicode="&#xe9;" horiz-adv-x="616" d="M74 309q0 134 51 266t133 209q22 8 37 11.5t29 3.5q18 0 38.5 -9t51.5 -30q71 -13 110 -69t39 -146q0 -132 -82.5 -231t-183.5 -99q-33 0 -56 8t-46 27v-57q0 -121 40.5 -184.5t118.5 -63.5q73 0 121 48t57 131q0 4 -1 9q-3 11 -3 14q0 14 7 20.5t20 6.5q15 0 24 -10.5 t9 -28.5q0 -83 -70.5 -154t-161.5 -71q-122 0 -202 112.5t-80 286.5zM199 330q12 0 32 -39t80 -39q81 0 134 84.5t53 212.5q0 79 -28.5 124.5t-76.5 45.5q-66 0 -117.5 -103t-76.5 -286zM210 885q0 21 43 43q46 23 78 47q38 28 82 80.5t74 52.5q17 0 33 -14t16 -33 q0 -41 -115.5 -119t-185.5 -78q-10 0 -17.5 7t-7.5 14z" />
<glyph unicode="&#xea;" horiz-adv-x="616" d="M74 309q0 134 51 266t133 209q22 8 37 11.5t29 3.5q18 0 38.5 -9t51.5 -30q71 -13 110 -69t39 -146q0 -132 -82.5 -231t-183.5 -99q-33 0 -56 8t-46 27v-57q0 -121 40.5 -184.5t118.5 -63.5q73 0 121 48t57 131q0 4 -1 9q-3 11 -3 14q0 14 7 20.5t20 6.5q15 0 24 -10.5 t9 -28.5q0 -83 -70.5 -154t-161.5 -71q-122 0 -202 112.5t-80 286.5zM133 891q0 11 71 84t127 168q8 7 16 10.5t19 3.5q9 0 15 -2t14 -8q52 -103 122 -168.5t70 -71.5q0 -16 -12.5 -25.5t-34.5 -9.5q-40 0 -87.5 46t-94.5 131q-54 -99 -97 -141t-91 -42q-15 1 -26 8.5 t-11 16.5zM199 330q12 0 32 -39t80 -39q81 0 134 84.5t53 212.5q0 79 -28.5 124.5t-76.5 45.5q-66 0 -117.5 -103t-76.5 -286z" />
<glyph unicode="&#xeb;" horiz-adv-x="616" d="M74 309q0 134 51 266t133 209q22 8 37 11.5t29 3.5q18 0 38.5 -9t51.5 -30q71 -13 110 -69t39 -146q0 -132 -82.5 -231t-183.5 -99q-33 0 -56 8t-46 27v-57q0 -121 40.5 -184.5t118.5 -63.5q73 0 121 48t57 131q0 4 -1 9q-3 11 -3 14q0 14 7 20.5t20 6.5q15 0 24 -10.5 t9 -28.5q0 -83 -70.5 -154t-161.5 -71q-122 0 -202 112.5t-80 286.5zM161 981q0 33 19 53.5t49 20.5q35 0 55.5 -21t20.5 -55q0 -31 -20.5 -49.5t-55.5 -18.5q-32 0 -50 18.5t-18 51.5zM199 330q12 0 32 -39t80 -39q81 0 134 84.5t53 212.5q0 79 -28.5 124.5t-76.5 45.5 q-66 0 -117.5 -103t-76.5 -286zM413 981q0 33 19 53.5t49 20.5q35 0 55.5 -21t20.5 -55q0 -31 -20.5 -49.5t-55.5 -18.5q-32 0 -50 18.5t-18 51.5z" />
<glyph unicode="&#xec;" horiz-adv-x="418" d="M108 1063q0 17 16 31t32 14q28 0 72 -52t83 -81q32 -23 77.5 -46.5t45.5 -41.5q0 -9 -8 -16t-18 -7q-70 0 -185 78t-115 121zM123 199q0 55 23 253q10 90 16 142q-9 7 -13 14.5t-4 16.5q0 18 19.5 28.5t52.5 10.5t59.5 -21.5t26.5 -42.5q0 -9 -4.5 -17t-13.5 -16 q-25 -118 -38.5 -228t-13.5 -202q0 -108 23 -153t76 -45q23 0 41 6.5t37 21.5q0 19 5.5 29t16.5 10q10 0 16.5 -8t6.5 -21q0 -28 -36.5 -46.5t-94.5 -18.5q-96 0 -148.5 75t-52.5 212z" />
<glyph unicode="&#xed;" horiz-adv-x="418" d="M108 885q0 21 43 43q46 23 78 47q38 28 82 80.5t74 52.5q17 0 33 -14t16 -33q0 -41 -115.5 -119t-185.5 -78q-10 0 -17.5 7t-7.5 14zM123 199q0 55 23 253q10 90 16 142q-9 7 -13 14.5t-4 16.5q0 18 19.5 28.5t52.5 10.5t59.5 -21.5t26.5 -42.5q0 -9 -4.5 -17t-13.5 -16 q-25 -118 -38.5 -228t-13.5 -202q0 -108 23 -153t76 -45q23 0 41 6.5t37 21.5q0 19 5.5 29t16.5 10q10 0 16.5 -8t6.5 -21q0 -28 -36.5 -46.5t-94.5 -18.5q-96 0 -148.5 75t-52.5 212z" />
<glyph unicode="&#xee;" horiz-adv-x="418" d="M31 891q0 11 71 84t127 168q8 7 16 10.5t19 3.5q9 0 15 -2t14 -8q52 -103 122 -168.5t70 -71.5q0 -16 -12.5 -25.5t-34.5 -9.5q-40 0 -87.5 46t-94.5 131q-54 -99 -97 -141t-91 -42q-15 1 -26 8.5t-11 16.5zM123 199q0 55 23 253q10 90 16 142q-9 7 -13 14.5t-4 16.5 q0 18 19.5 28.5t52.5 10.5t59.5 -21.5t26.5 -42.5q0 -9 -4.5 -17t-13.5 -16q-25 -118 -38.5 -228t-13.5 -202q0 -108 23 -153t76 -45q23 0 41 6.5t37 21.5q0 19 5.5 29t16.5 10q10 0 16.5 -8t6.5 -21q0 -28 -36.5 -46.5t-94.5 -18.5q-96 0 -148.5 75t-52.5 212z" />
<glyph unicode="&#xef;" horiz-adv-x="418" d="M59 981q0 33 19 53.5t49 20.5q35 0 55.5 -21t20.5 -55q0 -31 -20.5 -49.5t-55.5 -18.5q-32 0 -50 18.5t-18 51.5zM123 199q0 55 23 253q10 90 16 142q-9 7 -13 14.5t-4 16.5q0 18 19.5 28.5t52.5 10.5t59.5 -21.5t26.5 -42.5q0 -9 -4.5 -17t-13.5 -16 q-25 -118 -38.5 -228t-13.5 -202q0 -108 23 -153t76 -45q23 0 41 6.5t37 21.5q0 19 5.5 29t16.5 10q10 0 16.5 -8t6.5 -21q0 -28 -36.5 -46.5t-94.5 -18.5q-96 0 -148.5 75t-52.5 212zM311 981q0 33 19 53.5t49 20.5q35 0 55.5 -21t20.5 -55q0 -31 -20.5 -49.5t-55.5 -18.5 q-32 0 -50 18.5t-18 51.5z" />
<glyph unicode="&#xf0;" horiz-adv-x="735" d="M76 272q0 174 58 309t162 205q56 -5 107.5 -44t51.5 -66q0 -7 -5 -13t-10 -6t-21.5 12.5t-27.5 12.5q-70 0 -131 -131t-61 -305q0 -164 47.5 -242t146.5 -78q107 0 163 85.5t56 248.5q0 145 -50 315.5t-159 395.5q-95 -35 -166 -56.5t-87 -21.5q-9 0 -17 9t-8 18 q0 5 83 32t169 70q-40 78 -77 141.5t-72 113.5q-10 7 -12.5 11t-2.5 10q0 7 7 14t13 7q23 0 68 -60t137 -212q69 30 146.5 71t87.5 41q6 0 11 -6t5 -14q0 -22 -56.5 -57.5t-166.5 -82.5q109 -189 166 -367.5t57 -334.5q0 -189 -82.5 -298.5t-222.5 -109.5 q-148 0 -227.5 99.5t-79.5 283.5z" />
<glyph unicode="&#xf1;" horiz-adv-x="653" d="M104 96q0 151 29 352t29 240q0 4 -1.5 16.5t-4.5 31.5l4 16q13 8 25.5 12t27.5 4q36 0 50 -10t17 -38q-37 -132 -57 -297t-20 -339q0 -20 5.5 -30.5t14.5 -10.5q10 0 23 99t28 177q41 208 83.5 298t97.5 90q54 0 76 -58t22 -239v-148q0 -121 11 -185.5t32 -64.5q4 0 14 4 t17 4q4 0 8 -3.5t4 -8.5q0 -10 -12.5 -17t-30.5 -7q-69 0 -110.5 77t-41.5 211q0 16 2.5 94t2.5 140q0 78 -7.5 102.5t-27.5 24.5q-26 0 -60.5 -108t-60.5 -281q-8 -52 -18 -137q-20 -179 -85 -179q-45 0 -65.5 40t-20.5 128zM143 940q0 42 36.5 91.5t80.5 49.5q13 0 33 -5 t42 -15l62 -27q26 -11 46 -17.5t30 -6.5q27 0 52 32.5t36 32.5q5 0 8.5 -5t3.5 -13q0 -42 -36 -93t-81 -51q-15 0 -35 5.5t-43 15.5l-61 27q-26 11 -45.5 17.5t-28.5 6.5q-27 0 -53 -32.5t-35 -32.5q-5 0 -8.5 5.5t-3.5 14.5z" />
<glyph unicode="&#xf2;" horiz-adv-x="735" d="M78 256q0 180 64 321.5t175 210.5h17q41 0 76.5 -18t82.5 -65q9 2 18.5 4t16.5 2q67 0 114.5 -106.5t47.5 -270.5q0 -216 -81.5 -330.5t-235.5 -114.5q-138 0 -216.5 98t-78.5 269zM201 223q0 -150 45 -223.5t139 -73.5q114 0 171.5 88.5t57.5 264.5q0 151 -37 267 t-73 116q-5 -1 -9 -1.5t-12 -2.5q-15 14 -32 21t-33 7q-81 0 -149 -138.5t-68 -324.5zM245 1063q0 17 16 31t32 14q28 0 72 -52t83 -81q32 -23 77.5 -46.5t45.5 -41.5q0 -9 -8 -16t-18 -7q-70 0 -185 78t-115 121z" />
<glyph unicode="&#xf3;" horiz-adv-x="735" d="M78 256q0 180 64 321.5t175 210.5h17q41 0 76.5 -18t82.5 -65q9 2 18.5 4t16.5 2q67 0 114.5 -106.5t47.5 -270.5q0 -216 -81.5 -330.5t-235.5 -114.5q-138 0 -216.5 98t-78.5 269zM201 223q0 -150 45 -223.5t139 -73.5q114 0 171.5 88.5t57.5 264.5q0 151 -37 267 t-73 116q-5 -1 -9 -1.5t-12 -2.5q-15 14 -32 21t-33 7q-81 0 -149 -138.5t-68 -324.5zM245 885q0 21 43 43q46 23 78 47q38 28 82 80.5t74 52.5q17 0 33 -14t16 -33q0 -41 -115.5 -119t-185.5 -78q-10 0 -17.5 7t-7.5 14z" />
<glyph unicode="&#xf4;" horiz-adv-x="735" d="M78 256q0 180 64 321.5t175 210.5h17q41 0 76.5 -18t82.5 -65q9 2 18.5 4t16.5 2q67 0 114.5 -106.5t47.5 -270.5q0 -216 -81.5 -330.5t-235.5 -114.5q-138 0 -216.5 98t-78.5 269zM168 891q0 11 71 84t127 168q8 7 16 10.5t19 3.5q9 0 15 -2t14 -8q52 -103 122 -168.5 t70 -71.5q0 -16 -12.5 -25.5t-34.5 -9.5q-40 0 -87.5 46t-94.5 131q-54 -99 -97 -141t-91 -42q-15 1 -26 8.5t-11 16.5zM201 223q0 -150 45 -223.5t139 -73.5q114 0 171.5 88.5t57.5 264.5q0 151 -37 267t-73 116q-5 -1 -9 -1.5t-12 -2.5q-15 14 -32 21t-33 7 q-81 0 -149 -138.5t-68 -324.5z" />
<glyph unicode="&#xf5;" horiz-adv-x="735" d="M78 256q0 180 64 321.5t175 210.5h17q41 0 76.5 -18t82.5 -65q9 2 18.5 4t16.5 2q67 0 114.5 -106.5t47.5 -270.5q0 -216 -81.5 -330.5t-235.5 -114.5q-138 0 -216.5 98t-78.5 269zM180 940q0 42 36.5 91.5t80.5 49.5q13 0 33 -5t42 -15l62 -27q26 -11 46 -17.5t30 -6.5 q27 0 52 32.5t36 32.5q5 0 8.5 -5t3.5 -13q0 -42 -36 -93t-81 -51q-15 0 -35 5.5t-43 15.5l-61 27q-26 11 -45.5 17.5t-28.5 6.5q-27 0 -53 -32.5t-35 -32.5q-5 0 -8.5 5.5t-3.5 14.5zM201 223q0 -150 45 -223.5t139 -73.5q114 0 171.5 88.5t57.5 264.5q0 151 -37 267 t-73 116q-5 -1 -9 -1.5t-12 -2.5q-15 14 -32 21t-33 7q-81 0 -149 -138.5t-68 -324.5z" />
<glyph unicode="&#xf6;" horiz-adv-x="735" d="M78 256q0 180 64 321.5t175 210.5h17q41 0 76.5 -18t82.5 -65q9 2 18.5 4t16.5 2q67 0 114.5 -106.5t47.5 -270.5q0 -216 -81.5 -330.5t-235.5 -114.5q-138 0 -216.5 98t-78.5 269zM196 981q0 33 19 53.5t49 20.5q35 0 55.5 -21t20.5 -55q0 -31 -20.5 -49.5t-55.5 -18.5 q-32 0 -50 18.5t-18 51.5zM201 223q0 -150 45 -223.5t139 -73.5q114 0 171.5 88.5t57.5 264.5q0 151 -37 267t-73 116q-5 -1 -9 -1.5t-12 -2.5q-15 14 -32 21t-33 7q-81 0 -149 -138.5t-68 -324.5zM448 981q0 33 19 53.5t49 20.5q35 0 55.5 -21t20.5 -55q0 -31 -20.5 -49.5 t-55.5 -18.5q-32 0 -50 18.5t-18 51.5z" />
<glyph unicode="&#xf7;" horiz-adv-x="1706" d="M254 561v98h1198v-98h-1198zM748 258q0 44 31 75.5t75 31.5q45 0 76 -31t31 -76q0 -44 -31 -75t-76 -31t-75.5 31t-30.5 75zM748 963q0 44 31.5 76t74.5 32q44 0 75.5 -32t31.5 -76q0 -45 -31 -76t-76 -31t-75.5 30.5t-30.5 76.5z" />
<glyph unicode="&#xf8;" horiz-adv-x="735" d="M78 258q0 180 63.5 320.5t175.5 209.5h17q41 0 76.5 -18t82.5 -65q9 3 15.5 4.5t11.5 1.5q3 0 16.5 -3.5t20.5 -4.5q8 23 14 47.5t11 50.5q3 29 9 40t19 11q20 0 37 -21t17 -45q0 -11 -13 -45t-37 -86q39 -59 57.5 -135.5t18.5 -181.5q0 -218 -81.5 -333.5t-235.5 -115.5 q-36 0 -64.5 5t-54.5 16q-50 -75 -85.5 -115.5t-51.5 -40.5q-4 0 -7 2.5t-4 5.5q0 9 26 44q11 15 18 25q17 23 32 48.5t29 52.5q-70 63 -101.5 140t-31.5 186zM201 215q0 -79 12.5 -132.5t38.5 -88.5q94 182 165 345t115 297q-11 14 -18.5 19.5t-13.5 6.5q-2 -1 -8 -2.5 t-9 -2.5q-15 15 -32 22t-33 7q-82 0 -149.5 -140.5t-67.5 -330.5zM281 -43q25 -16 52 -23.5t64 -7.5q107 0 162 94.5t55 276.5q0 90 -10 150.5t-33 111.5q-80 -192 -154.5 -346.5t-135.5 -255.5z" />
<glyph unicode="&#xf9;" horiz-adv-x="616" d="M96 258q0 82 12.5 191.5t12.5 136.5q0 29 -1 43t-3 26q0 16 15 25.5t42 9.5q34 0 57 -21t23 -36q-21 -38 -38 -157.5t-17 -256.5q0 -113 18.5 -172t54.5 -59q37 0 66.5 50t52.5 152q22 99 35.5 221t13.5 207q0 1 -1 5.5t-1 9.5q0 2 -1.5 13t-2.5 20v13q7 13 24 19.5 t46 6.5q20 0 41.5 -18.5t21.5 -37.5v-2l-2 -14q-16 -5 -34.5 -140.5t-18.5 -302.5q0 -101 13 -141.5t44 -40.5q8 0 15 17.5t18 17.5q8 0 13 -5.5t6 -14.5q0 -23 -18.5 -37.5t-47.5 -14.5q-53 0 -87 58.5t-40 158.5q-29 -118 -73.5 -179.5t-100.5 -61.5q-73 0 -115.5 82.5 t-42.5 228.5zM192 1063q0 17 16 31t32 14q28 0 72 -52t83 -81q32 -23 77.5 -46.5t45.5 -41.5q0 -9 -8 -16t-18 -7q-70 0 -185 78t-115 121z" />
<glyph unicode="&#xfa;" horiz-adv-x="616" d="M96 258q0 82 12.5 191.5t12.5 136.5q0 29 -1 43t-3 26q0 16 15 25.5t42 9.5q34 0 57 -21t23 -36q-21 -38 -38 -157.5t-17 -256.5q0 -113 18.5 -172t54.5 -59q37 0 66.5 50t52.5 152q22 99 35.5 221t13.5 207q0 1 -1 5.5t-1 9.5q0 2 -1.5 13t-2.5 20v13q7 13 24 19.5 t46 6.5q20 0 41.5 -18.5t21.5 -37.5v-2l-2 -14q-16 -5 -34.5 -140.5t-18.5 -302.5q0 -101 13 -141.5t44 -40.5q8 0 15 17.5t18 17.5q8 0 13 -5.5t6 -14.5q0 -23 -18.5 -37.5t-47.5 -14.5q-53 0 -87 58.5t-40 158.5q-29 -118 -73.5 -179.5t-100.5 -61.5q-73 0 -115.5 82.5 t-42.5 228.5zM192 885q0 21 43 43q46 23 78 47q38 28 82 80.5t74 52.5q17 0 33 -14t16 -33q0 -41 -115.5 -119t-185.5 -78q-10 0 -17.5 7t-7.5 14z" />
<glyph unicode="&#xfb;" horiz-adv-x="616" d="M96 258q0 82 12.5 191.5t12.5 136.5q0 29 -1 43t-3 26q0 16 15 25.5t42 9.5q34 0 57 -21t23 -36q-21 -38 -38 -157.5t-17 -256.5q0 -113 18.5 -172t54.5 -59q37 0 66.5 50t52.5 152q22 99 35.5 221t13.5 207q0 1 -1 5.5t-1 9.5q0 2 -1.5 13t-2.5 20v13q7 13 24 19.5 t46 6.5q20 0 41.5 -18.5t21.5 -37.5v-2l-2 -14q-16 -5 -34.5 -140.5t-18.5 -302.5q0 -101 13 -141.5t44 -40.5q8 0 15 17.5t18 17.5q8 0 13 -5.5t6 -14.5q0 -23 -18.5 -37.5t-47.5 -14.5q-53 0 -87 58.5t-40 158.5q-29 -118 -73.5 -179.5t-100.5 -61.5q-73 0 -115.5 82.5 t-42.5 228.5zM115 891q0 11 71 84t127 168q8 7 16 10.5t19 3.5q9 0 15 -2t14 -8q52 -103 122 -168.5t70 -71.5q0 -16 -12.5 -25.5t-34.5 -9.5q-40 0 -87.5 46t-94.5 131q-54 -99 -97 -141t-91 -42q-15 1 -26 8.5t-11 16.5z" />
<glyph unicode="&#xfc;" horiz-adv-x="616" d="M96 258q0 82 12.5 191.5t12.5 136.5q0 29 -1 43t-3 26q0 16 15 25.5t42 9.5q34 0 57 -21t23 -36q-21 -38 -38 -157.5t-17 -256.5q0 -113 18.5 -172t54.5 -59q37 0 66.5 50t52.5 152q22 99 35.5 221t13.5 207q0 1 -1 5.5t-1 9.5q0 2 -1.5 13t-2.5 20v13q7 13 24 19.5 t46 6.5q20 0 41.5 -18.5t21.5 -37.5v-2l-2 -14q-16 -5 -34.5 -140.5t-18.5 -302.5q0 -101 13 -141.5t44 -40.5q8 0 15 17.5t18 17.5q8 0 13 -5.5t6 -14.5q0 -23 -18.5 -37.5t-47.5 -14.5q-53 0 -87 58.5t-40 158.5q-29 -118 -73.5 -179.5t-100.5 -61.5q-73 0 -115.5 82.5 t-42.5 228.5zM143 981q0 33 19 53.5t49 20.5q35 0 55.5 -21t20.5 -55q0 -31 -20.5 -49.5t-55.5 -18.5q-32 0 -50 18.5t-18 51.5zM395 981q0 33 19 53.5t49 20.5q35 0 55.5 -21t20.5 -55q0 -31 -20.5 -49.5t-55.5 -18.5q-32 0 -50 18.5t-18 51.5z" />
<glyph unicode="&#xfd;" horiz-adv-x="653" d="M80 -365q0 12 6 19.5t14 7.5q7 0 11 -4.5t4 -11.5q0 -3 -1 -12t-1 -13q0 -34 50.5 -60t119.5 -26q96 0 152.5 70.5t56.5 191.5q0 96 -29 419v3q-37 -133 -81.5 -190.5t-109.5 -57.5q-66 0 -118 90.5t-52 217.5q0 92 12.5 207.5t12.5 136.5q0 18 -3.5 32.5t-10.5 29.5 q3 19 16 27.5t39 8.5q34 0 55 -17t21 -45q-13 0 -26 -124t-13 -295q0 -114 24 -170t72 -56q75 0 119.5 164t44.5 445q0 45 -2.5 68t-7.5 43q1 13 19 21.5t48 8.5q26 0 45 -13t19 -28q0 -7 -6 -24q-2 -5 -2 -6q-14 -64 -20.5 -140t-6.5 -164q0 -160 21.5 -356.5t21.5 -233.5 q0 -150 -78.5 -239.5t-208.5 -89.5q-94 0 -160.5 49.5t-66.5 115.5zM178 885q0 21 43 43q46 23 78 47q38 28 82 80.5t74 52.5q17 0 33 -14t16 -33q0 -41 -115.5 -119t-185.5 -78q-10 0 -17.5 7t-7.5 14z" />
<glyph unicode="&#xfe;" horiz-adv-x="768" d="M96 -465q1 11 1.5 24t0.5 44v141v106q0 345 33 696.5t98 737.5l-2 4q-12 18 -12 25q0 18 18.5 30.5t47.5 12.5q36 0 63 -19.5t27 -42.5q0 -5 -3 -11t-12 -17q-69 -265 -108.5 -545t-46.5 -557q50 283 114.5 398.5t165.5 115.5t165.5 -100t64.5 -261q0 -172 -95 -285.5 t-237 -113.5q-44 0 -85 9t-77 25q-3 -42 -4.5 -72.5t-1.5 -49.5q0 -110 3 -167.5t9 -90.5l14 -30q-4 -19 -30 -30.5t-66 -11.5q-24 0 -32.5 7t-12.5 28zM224 36q5 -6 15 -24q37 -67 150 -67q102 0 157.5 87t55.5 249q0 148 -45 237.5t-117 89.5q-78 0 -127.5 -129.5 t-88.5 -442.5z" />
<glyph unicode="&#xff;" horiz-adv-x="653" d="M80 -365q0 12 6 19.5t14 7.5q7 0 11 -4.5t4 -11.5q0 -3 -1 -12t-1 -13q0 -34 50.5 -60t119.5 -26q96 0 152.5 70.5t56.5 191.5q0 96 -29 419v3q-37 -133 -81.5 -190.5t-109.5 -57.5q-66 0 -118 90.5t-52 217.5q0 92 12.5 207.5t12.5 136.5q0 18 -3.5 32.5t-10.5 29.5 q3 19 16 27.5t39 8.5q34 0 55 -17t21 -45q-13 0 -26 -124t-13 -295q0 -114 24 -170t72 -56q75 0 119.5 164t44.5 445q0 45 -2.5 68t-7.5 43q1 13 19 21.5t48 8.5q26 0 45 -13t19 -28q0 -7 -6 -24q-2 -5 -2 -6q-14 -64 -20.5 -140t-6.5 -164q0 -160 21.5 -356.5t21.5 -233.5 q0 -150 -78.5 -239.5t-208.5 -89.5q-94 0 -160.5 49.5t-66.5 115.5zM129 981q0 33 19 53.5t49 20.5q35 0 55.5 -21t20.5 -55q0 -31 -20.5 -49.5t-55.5 -18.5q-32 0 -50 18.5t-18 51.5zM381 981q0 33 19 53.5t49 20.5q35 0 55.5 -21t20.5 -55q0 -31 -20.5 -49.5t-55.5 -18.5 q-32 0 -50 18.5t-18 51.5z" />
<glyph unicode="&#x152;" horiz-adv-x="2288" d="M63 606q0 280 130.5 520t359.5 379q36 8 53 10.5t31 2.5h12q106 -29 176 -63t70 -54q0 -10 -6.5 -18.5t-14.5 -8.5l-44.5 23.5t-92.5 23.5q-63 0 -135.5 -45.5t-142.5 -130.5q-114 -139 -174 -312t-60 -366q0 -297 120.5 -452.5t350.5 -155.5q111 0 202 44.5t155 129.5 q-14 27 -20.5 52t-6.5 48q0 57 36.5 109.5t106.5 95.5q8 50 11.5 88t3.5 72q0 297 -101.5 480.5t-263.5 183.5q-142 0 -240 -150t-98 -367q0 -135 55.5 -208.5t155.5 -73.5q33 0 59 13t27 13q10 0 18.5 -8.5t8.5 -19.5q0 -21 -26.5 -35t-67.5 -14q-125 0 -204 102t-79 268 q0 227 120 393t286 166q111 0 197.5 -57t148.5 -170q90 168 222.5 286t215.5 118q38 0 99.5 -23.5t137.5 -67.5q65 -35 115 -73.5t80 -75.5q45 -55 70.5 -139t25.5 -181l-1 -15.5t-1 -30.5q3 -9 4.5 -16.5t1.5 -12.5q0 -27 -33.5 -51.5t-62.5 -24.5q-30 0 -48.5 12.5 t-18.5 32.5q0 5 1.5 12.5t4.5 18.5q5 46 6.5 67.5t1.5 38.5q0 199 -67.5 309.5t-186.5 110.5q-59 0 -123.5 -30.5t-126.5 -88.5q-98 -90 -154.5 -191t-56.5 -184q0 -147 105 -227.5t302 -85.5q94 10 165 16.5t92 6.5q28 0 41.5 -10t13.5 -29q0 -25 -32 -37t-95 -12 q-25 0 -66 1t-57 1h-129q-211 -34 -320.5 -108.5t-109.5 -184.5q0 -113 136.5 -180.5t369.5 -67.5q218 0 363 82.5t145 200.5q0 8 -3 27q-1 4 -1 5q-13 7 -20 14.5t-7 16.5q0 11 8.5 19t20.5 8q25 0 37 -21t12 -63q0 -145 -185 -255t-454 -110q-179 0 -324 47.5t-215 126.5 q-75 -87 -175 -130.5t-226 -43.5q-142 0 -243 42.5t-187 137.5q-94 103 -139.5 227.5t-45.5 276.5zM1254 480q62 27 143 48.5t194 40.5q-120 23 -194.5 52t-124.5 71q0 -53 -4.5 -106.5t-13.5 -105.5z" />
<glyph unicode="&#x153;" horiz-adv-x="1112" d="M78 258q0 180 59.5 320.5t163.5 209.5h16q37 0 69.5 -17.5t77.5 -65.5q8 2 17 4t17 2q37 0 71.5 -42.5t51.5 -111.5q25 70 57.5 121t75.5 90q22 8 36.5 11t28.5 3q18 0 37 -8t51 -31q71 -12 110.5 -68.5t39.5 -146.5q0 -131 -82 -230t-182 -99q-33 0 -56.5 8t-46.5 26 q0 -7 -1 -26t-1 -31q0 -121 41 -184.5t119 -63.5q73 0 122 49t58 132q0 2 -2 9q-2 9 -2 13q0 13 6.5 20t18.5 7q14 0 23 -11t9 -28q0 -82 -69.5 -152.5t-159.5 -70.5q-85 0 -148 46t-94 130q-38 -91 -103 -137t-155 -46q-128 0 -201 98t-73 271zM201 229q0 -158 42 -230.5 t134 -72.5q99 0 151 89.5t52 260.5q0 156 -34 271t-69 115q-4 -1 -7.5 -1.5t-11.5 -2.5q-13 13 -28.5 20.5t-30.5 7.5q-73 0 -135.5 -136.5t-62.5 -320.5zM692 313q13 0 33 -38.5t80 -38.5q80 0 133 84.5t53 211.5q0 81 -27.5 127t-74.5 46q-67 0 -119.5 -104.5 t-77.5 -287.5z" />
<glyph unicode="&#x178;" horiz-adv-x="1726" d="M33 723q0 87 42 184.5t124 200.5q103 129 219 194.5t241 65.5q174 0 263.5 -123.5t89.5 -363.5q0 -93 -25.5 -266.5t-25.5 -258.5q0 -149 47.5 -230t134.5 -81q159 0 257.5 326.5t98.5 873.5q-3 11 -4.5 19.5t-1.5 13.5q0 28 25.5 42.5t74.5 14.5q40 0 63 -16.5t23 -44.5 q0 -10 -4 -21.5t-12 -25.5q-23 -144 -34 -275.5t-11 -253.5q0 -123 13.5 -324t13.5 -280q0 -300 -140 -464.5t-395 -164.5q-193 0 -341 116.5t-148 242.5q0 22 9 34.5t23 12.5q9 0 15 -6t6 -15q0 -5 -3 -11.5t-9 -14.5q26 -128 131 -200.5t264 -72.5q127 0 222.5 49 t145.5 140q41 74 58.5 176.5t17.5 310.5q0 64 -2.5 185t-3.5 170q-70 -326 -164 -463t-241 -137q-114 0 -192.5 110t-78.5 275q0 76 24.5 257.5t24.5 286.5q0 179 -63.5 270t-190.5 91q-100 0 -201.5 -59.5t-199.5 -176.5q-70 -84 -105.5 -163t-35.5 -152q0 -138 111 -214.5 t313 -76.5q77 0 102 6t39 21q3 11 7 15.5t11 4.5q11 0 19 -8t8 -20q0 -32 -49 -55t-121 -23q-221 0 -350 94.5t-129 257.5zM1032 1495q0 32 18.5 52t49.5 20q35 0 55.5 -19t20.5 -53q0 -31 -20.5 -49.5t-55.5 -18.5q-32 0 -50 18t-18 50zM1284 1495q0 33 17.5 52.5 t48.5 19.5q36 0 56.5 -19.5t20.5 -52.5q0 -31 -20 -49.5t-55 -18.5q-33 0 -50.5 18t-17.5 50z" />
<glyph unicode="&#x2c6;" d="M285 891q0 11 71 84t127 168q8 7 16 10.5t19 3.5q9 0 15 -2t14 -8q52 -103 122 -168.5t70 -71.5q0 -16 -12.5 -25.5t-34.5 -9.5q-40 0 -87.5 46t-94.5 131q-54 -99 -97 -141t-91 -42q-15 1 -26 8.5t-11 16.5z" />
<glyph unicode="&#x2dc;" d="M297 940q0 42 36.5 91.5t80.5 49.5q13 0 33 -5t42 -15l62 -27q26 -11 46 -17.5t30 -6.5q27 0 52 32.5t36 32.5q5 0 8.5 -5t3.5 -13q0 -42 -36 -93t-81 -51q-15 0 -35 5.5t-43 15.5l-61 27q-26 11 -45.5 17.5t-28.5 6.5q-27 0 -53 -32.5t-35 -32.5q-5 0 -8.5 5.5 t-3.5 14.5z" />
<glyph unicode="&#x2000;" horiz-adv-x="937" />
<glyph unicode="&#x2001;" horiz-adv-x="1874" />
<glyph unicode="&#x2002;" horiz-adv-x="937" />
<glyph unicode="&#x2003;" horiz-adv-x="1874" />
<glyph unicode="&#x2004;" horiz-adv-x="624" />
<glyph unicode="&#x2005;" horiz-adv-x="468" />
<glyph unicode="&#x2006;" horiz-adv-x="312" />
<glyph unicode="&#x2007;" horiz-adv-x="312" />
<glyph unicode="&#x2008;" horiz-adv-x="234" />
<glyph unicode="&#x2009;" horiz-adv-x="374" />
<glyph unicode="&#x200a;" horiz-adv-x="104" />
<glyph unicode="&#x2010;" horiz-adv-x="512" d="M80 373q0 13 2.5 19.5t7.5 6.5q4 0 10 -2q3 -1 4 -2q41 0 127.5 12.5t130.5 12.5q54 0 76.5 -13t22.5 -42q0 -19 -8 -28t-23 -9q-9 0 -18 4t-23 14q-49 -2 -122 -6t-95 -4q-48 0 -70 9t-22 28z" />
<glyph unicode="&#x2011;" horiz-adv-x="512" d="M80 373q0 13 2.5 19.5t7.5 6.5q4 0 10 -2q3 -1 4 -2q41 0 127.5 12.5t130.5 12.5q54 0 76.5 -13t22.5 -42q0 -19 -8 -28t-23 -9q-9 0 -18 4t-23 14q-49 -2 -122 -6t-95 -4q-48 0 -70 9t-22 28z" />
<glyph unicode="&#x2012;" horiz-adv-x="512" d="M80 373q0 13 2.5 19.5t7.5 6.5q4 0 10 -2q3 -1 4 -2q41 0 127.5 12.5t130.5 12.5q54 0 76.5 -13t22.5 -42q0 -19 -8 -28t-23 -9q-9 0 -18 4t-23 14q-49 -2 -122 -6t-95 -4q-48 0 -70 9t-22 28z" />
<glyph unicode="&#x2013;" d="M0 381q0 9 4.5 12.5t15.5 3.5q4 0 27.5 -3t42.5 -3h146q31 0 126 3q29 1 44 1l270 11h4q4 0 55 1t99 1q90 0 141 -11t51 -30q0 -9 -10.5 -13t-40.5 -4h-25h-88q-32 0 -73 -0.5t-87 -1.5l-397 -8h-72q-121 0 -177 10t-56 31z" />
<glyph unicode="&#x2014;" horiz-adv-x="2048" d="M-2 379q0 9 6 13.5t19 4.5q1 0 29.5 -3t56.5 -3h163q35 0 105.5 2t107.5 2l1145 11q30 0 92.5 1t96.5 1q112 0 170.5 -10.5t58.5 -30.5q0 -9 -12.5 -13t-48.5 -4h-29h-137q-27 0 -79.5 -1t-80.5 -1l-1296 -8q-67 0 -137.5 3t-73.5 3q-90 0 -123 7.5t-33 25.5z" />
<glyph unicode="&#x2018;" horiz-adv-x="465" d="M125 1202q0 84 44 151.5t81 67.5q10 0 15 -4.5t5 -13.5q0 -10 -43 -60.5t-43 -109.5q0 -6 1 -13.5t3 -15.5q14 34 31.5 48t46.5 14q27 0 44.5 -20t17.5 -52q0 -48 -30.5 -81.5t-74.5 -33.5q-43 0 -70.5 34t-27.5 89z" />
<glyph unicode="&#x2019;" horiz-adv-x="465" d="M123 1307q0 47 30.5 80.5t73.5 33.5q44 0 71.5 -34t27.5 -89q0 -84 -44 -151.5t-83 -67.5q-10 0 -14.5 5t-4.5 14q0 10 44 60t44 104q0 5 -1.5 14t-4.5 20q-13 -32 -30 -46.5t-42 -14.5q-30 0 -48.5 19.5t-18.5 52.5z" />
<glyph unicode="&#x201a;" horiz-adv-x="465" d="M133 51q0 48 29.5 80.5t73.5 32.5t72 -33.5t28 -87.5q0 -84 -45 -151.5t-82 -67.5q-10 0 -15 4t-6 14q0 11 44 61t44 103q0 6 -2 21q-1 9 -2 14q-13 -34 -30.5 -47.5t-46.5 -13.5q-27 0 -44.5 19.5t-17.5 51.5z" />
<glyph unicode="&#x201c;" horiz-adv-x="758" d="M133 1200q0 84 45 151.5t82 67.5q11 0 14.5 -3t4.5 -13q0 -10 -43 -61.5t-43 -110.5q0 -6 1 -13.5t3 -15.5q13 34 30.5 48t46.5 14q27 0 44.5 -20t17.5 -52q0 -48 -29 -80.5t-74 -32.5q-44 0 -72 33.5t-28 87.5zM426 1200q0 84 45 151.5t82 67.5q11 0 15.5 -3.5 t4.5 -12.5q0 -10 -44 -61.5t-44 -110.5q0 -1 2 -9.5t5 -18.5q14 34 30.5 47.5t44.5 13.5q27 0 44.5 -20t17.5 -52q0 -48 -29.5 -80.5t-73.5 -32.5t-72 33.5t-28 87.5z" />
<glyph unicode="&#x201d;" horiz-adv-x="758" d="M123 1307q0 47 30.5 80.5t73.5 33.5q44 0 71.5 -34t27.5 -89q0 -84 -44 -151.5t-83 -67.5q-10 0 -14.5 5t-4.5 14q0 10 44 60t44 104q0 5 -1.5 14t-4.5 20q-13 -32 -30 -46.5t-42 -14.5q-30 0 -48.5 19.5t-18.5 52.5zM418 1307q0 47 29.5 80.5t72.5 33.5q44 0 72.5 -34 t28.5 -89q0 -84 -45 -151.5t-84 -67.5q-10 0 -14.5 5t-4.5 14q0 10 44 60t44 104q0 10 -1 18t-3 16q-13 -31 -30.5 -46t-43.5 -15q-30 0 -47.5 19.5t-17.5 52.5z" />
<glyph unicode="&#x201e;" horiz-adv-x="758" d="M133 51q0 48 29.5 80.5t73.5 32.5t72 -33.5t28 -87.5q0 -84 -45 -151.5t-82 -67.5q-10 0 -15 4t-6 14q0 11 44 61t44 103q0 6 -2 21q-1 9 -2 14q-13 -34 -30.5 -47.5t-46.5 -13.5q-27 0 -44.5 19.5t-17.5 51.5zM426 51q0 47 30.5 80t73.5 33q44 0 71.5 -33.5t27.5 -87.5 q0 -84 -44.5 -151.5t-80.5 -67.5q-10 0 -15 4t-6 14q0 11 43 61t43 103q0 6 -2 21q-1 8 -2 14q-14 -34 -31 -47.5t-47 -13.5q-26 0 -43.5 19.5t-17.5 51.5z" />
<glyph unicode="&#x2022;" horiz-adv-x="1208" d="M307 762q0 123 87 209t210 86q122 0 208.5 -86.5t86.5 -208.5t-87.5 -209.5t-209.5 -87.5q-123 0 -209 87t-86 210z" />
<glyph unicode="&#x2026;" horiz-adv-x="2048" d="M252 45q0 41 27 65.5t72 24.5q52 0 82 -24t30 -66q0 -39 -31 -63.5t-79 -24.5q-46 0 -73.5 24t-27.5 64zM934 45q0 41 27 65.5t72 24.5q52 0 82 -24t30 -66q0 -39 -31 -63.5t-79 -24.5q-46 0 -73.5 24t-27.5 64zM1618 45q0 41 27 65.5t72 24.5q52 0 82 -24t30 -66 q0 -39 -31 -63.5t-79 -24.5q-46 0 -73.5 24t-27.5 64z" />
<glyph unicode="&#x202f;" horiz-adv-x="374" />
<glyph unicode="&#x2039;" horiz-adv-x="418" d="M78 373v8q0 13 3.5 22.5t10.5 18.5q102 64 178 146.5t82 82.5q9 0 13.5 -6t5.5 -18q0 -25 -54 -94.5t-133 -135.5q80 -56 129 -126t49 -124q0 -11 -8 -19.5t-20 -8.5q-17 0 -85.5 79.5t-160.5 131.5q-5 7 -7.5 15.5t-2.5 27.5z" />
<glyph unicode="&#x203a;" horiz-adv-x="418" d="M47 141q0 27 53 97.5t131 136.5q-77 53 -126.5 124.5t-49.5 125.5q0 11 8.5 19.5t20.5 8.5q17 0 84.5 -79.5t159.5 -131.5q5 -8 7.5 -17t2.5 -26v-10q0 -12 -3 -21t-9 -18q-102 -63 -178 -146t-82 -83q-8 0 -13.5 6t-5.5 14z" />
<glyph unicode="&#x205f;" horiz-adv-x="468" />
<glyph unicode="&#x20ac;" horiz-adv-x="930" d="M37 549q0 5 1.5 7.5t4.5 2.5q2 0 7 -1t7 -1q1 0 33.5 -4t40.5 -4h10q0 30 3.5 63.5t10.5 79.5q-65 2 -85.5 12.5t-20.5 40.5q0 6 1.5 8.5t4.5 2.5q2 0 6.5 -1t8.5 -1l13 -2q45 -7 60 -7h23q20 92 56 181.5t87 173.5q58 92 111.5 141t97.5 49q50 0 126.5 -33t125.5 -79 q65 -60 83.5 -103.5t18.5 -116.5q0 -28 -2 -44q-3 -19 -6 -44v-6q0 -17 -17.5 -29t-43.5 -12q-25 0 -42.5 13.5t-17.5 31.5q0 6 1 10.5t3 7.5l4.5 16.5t4.5 13.5q2 27 6 47t4 47q0 102 -40 152t-120 50q-49 0 -97 -42.5t-99 -133.5q-38 -66 -66.5 -140.5t-46.5 -151.5 q42 1 95 4t77 6q41 3 103 8q96 8 106 8q12 0 17 -5t5 -15q0 -31 -98 -47.5t-250 -16.5l-67 2q-7 -31 -12 -66t-8 -75q33 0 81 2.5t82 5.5q64 5 133.5 11.5t75.5 6.5q12 0 17 -4.5t5 -15.5q0 -30 -103 -47t-261 -17l-35 3v-50q0 -221 72.5 -332.5t216.5 -111.5q76 0 137 38.5 t92 106.5q18 39 24.5 66t6.5 55v6q-3 11 -3.5 15t-0.5 8q0 11 7.5 18.5t21.5 7.5q13 0 19.5 -10.5t6.5 -29.5q0 -136 -90.5 -231t-232.5 -95q-177 0 -282.5 145.5t-113.5 396.5q-64 2 -84 13t-20 41z" />
<glyph unicode="&#x2122;" horiz-adv-x="1683" d="M250 1260l10 174h438l11 -174h-25q-8 78 -41.5 114.5t-97.5 36.5h-23v-426q0 -25 13 -40t34 -15l33 -2v-25h-246v25l33 2q20 0 32.5 15.5t12.5 39.5v426h-22q-65 0 -98 -36.5t-40 -114.5h-24zM795 903v25h32q22 0 34.5 15t12.5 40v371q0 24 -13.5 39.5t-35.5 15.5l-30 2 v23h176l143 -406l154 406h168v-23l-31 -2q-21 0 -34 -15t-13 -40v-369q0 -25 13 -40t34 -15l31 -2v-25h-234v25l33 2q21 0 34 15t13 40v399l-182 -485h-13l-174 485v-399q0 -25 13 -40t35 -15l32 -2v-25h-198z" />
<glyph unicode="&#x25fc;" horiz-adv-x="825" d="M0 0v825h825v-825h-825z" />
</font>
</defs>
</svg>
